<?xml version="1.0" encoding="UTF-8" standalone="no"?>
<!-- Created with Inkscape (http://www.inkscape.org/) -->

<svg
   width="143.21945mm"
   height="155.47977mm"
   viewBox="0 0 143.21945 155.47977"
   version="1.1"
   id="svg1"
   xml:space="preserve"
   xmlns:inkscape="http://www.inkscape.org/namespaces/inkscape"
   xmlns:sodipodi="http://sodipodi.sourceforge.net/DTD/sodipodi-0.dtd"
   xmlns="http://www.w3.org/2000/svg"
   xmlns:svg="http://www.w3.org/2000/svg"><sodipodi:namedview
     id="namedview1"
     pagecolor="#ffffff"
     bordercolor="#000000"
     borderopacity="0.25"
     inkscape:showpageshadow="2"
     inkscape:pageopacity="0.0"
     inkscape:pagecheckerboard="0"
     inkscape:deskcolor="#d1d1d1"
     inkscape:document-units="mm"
     inkscape:zoom="1.6168981"
     inkscape:cx="397.05655"
     inkscape:cy="393.65497"
     inkscape:window-width="2790"
     inkscape:window-height="1559"
     inkscape:window-x="4793"
     inkscape:window-y="421"
     inkscape:window-maximized="0"
     inkscape:current-layer="layer1"><inkscape:page
       x="0"
       y="0"
       width="143.21945"
       height="155.47977"
       id="page2"
       margin="0"
       bleed="0" /></sodipodi:namedview><defs
     id="defs1" /><path
     style="fill:#4f6d7a;fill-opacity:1"
     d="m 68.143108,155.077 c -1.874817,-0.7197 -2.6857,-1.24247 -4.043483,-2.60683 -1.891295,-1.90045 -2.653378,-3.66284 -2.786332,-6.44367 l -0.109338,-2.28691 -3.475736,-1.96304 c -1.911655,-1.07967 -4.011518,-2.24901 -4.666362,-2.59853 -0.654843,-0.34952 -2.176543,-1.21487 -3.381554,-1.923 -1.205012,-0.70813 -2.231545,-1.28751 -2.281186,-1.28751 -0.04964,0 -1.266378,-0.66931 -2.703862,-1.48736 -1.437483,-0.81805 -4.994856,-2.79566 -7.905273,-4.39469 -2.910417,-1.59904 -7.256198,-4.01581 -9.657292,-5.37061 -5.687844,-3.20932 -7.629026,-4.2889 -8.601801,-4.78384 -0.767634,-0.39057 -0.852897,-0.3714 -2.345453,0.52737 -1.96468,1.18307 -3.787817,1.58956 -6.4405758,1.43599 -4.835098,-0.2799 -8.540781,-3.35809 -9.48305805,-7.87728 -0.318198,-1.52608 -0.338653,-2.22759 -0.103125,-3.53654 0.537168,-2.98529 2.74551405,-5.83735 5.63208005,-7.27379 l 1.233599,-0.61387 V 78.036252 53.479607 L 5.5063792,52.73693 c -7.448538,-3.64423 -7.255907,-14.065876 0.325565,-17.613675 3.58335,-1.676852 7.7668658,-1.377935 10.6631538,0.761895 0.598827,0.442425 0.971612,0.563323 1.190625,0.386135 0.175363,-0.141875 3.473998,-2.016323 7.3303,-4.165442 3.856303,-2.149118 7.904428,-4.408936 8.995834,-5.021819 7.342744,-4.123338 16.327272,-9.138052 21.298723,-11.887882 l 5.820598,-3.219513 0.0259,-1.702998 c 0.05097,-3.3513818 1.402414,-6.1743878 3.820797,-7.9812038 2.877735,-2.15000603 6.011001,-2.78799103 9.393501,-1.91267403 4.59978,1.19032203 7.79465,5.21049503 7.79465,9.80817483 0,1.573318 0.0384,1.6704 0.85989,2.174627 0.80149,0.491938 7.34951,4.16077 22.026574,12.341404 3.34698,1.865525 8.3476,4.666154 11.1125,6.223621 2.76489,1.557467 6.06586,3.393312 7.33548,4.079655 l 2.30839,1.247896 1.92818,-0.952959 c 6.38752,-3.156881 13.48439,-0.112302 15.18171,6.512994 1.09688,4.281525 -1.14727,9.03424 -5.18024,10.970867 l -1.59052,0.763768 -0.003,24.509051 -0.003,24.509058 1.42112,0.69529 c 4.05579,1.98431 6.30935,6.22175 5.48901,10.32115 -0.97149,4.85474 -4.5575,8.03166 -9.38107,8.31089 -2.65091,0.15346 -4.47268,-0.2577 -6.4284,-1.45084 l -1.5517,-0.94667 -1.98438,1.04786 c -1.0914,0.57632 -5.55625,3.04723 -9.92187,5.4909 -4.36563,2.44368 -10.08063,5.63333 -12.7,7.08812 -2.619384,1.45479 -5.953134,3.32402 -7.408344,4.15384 -1.4552,0.82982 -4.66989,2.61276 -7.14375,3.96208 l -4.49791,2.45332 -0.003,2.1561 c -0.002,1.77847 -0.12647,2.42108 -0.70909,3.66901 -0.93572,2.00421 -2.75385,3.90257 -4.78169,4.99267 -1.5343,0.8248 -1.84532,0.89186 -4.42833,0.95477 -2.12259,0.0517 -3.05906,-0.0402 -3.96875,-0.3894 z m -2.562034,-17.62827 c 1.99024,-1.50157 5.312012,-2.24599 7.757072,-1.7384 1.67141,0.34698 4.12543,1.41172 4.61592,2.00273 0.47326,0.57024 0.81764,0.47061 3.1949,-0.92422 1.21423,-0.71244 5.12472,-2.89827 8.68998,-4.85741 3.56526,-1.95914 7.91104,-4.3685 9.65729,-5.35415 7.331674,-4.13823 18.903054,-10.57186 21.365104,-11.87888 1.3427,-0.7128 1.52136,-0.90235 1.52136,-1.61411 v -0.80648 l -9.32657,-3.13944 c -5.12961,-1.72669 -9.5357,-3.27237 -9.79131,-3.43484 -0.43458,-0.27622 -2.61445,-3.74986 -8.851534,-14.104958 l -2.58067,-4.28456 -1.98903,1.90331 c -1.09396,1.04682 -5.53649,5.35612 -9.87229,9.57623 -4.33579,4.220098 -8.02673,7.703608 -8.20208,7.741118 -0.40096,0.0858 -1.34256,-0.79912 -11.528003,-10.833748 -4.564324,-4.49675 -8.433855,-8.13244 -8.598959,-8.07932 -0.297065,0.0956 -1.007671,1.22391 -7.82738,12.428718 -1.926396,3.16508 -3.521162,5.75599 -3.543924,5.75758 -0.02276,0.002 -4.261108,1.41189 -9.418548,3.134 -7.536443,2.51648 -9.425825,3.24017 -9.62506,3.68667 -0.503113,1.12752 -2.464002,-0.0806 21.780349,13.41954 13.309853,7.41143 20.157246,11.25527 20.769792,11.65929 0.729203,0.48096 0.845337,0.4643 1.803591,-0.25867 z m -38.308099,-34.1493 c 4.487598,-1.52359 8.300666,-2.92258 8.473485,-3.10886 0.543304,-0.585618 10.699204,-17.286388 10.703604,-17.601438 0.0015,-0.10986 -1.814169,-1.94928 -4.034896,-4.08761 l -4.037686,-3.887855 -0.551606,0.662385 c -0.303383,0.36432 -1.032451,1.45901 -1.620151,2.43266 -1.950703,3.23173 -5.926298,9.64878 -8.800923,14.20567 -7.935184,12.578948 -8.868637,14.155208 -8.382646,14.155208 0.05035,0 3.763221,-1.24657 8.250819,-2.77016 z m 97.323525,2.56247 c 0.0706,-0.11423 -1.63696,-3.0015 -3.79458,-6.416148 -2.15761,-3.41465 -4.25443,-6.74423 -4.65959,-7.39908 -0.40516,-0.65484 -1.35295,-2.14645 -2.1062,-3.31468 -0.75325,-1.16823 -2.31861,-3.66854 -3.47858,-5.55625 -3.02963,-4.93033 -5.42088,-8.591566 -5.61139,-8.591566 -0.0906,0 -1.97808,1.816256 -4.19448,4.036126 l -4.029824,4.03612 2.28121,3.70294 c 1.254664,2.03662 3.434124,5.60794 4.843234,7.93627 1.40911,2.32834 2.83721,4.65047 3.17355,5.16029 0.58531,0.887218 0.96459,1.048028 8.84708,3.751188 9.01133,3.09028 8.54758,2.94925 8.72957,2.65479 z M 16.46334,96.533422 c 1.284236,-2.04344 3.615979,-5.76414 5.181651,-8.26823 1.565671,-2.50409 3.185518,-5.08867 3.599659,-5.74352 1.422018,-2.2485 6.567135,-10.454017 8.958717,-14.287496 1.374236,-2.202771 2.564463,-3.836458 2.795062,-3.836458 0.220892,0 3.275094,2.783637 6.787116,6.18586 3.512022,3.402224 6.452172,6.119184 6.533668,6.037684 0.0815,-0.0815 0.642633,-0.98822 1.246971,-2.014956 1.70751,-2.900948 7.577778,-12.446909 13.436767,-21.850255 1.269385,-2.037292 3.22328,-5.222214 4.341985,-7.077604 1.11871,-1.855391 2.14087,-3.373438 2.27146,-3.373438 0.2606,0 0.92563,1.004646 4.20342,6.35 15.10988,24.640892 17.25705,28.037353 17.59853,27.837873 0.17787,-0.1039 3.07606,-2.86782 6.44044,-6.142039 3.364374,-3.274219 6.257784,-5.953125 6.429794,-5.953125 0.29736,0 2.23671,2.871004 5.27238,7.805208 0.76099,1.236928 2.89036,4.630206 4.73193,7.540626 1.84156,2.91042 5.41275,8.56589 7.93596,12.56771 2.52322,4.00182 4.7474,7.45038 4.94263,7.66347 0.29714,0.324308 0.35497,-3.43201 0.35497,-23.05902 V 53.469275 l -0.8409,-0.293138 c -1.52851,-0.53284 -3.3603,-1.899659 -4.30132,-3.209487 -1.45002,-2.01832 -1.79968,-3.057402 -1.89729,-5.638195 l -0.0886,-2.342179 -2.19063,-1.246857 C 116.31572,38.524192 109.75188,34.825444 100.68686,29.739342 95.811906,27.004159 88.886656,23.113267 85.297406,21.092914 l -6.52591,-3.673368 -0.96842,0.657192 c -1.82552,1.238826 -3.78678,1.817413 -6.22038,1.835053 -2.00142,0.01451 -2.43826,-0.07552 -3.968755,-0.817917 -0.945885,-0.458821 -2.023747,-1.033291 -2.395248,-1.2766 -0.651268,-0.426538 -0.722332,-0.413791 -1.984375,0.355957 -0.719905,0.439086 -4.880794,2.791663 -9.246419,5.227949 -4.365625,2.436286 -9.425781,5.264311 -11.244792,6.284501 -1.81901,1.02019 -4.795573,2.688764 -6.614583,3.707943 -1.819011,1.019178 -4.319323,2.42714 -5.55625,3.128804 -1.236928,0.701665 -3.915834,2.193993 -5.953126,3.316287 l -3.704166,2.040533 -0.02184,2.395693 c -0.01866,2.046652 -0.127952,2.614761 -0.750173,3.899292 -0.931655,1.923339 -2.674118,3.636501 -4.667969,4.589475 l -1.57148,0.751098 v 23.366976 c 0,12.85184 0.05059,23.366978 0.112421,23.366978 0.06183,0 1.16316,-1.671898 2.447396,-3.715338 z m 66.436646,-9.7675 c 2.79778,-2.68613 5.08687,-4.98209 5.08687,-5.10212 0,-0.25964 -3.76743,-6.64274 -5.584,-9.460876 -0.70352,-1.091406 -2.01514,-3.234531 -2.91471,-4.7625 -1.40088,-2.379454 -3.32304,-5.478326 -6.93389,-11.178646 -0.43786,-0.691224 -0.86535,-1.254034 -0.94998,-1.250689 -0.0846,0.0033 -1.76122,2.643819 -3.725751,5.867721 -3.732156,6.124669 -4.621038,7.5759 -9.477305,15.4731 -1.626962,2.64575 -2.958112,4.95278 -2.958112,5.12674 0,0.17396 2.113359,2.35377 4.696354,4.84402 2.582995,2.49025 6.241171,6.03749 8.129281,7.88274 l 3.432923,3.355 3.05573,-2.9553 c 1.68065,-1.62542 5.34482,-5.15305 8.14259,-7.83919 z"
     id="path4"
     inkscape:export-filename="path4.svg"
     inkscape:export-xdpi="96"
     inkscape:export-ydpi="96" /></svg>
