<?xml version="1.0" encoding="UTF-8" standalone="no"?>
<!-- Created with Inkscape (http://www.inkscape.org/) -->

<svg
   version="1.1"
   id="svg1"
   width="2811.9998"
   height="1205"
   viewBox="0 0 2811.9998 1205.0001"
   xml:space="preserve"
   xmlns="http://www.w3.org/2000/svg"
   xmlns:svg="http://www.w3.org/2000/svg"><defs
     id="defs1" /><g
     id="g1"
     transform="translate(5718.2205,1826.2145)"><path
       style="fill:#000000"
       d="m -5718.2207,-1223.7144 v -602.5 h 1406 1406 v 602.5 602.50004 h -1406 -1406 z m 508.6808,421.54414 c 4.4995,-0.5174 8.9995,-1.34108 10,-1.83039 1.0006,-0.48931 4.5088,-2.19621 7.7962,-3.7931 5.4545,-2.64965 21.523,-16.58279 21.523,-18.66278 0,-0.43867 1.0511,-2.47613 2.3359,-4.5277 4.2163,-6.73297 5.7729,-13.09954 6.2909,-25.73013 0.7213,-17.58493 -0.2618,-15.71121 11.3732,-21.67735 1.375,-0.70506 2.725,-1.53093 3,-1.83525 0.4808,-0.53203 14.424,-8.96081 16.5216,-9.9874 0.5619,-0.275 3.118,-1.9625 5.6802,-3.75 2.5622,-1.7875 4.9219,-3.25 5.2438,-3.25 0.3218,0 2.9407,-1.50324 5.8198,-3.34055 2.879,-1.8373 9.2846,-5.72517 14.2346,-8.63971 12.701,-7.47828 21.943,-13.38152 22.3333,-14.26512 0.1834,-0.41504 0.9709,-0.75462 1.75,-0.75462 0.7792,0 1.4167,-0.45 1.4167,-1 0,-0.55 0.4688,-1 1.0418,-1 0.573,0 1.9333,-0.83051 3.0228,-1.84559 1.0896,-1.01508 4.4458,-3.1351 7.4582,-4.71115 3.0125,-1.57605 5.4772,-3.22053 5.4772,-3.6544 0,-0.43387 0.4396,-0.78886 0.9768,-0.78886 0.5372,0 6.6227,-3.6 13.5232,-8 6.9005,-4.4 12.7751,-8 13.0546,-8 0.2795,0 3.5268,-2.025 7.2161,-4.5 3.6894,-2.475 7.2752,-4.5 7.9686,-4.5 0.6934,0 1.2607,-0.35134 1.2607,-0.78076 0,-0.42942 1.2375,-1.30622 2.75,-1.94844 1.5125,-0.64223 4.775,-2.37952 7.25,-3.86066 2.475,-1.48114 6.075,-3.57966 8,-4.66338 1.925,-1.08371 5.5853,-3.49507 8.134,-5.35857 2.5487,-1.8635 4.9066,-3.38819 5.2397,-3.38819 0.5834,0 7.6933,-4.44421 21.8231,-13.64114 3.6832,-2.39737 7.1707,-4.3589 7.75,-4.3589 0.5792,0 1.0532,-0.45 1.0532,-1 0,-0.55 0.4454,-1 0.9898,-1 0.5443,0 4.1489,-2.025 8.0102,-4.5 3.8612,-2.475 7.1863,-4.5 7.3891,-4.5 0.2027,0 2.9841,-1.575 6.1809,-3.5 3.1968,-1.925 6.1418,-3.5 6.5446,-3.5 0.4027,0 2.7956,1.575 5.3175,3.5 2.5218,1.925 5.2563,3.5 6.0765,3.5 0.8203,0 1.4914,0.45 1.4914,1 0,0.55 0.4945,1 1.0989,1 1.0131,0 5.1088,1.6424 10.6533,4.2722 1.2387,0.5875 7.8202,1.0503 14.6254,1.0283 11.1947,-0.036 12.9211,-0.2906 18.1247,-2.6729 7.5117,-3.439 17.4206,-10.5559 21.0843,-15.1435 5.5805,-6.9878 11.0242,-18.6958 11.7346,-25.238 0.1944,-1.7897 0.6516,-3.5522 1.0161,-3.9167 1.0922,-1.0922 0.7482,-17.9415 -0.4709,-23.065 -4.4152,-18.5555 -14.5695,-31.1169 -32.5525,-40.2692 l -4.186,-2.1304 0.04,-147.8235 0.04,-147.8234 6.4572,-3.3589 c 11.7352,-6.1045 22.4402,-17.4452 26.5625,-28.1398 10.2311,-26.543 3.0361,-55.8425 -17.8598,-72.7282 -1.8258,-1.4754 -11.8938,-6.6096 -15.8675,-8.0917 -3.2723,-1.2204 -10.6266,-2.2077 -16.5,-2.2149 -7.1122,-0.01 -16.9099,1.3608 -17.5883,2.4586 -0.2914,0.4714 -1.4032,0.857 -2.4707,0.857 -1.0676,0 -1.941,0.3402 -1.941,0.7559 0,0.4158 -1.4625,1.3994 -3.25,2.1859 -1.7875,0.7864 -4.9444,2.6524 -7.0153,4.1465 -3.538,2.5525 -7.7347,2.984 -7.7347,0.7951 0,-0.4858 -0.4541,-0.8834 -1.0091,-0.8834 -0.5551,0 -4.8457,-2.475 -9.5349,-5.5 -4.6891,-3.025 -8.6898,-5.5 -8.8903,-5.5 -0.4489,0 -10.6069,-6.6216 -12.2735,-8.0006 -0.6643,-0.5496 -1.4855,-0.9994 -1.8249,-0.9994 -0.3394,0 -3.7474,-2.025 -7.5734,-4.5 -3.8259,-2.475 -7.1855,-4.5 -7.4656,-4.5 -0.2801,0 -1.7286,-0.8399 -3.2188,-1.8666 -7.3079,-5.0346 -43.0661,-27.1334 -43.9048,-27.1334 -0.241,0 -1.9131,-1.125 -3.7158,-2.5 -1.8027,-1.375 -3.7977,-2.5 -4.4333,-2.5 -0.6356,0 -1.1556,-0.45 -1.1556,-1 0,-0.55 -0.675,-1 -1.5,-1 -0.825,0 -1.5,-0.45 -1.5,-1 0,-0.55 -0.449,-1 -0.9977,-1 -0.5487,0 -3.1362,-1.5282 -5.75,-3.3959 -2.6138,-1.8678 -7.0023,-4.6379 -9.7523,-6.1557 -2.75,-1.5178 -10.0595,-6.0646 -16.2434,-10.104 -6.1838,-4.0394 -11.6963,-7.3444 -12.25,-7.3444 -0.5536,0 -1.0066,-0.3975 -1.0066,-0.8833 0,-0.4859 -0.7875,-1.148 -1.75,-1.4715 -0.9625,-0.3235 -4.675,-2.4579 -8.25,-4.7432 -7.813,-4.9944 -28.1171,-17.3791 -33,-20.1287 -1.925,-1.0839 -5.075,-2.9381 -7,-4.1204 -6.5442,-4.0192 -9.4952,-5.688 -12.5796,-7.1138 -1.6938,-0.7829 -3.6614,-2.1245 -4.3725,-2.9813 -0.711,-0.8568 -1.8752,-1.5578 -2.587,-1.5578 -0.7118,0 -1.4442,-0.3541 -1.6276,-0.787 -0.1833,-0.4329 -2.4625,-2.022 -5.0649,-3.5314 -5.7398,-3.329 -7.1439,-5.5638 -5.7685,-9.1812 3.3493,-8.8095 -3.1253,-34.4744 -11.1036,-44.0137 -7.0183,-8.3917 -10.8321,-11.3798 -21.3963,-16.7641 -8.1322,-4.1448 -14.178,-5.7226 -21.9285,-5.7226 -5.5841,0 -13.5942,1.4861 -16.8079,3.1182 -0.9551,0.485 -2.1685,0.8818 -2.6965,0.8818 -2.4092,0 -14.0642,7.7869 -18.6866,12.4849 -11.3966,11.5829 -17.3805,25.4004 -17.3805,40.1334 0,4.94 0.4667,9.4485 1.0372,10.0189 1.5084,1.5084 -0.4677,6.0473 -2.9799,6.8447 -1.1315,0.3591 -2.0573,1.0726 -2.0573,1.5855 0,0.513 -0.4103,0.9326 -0.9117,0.9326 -0.5014,0 -6.0139,3.0947 -12.25,6.877 -6.2361,3.7823 -13.1757,7.9448 -15.4214,9.25 -5.4261,3.1535 -22.72,13.9675 -51.6812,32.3166 -39.3518,24.9323 -43.6079,27.5564 -44.6934,27.5564 -0.5733,0 -1.0423,0.3988 -1.0423,0.8861 0,0.4873 -1.4625,1.5897 -3.25,2.4497 -1.7875,0.86 -6.7212,3.7238 -10.9637,6.364 -7.1737,4.4642 -19.6718,12.1226 -27.4172,16.8002 -1.8214,1.1 -9.7262,6.05 -17.5662,11 -7.84,4.95 -14.7251,9.225 -15.3003,9.5 -0.5752,0.275 -3.0611,1.8638 -5.5242,3.5306 -2.4631,1.6668 -5.7159,3.6554 -7.2284,4.419 -1.5125,0.7636 -2.75,1.7624 -2.75,2.2194 0,0.4571 -0.48,0.831 -1.0667,0.831 -0.5867,0 -2.4992,1.0809 -4.25,2.4019 -1.7508,1.3211 -5.3304,3.5909 -7.9545,5.044 -4.7149,2.6109 -4.8094,2.6209 -8,0.8481 -1.7759,-0.9867 -3.4583,-2.0958 -3.7388,-2.4647 -0.8993,-1.1826 -10.7248,-5.8293 -12.3262,-5.8293 -0.8502,0 -1.7945,-0.4024 -2.0985,-0.8943 -1.187,-1.9206 -15.6399,-2.9495 -24.0653,-1.7133 -13.5899,1.9941 -26.8976,9.8876 -34.7425,20.6076 -7.8948,10.7883 -12.0653,22.7822 -12.1702,35 -0.067,7.7705 1.7387,19.0458 3.4426,21.5 0.3819,0.55 0.9668,2.1452 1.2997,3.5448 1.0089,4.2406 8.5885,15.1362 14.3934,20.6904 3.0093,2.8794 8.3527,6.6537 11.8742,8.3873 3.5215,1.7337 6.4508,3.6528 6.5095,4.2648 0.059,0.612 0.174,67.0377 0.2561,147.6127 0.1476,144.6914 0.1251,146.5224 -1.8251,148.3068 -1.086,0.9937 -3.5638,2.5426 -5.5061,3.4421 -4.8361,2.2394 -9.7139,5.9452 -14.5031,11.0186 -5.5762,5.907 -5.4427,5.7247 -9.3239,12.7325 -10.4145,18.804 -8.8704,43.591 3.8689,62.1069 6.4816,9.4206 17.7684,17.9741 27.7587,21.0363 6.7133,2.0578 27.5063,2.4184 29.4145,0.5101 0.6343,-0.6343 2.0758,-1.156 3.2033,-1.1594 1.1275,0 3.3389,-0.6784 4.9143,-1.5 1.5754,-0.8216 3.4879,-1.4939 4.25,-1.4939 0.7621,0 1.3857,-0.3739 1.3857,-0.831 0,-0.457 1.2375,-1.4695 2.75,-2.25 1.5125,-0.7804 3.8264,-2.4749 5.142,-3.7655 2.626,-2.5761 6.9478,-2.4565 9.672,0.2676 0.7963,0.7964 2.3452,1.7327 3.4419,2.0808 1.0968,0.3481 1.9941,1.0526 1.9941,1.5655 0,0.513 0.6375,0.9326 1.4167,0.9326 0.7791,0 1.5666,0.3375 1.75,0.75 0.3506,0.7889 8.4473,6.25 9.2662,6.25 0.2618,0 4.9818,2.9241 10.489,6.49787 5.5072,3.5738 13.2902,8.47174 17.2956,10.88432 21.677,13.05687 33.9133,20.57481 36.5906,22.48121 1.6504,1.17516 3.2903,2.13664 3.6443,2.13664 0.354,0 3.2096,1.64209 6.3456,3.64909 6.149,3.93515 33.4712,20.37415 39.202,23.58672 1.925,1.07911 11.15,7.05218 20.5,13.27349 9.35,6.2213 18.2375,11.87402 19.75,12.56159 1.5125,0.68758 2.75,1.62791 2.75,2.08963 0,0.46172 0.4416,0.83948 0.9813,0.83948 0.5397,0 6.2772,3.22102 12.75,7.15781 6.4728,3.93679 12.7777,7.64929 14.0109,8.25 1.2332,0.60071 2.2457,1.42969 2.25,1.84219 0,0.4125 0.4429,0.75 0.9747,0.75 0.5318,0 4.4693,2.19694 8.75,4.88208 4.2807,2.68514 10.2581,6.24053 13.2831,7.90087 l 5.5,3.01881 0.017,13.34912 c 0.018,14.18321 0.648,17.0486 6.338,28.82209 3.429,7.09502 15.0578,18.86657 21.6451,21.91079 2.75,1.27088 6.4846,3.0037 8.2991,3.85071 1.8145,0.84701 5.8645,1.86926 9,2.27166 3.1355,0.4024 5.9259,0.78723 6.2009,0.85517 0.275,0.0679 4.1814,-0.2998 8.6808,-0.8172 z m -64.6808,-76.5441 c 0,-0.825 0.4359,-1.5 0.9686,-1.5 0.5328,0 0.7096,0.675 0.393,1.5 -0.3166,0.825 -0.7524,1.5 -0.9686,1.5 -0.2161,0 -0.393,-0.675 -0.393,-1.5 z m -6,-3.44098 c 0,-1.73246 1.7601,-2.053 3.0091,-0.548 1.0284,1.2391 0.8796,1.48898 -0.8867,1.48898 -1.1673,0 -2.1224,-0.42344 -2.1224,-0.94098 z m 24,-22.05902 c 0,-0.55 -0.6053,-1 -1.345,-1 -0.7398,0 -2.1595,-0.9 -3.155,-2 -0.9955,-1.1 -2.2603,-2 -2.8106,-2 -0.5503,0 -2.4756,-1.125 -4.2783,-2.5 -1.8027,-1.375 -3.7577,-2.5 -4.3444,-2.5 -0.5867,0 -1.0667,-0.45 -1.0667,-1 0,-0.55 -0.5625,-1.00436 -1.25,-1.0097 -0.6875,-0.005 -3.1201,-1.46784 -5.4059,-3.25 -4.1846,-3.26275 -7.0748,-5.05977 -15.3441,-9.54038 -2.475,-1.34106 -5.9325,-3.50965 -7.6833,-4.8191 -1.7508,-1.30945 -3.4599,-2.38082 -3.798,-2.38082 -0.3381,0 -3.0769,-1.575 -6.0862,-3.5 -3.0092,-1.925 -5.6789,-3.5 -5.9325,-3.5 -0.2536,0 -2.9233,-1.575 -5.9325,-3.5 -3.0093,-1.925 -5.7358,-3.5 -6.0589,-3.5 -0.3231,0 -2.9262,-1.575 -5.7847,-3.5 -2.8585,-1.925 -5.5218,-3.5 -5.9184,-3.5 -0.3967,0 -5.9195,-3.375 -12.2729,-7.5 -6.3534,-4.125 -11.9974,-7.5 -12.5421,-7.5 -0.5448,0 -0.9905,-0.45 -0.9905,-1 0,-0.55 -0.6375,-1 -1.4167,-1 -0.7791,0 -1.5666,-0.3375 -1.75,-0.75 -0.4822,-1.08512 -11.6143,-8.25 -12.8179,-8.25 -0.5585,0 -1.0154,-0.39751 -1.0154,-0.88336 0,-0.48586 -0.7875,-1.15561 -1.75,-1.48835 -0.9625,-0.33274 -2.9477,-1.39773 -4.4117,-2.36663 -1.4639,-0.96891 -6.4139,-3.99007 -11,-6.71369 -4.586,-2.72362 -8.5633,-5.19862 -8.8383,-5.50001 -0.275,-0.3014 -1.625,-1.1878 -3,-1.9699 -1.375,-0.782 -8.1479,-4.832 -15.051,-9 -17.4765,-10.552 -17.7627,-10.7203 -24.199,-14.2254 -3.1625,-1.7222 -5.75,-3.5186 -5.75,-3.992 0,-0.4734 -0.4662,-0.8607 -1.0359,-0.8607 -1.862,0 -28.6754,-17.2682 -30.1988,-19.4485 -1.43,-2.0465 -0.7982,-9.2929 0.9847,-11.2947 1.7113,-1.9213 11.2659,-6.2568 13.7888,-6.2568 0.6997,0 3.0022,-0.8513 5.1167,-1.8917 2.1145,-1.0405 6.5445,-2.7079 9.8445,-3.7054 3.3,-0.9975 6.4275,-2.1712 6.95,-2.6082 0.5225,-0.4371 1.9584,-0.7947 3.191,-0.7947 1.2325,0 2.5191,-0.45 2.859,-1 0.3399,-0.55 1.7165,-1 3.059,-1 1.3426,0 2.441,-0.3741 2.441,-0.8315 0,-0.4573 1.9125,-1.3101 4.25,-1.8951 2.3375,-0.585 9.425,-2.9439 15.75,-5.242 6.325,-2.298 12.85,-4.6605 14.5,-5.2499 1.65,-0.5894 3.45,-1.3831 4,-1.7637 0.55,-0.3806 3.8221,-1.7237 7.2712,-2.9847 3.4492,-1.2611 6.5133,-2.6844 6.8091,-3.1629 0.2957,-0.4786 1.3351,-0.8702 2.3097,-0.8702 0.9746,0 2.3502,-1.2375 3.0569,-2.75 0.7067,-1.5125 1.6658,-3.425 2.1313,-4.25 0.4656,-0.825 1.8602,-3.525 3.0991,-6 1.239,-2.475 3.098,-5.7534 4.1311,-7.2854 1.0331,-1.5321 1.6254,-3.4446 1.3164,-4.25 -0.3091,-0.8055 -0.1262,-1.4646 0.4066,-1.4646 0.5327,0 0.9686,-0.4688 0.9686,-1.0418 0,-0.573 0.9,-2.0078 2,-3.1885 2.4668,-2.6478 2.5838,-4.6701 0.25,-4.3196 -0.9625,0.1446 -1.1875,0.07 -0.5,-0.1669 0.6875,-0.2364 1.2569,-0.9593 1.2653,-1.6065 0.011,-0.8133 0.268,-0.7784 0.8335,0.1129 0.8592,1.3543 5.9235,-6.084 11.3226,-16.6301 1.5037,-2.9373 3.1556,-5.8623 3.6708,-6.5 0.5152,-0.6377 3.7471,-6.5595 7.1819,-13.1595 3.4349,-6.6 6.5858,-12.45 7.002,-13 0.4163,-0.55 2.5184,-4.375 4.6714,-8.5 6.2923,-12.0557 9.4084,-17 10.7145,-17 1.1707,0 8.1122,6.9581 17.4923,17.5342 2.4224,2.7312 8.5163,9.2408 13.5419,14.4658 5.0257,5.225 12.4938,13.3141 16.5957,17.9757 8.7304,9.9215 7.2498,8.2678 17.9581,20.0585 8.8562,9.7514 18.7131,20.4081 23,24.8661 1.375,1.4298 4.0263,4.3997 5.8918,6.5997 1.8655,2.2 5.6621,6.4245 8.4369,9.3878 l 5.045,5.3877 4.5632,-4.9515 c 3.8464,-4.1739 19.2881,-21.1195 22.5631,-24.7608 11.6802,-12.9863 15.5,-17.662 15.5,-18.9733 0,-0.8744 0.3414,-1.4774 0.7587,-1.3399 1.0128,0.3338 13.5466,-12.6121 39.3732,-40.6676 18.4104,-19.9993 23.8287,-25.097 25.5328,-24.0221 0.9153,0.5774 3.4444,4.4 5.6201,8.4948 5.0038,9.4171 9.1433,16.887 12.7152,22.9449 2.435,4.1299 6.8317,11.9443 10.4087,18.5 0.6002,1.1 1.3163,2.225 1.5913,2.5 0.275,0.275 1.3993,2.3 2.4984,4.5 1.0992,2.2 4.8408,9.1153 8.3148,15.3674 3.474,6.252 6.8497,12.327 7.5016,13.5 0.6519,1.1729 1.684,2.8076 2.2937,3.6326 0.6097,0.825 2.8075,4.65 4.884,8.5 5.4004,10.0126 7.1301,12.1944 10.2464,12.9246 2.4301,0.5694 9.8536,3.1959 15.7611,5.5763 1.1,0.4433 7.625,2.9057 14.5,5.4721 16.1606,6.0327 19.7897,7.426 23.815,9.1428 1.8233,0.7776 8.7983,3.2317 15.5,5.4536 6.7017,2.2218 13.1975,4.4651 14.435,4.9851 4.9225,2.0686 6.9408,2.8591 11.4894,4.4997 4.0519,1.4615 4.8852,2.2343 5.7444,5.3277 1.5346,5.5248 1.268,9.09 -0.7338,9.8124 -0.9625,0.3473 -4.8015,2.5831 -8.5312,4.9686 -3.7296,2.3854 -7.2171,4.3371 -7.75,4.3371 -0.5328,0 -0.9688,0.3988 -0.9688,0.8861 0,0.75 -12.453,8.7955 -15.4999,10.0139 -0.55,0.22 -1.2251,0.6966 -1.5001,1.0593 -0.4923,0.6492 -5.1776,3.3698 -16,9.2904 -3.025,1.6549 -8.9626,5.2008 -13.1947,7.8797 -4.232,2.6788 -7.924,4.8706 -8.2044,4.8706 -0.2803,0 -5.0171,2.925 -10.5262,6.50004 -5.509,3.575 -10.4796,6.5 -11.0456,6.5 -0.566,0 -1.0291,0.45 -1.0291,1 0,0.55 -0.4413,1 -0.9806,1 -1.2752,0 -12.4178,7.08043 -12.8527,8.16711 -0.1834,0.45809 -0.7448,0.83289 -1.2477,0.83289 -0.5029,0 -3.1067,1.575 -5.7861,3.5 -2.6795,1.925 -5.3805,3.5 -6.0023,3.5 -0.6218,0 -1.1306,0.45 -1.1306,1 0,0.55 -0.675,1 -1.5,1 -0.825,0 -1.5,0.3433 -1.5,0.76288 0,0.78059 -0.7627,1.25714 -7.5813,4.73712 -2.1553,1.1 -4.0687,2.3375 -4.252,2.75 -0.1834,0.4125 -0.9158,0.75 -1.6276,0.75 -0.7118,0 -1.8933,0.72188 -2.6256,1.60418 -0.7322,0.8823 -2.2498,2.01209 -3.3724,2.51064 -1.1226,0.49856 -3.8411,2.03446 -6.0411,3.41312 -2.2,1.37866 -4.9,2.94793 -6,3.48726 -1.1,0.53934 -4.8577,2.78155 -8.3504,4.98271 -3.4927,2.20115 -6.5256,4.00209 -6.7398,4.00209 -0.2141,0 -3.5486,2.025 -7.4098,4.5 -3.8613,2.475 -7.2485,4.5 -7.5271,4.5 -0.5433,0 -31.3177,19.46349 -37.9779,24.01937 -5.3398,3.65266 -11.3226,6.98063 -12.5494,6.98063 -0.5464,0 -4.242,-2.475 -8.2124,-5.5 -3.9705,-3.025 -8.0097,-5.5 -8.9761,-5.5 -0.9664,0 -1.7571,-0.45 -1.7571,-1 0,-0.55 -1.05,-1 -2.3333,-1 -1.2834,0 -2.6464,-0.31302 -3.029,-0.69561 -1.1177,-1.11769 -3.5341,-1.35589 -14.1384,-1.39374 -9.2554,-0.033 -10.6384,0.23127 -18.5591,3.54695 -4.8694,2.03838 -10.4727,5.2859 -12.9993,7.53414 -4.2265,3.76076 -7.9409,5.16789 -7.9409,3.00826 z m 59,-6 c 0,-0.55 0.7016,-1 1.559,-1 0.8575,0 1.2809,0.45 0.941,1 -0.3399,0.55 -1.0415,1 -1.559,1 -0.5176,0 -0.941,-0.45 -0.941,-1 z m 154,-40.39301 c 0,-0.21615 0.6984,-0.661 1.5519,-0.98854 0.89,-0.3415 1.2914,-0.17385 0.941,0.39301 -0.5872,0.9502 -2.4929,1.40545 -2.4929,0.59553 z m 7,-3.666 c 0,-0.58246 0.45,-0.7809 1,-0.44099 0.55,0.33992 1,0.81648 1,1.05902 0,0.24254 -0.45,0.44098 -1,0.44098 -0.55,0 -1,-0.47655 -1,-1.05901 z m -327.5411,-7.00752 c -0.3626,-0.58659 -0.4191,-1.30665 -0.1256,-1.60013 0.7163,-0.71631 2.6667,0.54582 2.6667,1.72568 0,1.27797 -1.7264,1.19268 -2.5411,-0.12555 z m 293.5411,-0.43347 c 0,-0.825 0.45,-1.5 1,-1.5 0.55,0 1,0.675 1,1.5 0,0.825 -0.45,1.5 -1,1.5 -0.55,0 -1,-0.675 -1,-1.5 z m 13,-8.44098 c 0,-0.51754 0.45,-1.2191 1,-1.55902 0.55,-0.33991 1,0.0835 1,0.94099 0,0.85746 -0.45,1.55901 -1,1.55901 -0.55,0 -1,-0.42344 -1,-0.94098 z m -504,-38.05906 c 0,-0.55 0.4234,-1 0.941,-1 0.5175,0 1.2191,0.45 1.559,1 0.3399,0.55 -0.083,1 -0.941,1 -0.8574,0 -1.559,-0.45 -1.559,-1 z m 29.5829,0.1343 c -0.4307,-0.697 -0.5131,-1.5374 -0.183,-1.8675 0.8949,-0.8949 1.8707,0.4213 1.3873,1.8715 -0.3387,1.0162 -0.5742,1.0154 -1.2043,0 z m -4.5829,-1.1656 c 0,-0.5328 0.675,-0.9687 1.5,-0.9687 0.825,0 1.5,0.1769 1.5,0.3931 0,0.2161 -0.675,0.652 -1.5,0.9686 -0.825,0.3166 -1.5,0.1397 -1.5,-0.393 z m 8,-1.9687 c 0,-0.55 0.675,-1 1.5,-1 0.825,0 1.5,0.45 1.5,1 0,0.55 -0.675,1 -1.5,1 -0.825,0 -1.5,-0.45 -1.5,-1 z m 26.6384,-10.5 c 0.3166,-0.825 0.9774,-1.5 1.4686,-1.5 0.4911,0 0.893,0.675 0.893,1.5 0,0.825 -0.6609,1.5 -1.4686,1.5 -0.8946,0 -1.2437,-0.5862 -0.893,-1.5 z m 521.1741,0.8169 c 0.7219,-0.2888 1.5844,-0.2533 1.9167,0.079 0.3323,0.3323 -0.2584,0.5686 -1.3125,0.5252 -1.165,-0.048 -1.4019,-0.2849 -0.6042,-0.6042 z m 4.4912,-0.8368 c -0.9336,-0.9994 -0.6665,-1.3687 1.2552,-1.7361 1.5387,-0.2941 2.4411,0 2.4411,0.7877 0,1.8286 -2.3184,2.4234 -3.6963,0.9484 z m -488.8037,-5.4801 c -0.3399,-0.55 -0.1415,-1 0.441,-1 0.5824,0 1.059,0.45 1.059,1 0,0.55 -0.1984,1 -0.441,1 -0.2425,0 -0.7191,-0.45 -1.059,-1 z m -16.9573,-6.9309 c -0.6831,-1.1052 0.8944,-2.2986 1.8178,-1.3752 0.9508,0.9508 0.7736,2.3061 -0.3015,2.3061 -0.5175,0 -1.1999,-0.4189 -1.5163,-0.9309 z m 648.5362,-21.6524 c 0.048,-1.1649 0.285,-1.4019 0.6042,-0.6042 0.2889,0.7219 0.2534,1.5844 -0.079,1.9167 -0.3323,0.3323 -0.5687,-0.2583 -0.5253,-1.3125 z m -668.5296,-41.2007 c -0.8278,-0.8278 -0.6595,-5.2135 0.2007,-5.2324 0.4125,-0.01 2.0846,-2.7091 3.7158,-6 1.6312,-3.291 3.3187,-5.9836 3.75,-5.9836 0.4313,0 0.7842,-0.3854 0.7842,-0.8565 0,-0.471 2.25,-4.7666 5,-9.5457 2.75,-4.779 5,-8.9366 5,-9.2391 0,-0.3025 0.8442,-1.7444 1.876,-3.2043 1.6576,-2.3453 8.3613,-14.744 16.0334,-29.6544 1.415,-2.75 2.9143,-5.15 3.3317,-5.3333 0.4174,-0.1833 0.7598,-0.8583 0.7608,-1.5 0,-0.6417 2.2511,-4.9062 5,-9.4769 2.749,-4.5706 4.9981,-8.5511 4.9981,-8.8456 0,-0.2945 0.8363,-1.7299 1.8584,-3.1898 1.0221,-1.4599 3.3456,-5.3544 5.1633,-8.6544 5.4557,-9.9045 7.03,-12.7008 10.9783,-19.5 5.5,-9.4713 7.0581,-12.3082 13.4557,-24.5 3.1748,-6.05 6.1245,-11.45 6.5551,-12 0.8926,-1.1402 9.5154,-16.1914 12.4209,-21.6808 1.0625,-2.0073 2.7128,-4.6849 3.6673,-5.9504 l 1.7355,-2.3008 3.3328,3.594 c 20.9403,22.5821 23.0023,24.834 28.248,30.8487 2.1534,2.4692 6.3159,7.093 9.25,10.2753 2.9341,3.1823 5.3347,6.2441 5.3347,6.8041 0,0.5599 -1.2859,3.3562 -2.8576,6.214 -1.5717,2.8578 -4.6092,8.5709 -6.75,12.6959 -2.1408,4.125 -4.1217,7.725 -4.402,8 -0.2802,0.275 -1.4052,2.3 -2.5,4.5 -1.0947,2.2 -2.3279,4.15 -2.7404,4.3334 -0.4125,0.1833 -0.75,0.7507 -0.75,1.2609 0,0.5102 -2.3332,4.6352 -5.1849,9.1667 -2.8517,4.5315 -6.6092,10.939 -8.35,14.239 -1.7408,3.3 -5.0326,9.4889 -7.3151,13.7531 -2.2825,4.2642 -4.15,8.4267 -4.15,9.25 0,0.8233 -0.3375,1.498 -0.75,1.4993 -1.3336,0 -6.4959,10.9145 -5.8996,12.4684 0.3304,0.861 0.074,1.4034 -0.5998,1.2672 -0.6476,-0.1309 -1.6381,0.7745 -2.2011,2.012 -0.5631,1.2375 -1.3671,2.25 -1.7866,2.25 -0.4196,0 -0.777,0.7875 -0.7943,1.75 -0.047,2.6318 -3.531,4.6726 -13.9953,8.1986 -10.4271,3.5134 -22.2268,7.7022 -25.7233,9.1316 -11.0156,4.5033 -20.2081,7.9198 -21.3088,7.9198 -0.5708,0 -2.9006,0.9 -5.1773,2 -2.2768,1.1 -4.5099,2 -4.9626,2 -0.4527,0 -2.7307,0.8468 -5.0622,1.8817 -8.5899,3.8128 -18.0747,6.4494 -19.1898,5.3343 z m 564.4507,-1.3629 c -3.575,-1.119 -6.9275,-2.4437 -7.45,-2.9438 -0.5225,-0.5001 -1.7661,-0.9093 -2.7636,-0.9093 -0.9974,0 -2.5949,-0.3975 -3.55,-0.8833 -3.2785,-1.6678 -6.7546,-3.0087 -16.7364,-6.4563 -17.7176,-6.1194 -26.8147,-9.3743 -35.5,-12.7017 -4.675,-1.7911 -9.5125,-3.302 -10.75,-3.3576 -1.2375,-0.056 -2.25,-0.384 -2.25,-0.7297 0,-0.3458 -1.3774,-1.1993 -3.0609,-1.8966 -3.8856,-1.6094 -6.3151,-4.9314 -13.1462,-17.9748 -3.0245,-5.775 -6.7622,-12.75 -8.306,-15.5 -1.5438,-2.75 -3.2974,-5.9 -3.8969,-7 -0.5995,-1.1 -1.3258,-2.225 -1.6141,-2.5 -0.4701,-0.4484 -3.5186,-6.123 -7.7896,-14.5 -0.8413,-1.65 -1.7899,-3.225 -2.108,-3.5 -0.3181,-0.275 -2.3628,-4.1 -4.5439,-8.5 -2.1811,-4.4 -6.1186,-11.777 -8.75,-16.3935 -2.6314,-4.6164 -4.7844,-8.5628 -4.7844,-8.7698 0,-0.207 -1.125,-2.1585 -2.5,-4.3367 -1.375,-2.1781 -2.5,-4.5891 -2.5,-5.3576 0,-0.7686 -0.6852,-1.9661 -1.5226,-2.6611 -0.9576,-0.7948 -1.2795,-2.0295 -0.8674,-3.3278 0.545,-1.7172 12.2617,-15.4141 19.8699,-23.2282 1.8051,-1.8538 5.446,-6.0449 15.0201,-17.2896 3.3386,-3.9212 9.726,-10.0685 10.5,-10.1053 0.4372,-0.021 4.4828,6.8377 12.0742,20.4696 19.3923,34.8231 30.4679,54.1549 32.6566,57 0.423,0.55 3.1974,5.725 6.1652,11.5 2.9679,5.775 6.4554,12.1786 7.75,14.2302 1.2947,2.0515 2.354,4.0071 2.354,4.3456 0,0.3385 0.8357,1.81 1.857,3.2699 1.8583,2.6561 4.3125,6.9711 10.8941,19.1543 1.9313,3.575 4.763,8.75 6.2927,11.5 1.5296,2.75 3.871,7.025 5.203,9.5 1.332,2.475 4.7957,8.55 7.6972,13.5 12.6849,21.641 15.216,26.4322 14.5408,27.5247 -0.769,1.2441 -0.7657,1.2446 -8.4848,-1.1716 z m -592.3057,-166.103 c 0.1069,-76.5875 0.2194,-141.3546 0.25,-143.9268 0.05,-4.2241 0.3609,-4.8291 3.2093,-6.25 1.7345,-0.8653 3.7595,-1.5733 4.5,-1.5733 0.7405,0 1.3464,-0.4012 1.3464,-0.8915 0,-0.4904 1.125,-1.174 2.5,-1.5191 1.375,-0.3451 2.5,-1.0689 2.5,-1.6084 0,-0.5395 0.4994,-0.981 1.1097,-0.981 1.694,0 12.6874,-11.7976 15.5583,-16.6964 6.0233,-10.2781 9.2388,-26.3465 7.4563,-37.2612 -0.8614,-5.2745 -0.7909,-5.5513 2.098,-8.25 1.6441,-1.5358 3.6166,-2.7924 4.3835,-2.7924 0.7668,0 1.3942,-0.45 1.3942,-1 0,-0.55 0.675,-1 1.5,-1 0.825,0 1.5,-0.45 1.5,-1 0,-0.55 0.675,-1 1.5,-1 0.825,0 1.5,-0.3987 1.5,-0.886 0,-0.4873 1.4625,-1.6248 3.25,-2.5277 3.886,-1.9628 7.0633,-3.8726 7.75,-4.6584 0.7501,-0.8583 14.9824,-9.9279 15.5792,-9.9279 0.2843,0 2.979,-1.575 5.9883,-3.5 3.0092,-1.925 5.9126,-3.5 6.4519,-3.5 0.5393,0 0.9806,-0.45 0.9806,-1 0,-0.55 0.3782,-1 0.8404,-1 1.012,0 14.807,-8.2527 21.3398,-12.7663 2.5741,-1.7785 4.9478,-3.2337 5.2749,-3.2337 0.3271,0 6.5461,-3.925 13.8198,-8.7222 15.3651,-10.1335 18.5841,-12.1166 20.9751,-12.9217 0.9625,-0.3241 1.75,-0.8923 1.75,-1.2626 0,-0.3703 2.25,-1.9874 5,-3.5935 2.75,-1.606 5,-3.2756 5,-3.71 0,-0.4345 0.52,-0.79 1.1556,-0.79 0.6356,0 2.5481,-1.048 4.25,-2.329 1.7019,-1.281 4.5569,-2.9659 6.3444,-3.7441 1.7875,-0.7783 3.25,-1.7552 3.25,-2.171 0,-0.4157 0.675,-0.7559 1.5,-0.7559 0.825,0 1.5,-0.45 1.5,-1 0,-0.55 0.675,-1 1.5,-1 0.825,0 1.5043,-0.3375 1.5095,-0.75 0.01,-0.4125 2.0302,-1.6383 4.5,-2.7241 2.4698,-1.0857 4.4905,-2.3232 4.4905,-2.75 0,-0.4267 0.4298,-0.7759 0.955,-0.7759 0.8794,0 6.3436,-3.2094 33.321,-19.5709 5.3769,-3.261 10.5594,-6.3791 11.5168,-6.9291 4.1455,-2.3814 30.1339,-20.5723 30.7006,-21.4892 1.1009,-1.7814 3.5309,-1.0895 6.7547,1.9235 4.1865,3.9126 16.0451,9.5652 22.2519,10.6066 16.9735,2.8481 32.6798,-0.7151 45.3856,-10.2965 l 3.3857,-2.5531 3.6056,1.9044 c 1.9831,1.0474 9.0095,5.3839 15.6143,9.6367 14.0083,9.0198 27.9437,17.642 38.5088,23.8266 4.125,2.4147 10.5038,6.3142 14.1751,8.6657 3.6713,2.3514 6.9379,4.2753 7.2591,4.2753 0.3213,0 4.4206,2.475 9.1098,5.5 4.6891,3.025 8.7193,5.5 8.956,5.5 0.2367,0 4.315,2.5061 9.0629,5.569 4.7479,3.0629 8.8256,5.3759 9.0615,5.1399 0.236,-0.2359 2.3293,1.3081 4.6519,3.4311 2.3225,2.123 4.604,3.86 5.0699,3.86 0.4659,0 4.6441,2.475 9.2849,5.5 4.6407,3.025 8.6257,5.5 8.8554,5.5 0.2297,0 3.3145,2.025 6.855,4.5 3.5405,2.475 6.7086,4.5 7.0402,4.5 0.5943,0 17.5558,10.5014 22.8278,14.1334 1.4902,1.0267 2.9481,1.8666 3.2398,1.8666 0.2916,0 3.6894,2.025 7.5507,4.5 3.8612,2.475 7.2321,4.5 7.4908,4.5 0.2587,0 2.9325,1.575 5.9417,3.5 3.0093,1.925 5.943,3.5 6.5195,3.5 0.5764,0 1.048,0.3433 1.048,0.7629 0,0.4196 0.8248,1.2071 1.8329,1.75 1.0081,0.5429 6.5206,4.1352 12.25,7.9828 5.7294,3.8476 11.0921,7.2685 11.9171,7.6019 1.2417,0.5018 1.439,2.598 1.146,12.1742 -0.3599,11.7614 0.017,14.0324 4.1064,24.7282 3.8872,10.1673 12.1807,21.0308 18.9644,24.841 2.7134,1.524 3.8316,1.7185 4.7496,0.8262 0.9245,-0.8986 1.124,-0.7149 0.8672,0.7983 -0.2421,1.4264 0.6428,2.4325 3.2261,3.6683 1.9579,0.9365 4.1007,2.3546 4.7618,3.1512 1.103,1.3289 1.4148,70.221 1.2017,265.465 -0.018,16.8204 -0.2958,21.25 -1.3308,21.25 -0.7191,0 -2.1368,-1.9125 -3.1504,-4.25 -1.0137,-2.3375 -2.6115,-5.375 -3.5509,-6.75 -1.5527,-2.2729 -3.2469,-5.2564 -10.7892,-19 -1.3582,-2.475 -2.8027,-4.95 -3.21,-5.5 -0.4073,-0.55 -2.6602,-4.5862 -5.0065,-8.9694 -4.9777,-9.2989 -5.6924,-10.5787 -15.2737,-27.3514 -3.9836,-6.9735 -7.8744,-13.9167 -8.6463,-15.4292 -0.7718,-1.5125 -1.7285,-2.75 -2.126,-2.75 -0.3974,0 -1.0049,-1.125 -1.35,-2.5 -0.3452,-1.375 -1.0689,-2.5 -1.6085,-2.5 -0.5395,0 -0.9809,-0.8449 -0.9809,-1.8775 0,-1.0327 -0.675,-2.4378 -1.5,-3.1225 -0.825,-0.6846 -1.5,-1.7799 -1.5,-2.4338 0,-0.654 -0.7875,-2.0756 -1.75,-3.1591 -0.9625,-1.0835 -3.0264,-4.4309 -4.5865,-7.4386 -9.9059,-19.0979 -16.018,-30.5348 -16.5501,-30.9685 -0.3373,-0.275 -1.5066,-2.3 -2.5983,-4.5 -1.0916,-2.2 -3.3666,-6.25 -5.0555,-9 -1.6889,-2.75 -4.3957,-7.7 -6.0151,-11 -1.6195,-3.3 -3.1962,-6.225 -3.5038,-6.5 -0.3076,-0.275 -1.7023,-2.525 -3.0993,-5 -3.9933,-7.0748 -10.3396,-18.0759 -13.2681,-23 -1.472,-2.475 -3.2019,-5.7375 -3.8441,-7.25 -0.6422,-1.5125 -1.519,-2.75 -1.9484,-2.75 -0.4295,0 -0.7808,-0.6199 -0.7808,-1.3775 0,-0.7577 -0.675,-1.9378 -1.5,-2.6225 -0.825,-0.6846 -1.5,-2.1054 -1.5,-3.1572 0,-1.5488 -0.5703,-1.2628 -3,1.5045 -2.9728,3.3857 -3.9163,5.3371 -2.0115,4.1598 0.5709,-0.3528 0.7321,0.057 0.3816,0.9708 -0.3883,1.012 -1.2847,1.3666 -2.4885,0.9846 -1.8491,-0.5869 -2.3585,0.3189 -1.9251,3.4233 0.1223,0.876 -0.3812,1.1653 -1.3686,0.7863 -0.9962,-0.3822 -2.834,0.7101 -5.0724,3.015 -2.9229,3.0096 -3.3015,3.8691 -2.2629,5.1371 1.0644,1.2993 0.9181,1.4378 -0.9978,0.9441 -1.9424,-0.5005 -2.1676,-0.2688 -1.669,1.7175 0.6562,2.6144 -1.3698,4.4818 -2.6373,2.4309 -1.3911,-2.2509 -6.842,4.1895 -6.2347,7.3665 0.3705,1.9379 -0.1307,2.9439 -2.1141,4.2435 -1.4298,0.9368 -2.5997,2.3554 -2.5997,3.1523 0,1.0325 -0.9342,1.3587 -3.25,1.135 -2.3618,-0.2281 -3.25,0.096 -3.25,1.186 0,0.825 0.5511,1.3913 1.2247,1.2585 0.9452,-0.1865 0.9656,0.3271 0.09,2.25 -1.4734,3.2338 -3.2158,3.2277 -2.4036,-0.01 0.8942,-3.5627 -0.3919,-3.0693 -4.4106,1.6923 -1.925,2.2809 -6.425,7.1386 -10,10.7948 -3.575,3.6562 -8.5937,8.9799 -11.1528,11.8303 -2.559,2.8505 -5.1442,5.1826 -5.7448,5.1826 -0.6007,0 -2.0686,-2.1375 -3.2621,-4.75 -1.1935,-2.6125 -2.7251,-5.425 -3.4037,-6.25 -1.5665,-1.9047 -4.191,-6.6196 -11.6893,-21 -3.298,-6.325 -6.78,-12.85 -7.7377,-14.5 -0.9578,-1.65 -3.4448,-6.15 -5.5269,-10 -5.6224,-10.3968 -5.9383,-10.9564 -6.4923,-11.5 -0.2802,-0.275 -1.4052,-2.3 -2.5,-4.5 -1.0947,-2.2 -2.2154,-4.225 -2.4904,-4.5 -0.275,-0.275 -1.6733,-2.75 -3.1072,-5.5 -4.1735,-8.0036 -6.3564,-11.962 -6.8928,-12.4992 -0.275,-0.2754 -0.9911,-1.4008 -1.5913,-2.5008 -3.7077,-6.7953 -8.0116,-14.433 -10.6355,-18.8741 -1.6657,-2.8192 -4.8632,-8.5009 -7.1057,-12.6259 -2.2424,-4.125 -5.552,-10.2 -7.3547,-13.5 -1.8027,-3.3 -4.0582,-7.575 -5.0123,-9.5 -0.9541,-1.925 -2.4715,-4.625 -3.3719,-6 -0.9004,-1.375 -3.5757,-6.1 -5.9452,-10.5 -4.7389,-8.8 -6.2804,-11.589 -13.9755,-25.2857 -3.9188,-6.9752 -5.5249,-9.0301 -6.4544,-8.2586 -0.6806,0.5648 -1.4454,0.8191 -1.6994,0.5651 -0.5529,-0.5529 -7.8541,11.9362 -7.8541,13.4349 0,0.5744 -0.45,1.0443 -1,1.0443 -0.55,0 -1,0.6429 -1,1.4286 0,0.7857 -0.5625,2.0232 -1.25,2.75 -0.6875,0.7268 -1.9115,2.6714 -2.7199,4.3214 -0.8085,1.65 -2.8623,5.25 -4.5641,8 -1.7018,2.75 -3.7838,6.35 -4.6267,8 -2.0579,4.0285 -7.685,14.2872 -9.8734,18 -0.9725,1.65 -3.2236,5.7 -5.0023,9 -5.0219,9.3167 -8.4867,15.6374 -10.9636,20 -1.249,2.2 -3.499,6.25 -5,9 -1.501,2.75 -3.6165,6.575 -4.7012,8.5 -1.0846,1.925 -3.4695,6.2 -5.2997,9.5 -8.223,14.8268 -11.6418,20.9634 -14.485,26 -1.2419,2.2 -4.0655,7.375 -6.2748,11.5 -2.2092,4.125 -7.1044,12.9117 -10.878,19.5259 -3.7737,6.6142 -7.7511,13.7017 -8.8387,15.75 -1.0876,2.0483 -2.3251,3.7241 -2.75,3.7241 -0.4249,0 -0.7726,0.4222 -0.7726,0.9382 0,1.7936 -5.5076,9.9988 -6.7326,10.0302 -0.678,0.017 -3.895,-2.723 -7.1489,-6.0899 -3.9141,-4.05 -6.3463,-5.8557 -7.1873,-5.3359 -0.8696,0.5374 -1.0917,0.3179 -0.7031,-0.6947 0.3158,-0.8227 -0.6244,-2.846 -2.1164,-4.5549 -2.2215,-2.5444 -15.4502,-17.1234 -21.1117,-23.2666 -0.825,-0.8952 -4.4983,-4.9799 -8.1628,-9.077 -3.6646,-4.0972 -10.694,-11.6216 -15.6209,-16.7209 l -8.958,-9.2716 -1.6291,2.4864 c -0.8961,1.3675 -1.6292,2.7066 -1.6292,2.9758 0,0.2693 -2.2998,4.4476 -5.1107,9.2852 -5.6441,9.7138 -8.4,14.5968 -13.7118,24.2957 -1.9579,3.575 -3.8147,6.725 -4.1263,7 -0.5114,0.4515 -3.8367,6.4816 -7.9955,14.4993 -0.8556,1.6496 -1.7807,3.2249 -2.0557,3.5007 -0.5366,0.5382 -2.7211,4.4999 -6.8928,12.5 -1.4339,2.75 -2.9447,5.15 -3.3572,5.3334 -0.4125,0.1833 -0.75,0.7307 -0.75,1.2164 0,0.4857 -3.4063,6.7883 -7.5696,14.0058 -6.8084,11.8032 -10.6176,18.5307 -13.8404,24.4444 -0.5995,1.1 -1.315,2.225 -1.59,2.5 -0.275,0.275 -2.4912,4.325 -4.925,9 -2.4337,4.675 -4.6837,8.725 -5,9 -0.3162,0.275 -2.5806,4.4375 -5.032,9.25 -2.4513,4.8125 -4.8138,8.75 -5.25,8.75 -0.4361,0 -0.793,0.7521 -0.793,1.6713 0,0.9192 -0.6246,2.3817 -1.3881,3.25 -0.7635,0.8683 -2.6666,4.0537 -4.2292,7.0787 -1.5626,3.025 -4.313,7.7398 -6.1119,10.4772 -1.799,2.7375 -3.2708,5.5125 -3.2708,6.1667 0,0.6542 -0.3538,1.3395 -0.7862,1.5228 -0.4324,0.1833 -2.2657,3.2583 -4.0739,6.8333 -1.8082,3.575 -4.389,8.3 -5.735,10.5 -1.346,2.2 -2.7424,4.675 -3.103,5.5 -1.3231,3.0264 -5.3483,9 -6.0644,9.0001 -0.4056,0 -0.65,-62.6625 -0.5432,-139.25 z m 466.3057,-44.2501 c 0,-0.825 0.5668,-1.5 1.2595,-1.5 1.2302,0 4.2222,-3.8516 3.5298,-4.544 -0.3775,-0.3775 -7.7893,6.3851 -7.7893,7.107 0,0.2404 0.675,0.437 1.5,0.437 0.825,0 1.5,-0.675 1.5,-1.5 z m -120,169.5277 c 0,-1.3556 1.7771,-2.1973 2.4252,-1.1488 0.3098,0.5014 -0.1091,1.1696 -0.9309,1.485 -0.8219,0.3153 -1.4943,0.1641 -1.4943,-0.3362 z m -211.5,-10.0277 c 0.3399,-0.55 0.8165,-1 1.059,-1 0.2426,0 0.441,0.45 0.441,1 0,0.55 -0.4766,1 -1.059,1 -0.5825,0 -0.7809,-0.45 -0.441,-1 z m 170.5,-5.8947 c -3.575,-3.7375 -11.45,-12.0961 -17.5,-18.5747 -17.5783,-18.8236 -19.0023,-20.1965 -20.4477,-19.7147 -0.8863,0.2955 -1.1696,-0.068 -0.8012,-1.0277 0.347,-0.9043 -1.2043,-3.4014 -3.9676,-6.3865 -2.4955,-2.6959 -7.5177,-8.1031 -11.1604,-12.016 -3.6427,-3.9129 -8.594,-9.3129 -11.0029,-12 -2.4089,-2.6871 -6.9431,-7.5857 -10.0759,-10.8857 -6.5627,-6.9128 -7.3897,-8.5603 -5.5899,-11.1352 0.717,-1.0256 2.258,-3.5523 3.4246,-5.6148 1.1665,-2.0625 3.0056,-5.3112 4.0867,-7.2193 1.0812,-1.9082 3.6226,-6.5207 5.6477,-10.25 2.0251,-3.7294 6.4834,-11.7307 9.9074,-17.7807 3.424,-6.05 7.4075,-13.1375 8.8523,-15.75 6.822,-12.3356 7.9879,-14.2725 8.7787,-14.5833 0.4665,-0.1833 0.8564,-0.8583 0.8664,-1.5 0.01,-0.6417 2.312,-5.2167 5.1157,-10.1667 2.8036,-4.95 6.0956,-10.8 7.3155,-13 1.22,-2.2 3.1688,-5.575 4.3307,-7.5 1.162,-1.925 2.7282,-4.625 3.4806,-6 1.8963,-3.4653 7.6596,-13.7843 10.0534,-18 1.0931,-1.925 3.7551,-6.8136 5.9155,-10.8635 3.5877,-6.7254 7.5026,-13.6433 9.5792,-16.927 1.0202,-1.6133 3.8043,-0.6312 4.5636,1.6097 0.6493,1.9163 2.5689,4.9843 4.3167,6.8991 0.654,0.7165 1.7569,2.873 2.4509,4.7922 0.694,1.9193 1.6214,3.4895 2.0609,3.4895 0.4395,0 0.7991,0.675 0.7991,1.5 0,0.825 0.4012,1.5 0.8916,1.5 0.4904,0 1.201,1.233 1.5793,2.74 0.3782,1.507 0.9942,2.9695 1.3689,3.25 0.3747,0.2805 1.8015,2.9517 3.1707,5.936 1.3692,2.9843 2.9395,5.9225 3.4895,6.5293 0.55,0.6069 2.3456,3.7902 3.9902,7.0741 1.6447,3.2838 5.196,9.7956 7.8918,14.4706 2.6959,4.675 6.9232,12.325 9.3942,17 2.4709,4.675 5.9553,10.975 7.7431,14 1.7878,3.025 4.2628,7.525 5.5,10 1.2371,2.475 2.5264,4.725 2.865,5 0.3386,0.275 1.1062,1.4 1.7057,2.5 3.614,6.6315 6.5929,11.7907 10.259,17.7677 2.283,3.7221 4.151,7.4346 4.151,8.25 0,0.8153 0.348,1.4823 0.7732,1.4823 0.4253,0 2.9782,4.2966 5.6732,9.548 2.6949,5.2514 5.2719,9.778 5.7267,10.059 1.8381,1.136 0.557,3.5818 -4.7654,9.0976 -6.0674,6.2877 -17.2119,18.4158 -22.7737,24.7837 -2.7699,3.1712 -3.2444,4.2762 -2.3166,5.3942 0.963,1.1604 0.7752,1.2817 -1.0752,0.6944 -2.2887,-0.7264 -2.6785,-0.1023 -2.2945,3.6731 0.098,0.9625 -0.2861,1.75 -0.8535,1.75 -0.5673,0 -0.7441,-0.7488 -0.3929,-1.664 0.967,-2.5199 -1.1371,-0.9037 -7.0429,5.4098 -2.8371,3.033 -5.7521,6.0185 -6.4777,6.6344 -0.7257,0.6159 -2.3007,2.2015 -3.5,3.5235 -1.1994,1.322 -3.9949,4.2997 -6.2123,6.6171 -2.2174,2.3173 -5.1424,5.6561 -6.5,7.4195 -4.8526,6.3028 -23.6264,25.0588 -25.0339,25.0101 -0.789,-0.027 -4.3595,-3.1076 -7.9345,-6.8451 z m 53.5,3.8947 c 0.3399,-0.55 1.0415,-1 1.559,-1 0.5176,0 0.941,0.45 0.941,1 0,0.55 -0.7016,1 -1.559,1 -0.8575,0 -1.2809,-0.45 -0.941,-1 z m 4.5,-2.8185 c 0,-1.2085 1.8972,-2.6176 2.5907,-1.9241 0.2517,0.2517 -0.2282,1.0269 -1.0665,1.7226 -0.9504,0.7887 -1.5242,0.8646 -1.5242,0.2015 z m -27,-13.0745 c 0,-0.4911 0.675,-1.152 1.5,-1.4686 0.9137,-0.3506 1.5,0 1.5,0.893 0,0.8078 -0.675,1.4686 -1.5,1.4686 -0.825,0 -1.5,-0.4018 -1.5,-0.893 z m -276.2734,-2.8406 c -0.2263,-0.4215 -0.1154,-1.8914 0.2465,-3.2664 l 0.658,-2.5 0.5503,2.7739 c 0.5119,2.58 -0.5277,4.7185 -1.4548,2.9925 z m 414.7734,-6.2664 c 0.3399,-0.55 0.8165,-1 1.059,-1 0.2426,0 0.441,0.45 0.441,1 0,0.55 -0.4766,1 -1.059,1 -0.5825,0 -0.7809,-0.45 -0.441,-1 z m -439.5,-3.059 c 0,-1.1324 0.4303,-1.793 0.9563,-1.4679 0.526,0.325 0.7029,1.2516 0.393,2.059 -0.7932,2.0671 -1.3493,1.8235 -1.3493,-0.5911 z m 32,-1 c 0,-0.5824 0.45,-0.7809 1,-0.441 0.55,0.34 1,0.8165 1,1.0591 0,0.2425 -0.45,0.4409 -1,0.4409 -0.55,0 -1,-0.4765 -1,-1.059 z m 104.5,-27.941 c -0.3399,-0.55 -0.1415,-1 0.441,-1 0.5824,0 1.059,0.45 1.059,1 0,0.55 -0.1984,1 -0.441,1 -0.2425,0 -0.7191,-0.45 -1.059,-1 z m 203.5789,-1.5833 c 0.048,-1.1649 0.285,-1.4019 0.6042,-0.6042 0.2889,0.7219 0.2534,1.5844 -0.079,1.9167 -0.3323,0.3323 -0.5687,-0.2583 -0.5253,-1.3125 z m 164.7038,-3.4436 c -0.2776,-1.8914 -0.039,-2.8941 0.6365,-2.6729 1.3553,0.444 2.0567,5.6998 0.7607,5.6998 -0.5241,0 -1.1528,-1.3621 -1.3972,-3.0269 z m -2.7827,-5.0321 c 0,-0.5824 0.45,-0.7809 1,-0.441 0.55,0.34 1,0.8165 1,1.0591 0,0.2425 -0.45,0.4409 -1,0.4409 -0.55,0 -1,-0.4765 -1,-1.059 z m -458,-38 c 0,-0.5824 0.45,-0.7809 1,-0.441 0.55,0.34 1,0.8165 1,1.0591 0,0.2425 -0.45,0.4409 -1,0.4409 -0.55,0 -1,-0.4765 -1,-1.059 z m 4.5,-3.941 c 0.3399,-0.55 0.8165,-1 1.059,-1 0.2426,0 0.441,0.45 0.441,1 0,0.55 -0.4766,1 -1.059,1 -0.5825,0 -0.7809,-0.45 -0.441,-1 z m 93.0101,-23.0163 c 0.3454,-0.5589 1.047,-0.7574 1.559,-0.441 1.387,0.8573 1.1284,1.4573 -0.6281,1.4573 -0.8575,0 -1.2764,-0.4573 -0.9309,-1.0163 z m 274.4899,-2.9837 c 0,-0.55 0.4766,-1 1.059,-1 0.5825,0 0.7809,0.45 0.441,1 -0.3399,0.55 -0.8165,1 -1.059,1 -0.2426,0 -0.441,-0.45 -0.441,-1 z m 2.0789,-3.5833 c 0.048,-1.1649 0.285,-1.4019 0.6042,-0.6042 0.2889,0.7219 0.2534,1.5844 -0.079,1.9167 -0.3323,0.3323 -0.5687,-0.2583 -0.5253,-1.3125 z m 1.1086,-5.4792 c 0.2406,-0.7218 1.0281,-1.5093 1.75,-1.75 0.75,-0.25 1.125,0.125 0.875,0.875 -0.2406,0.7219 -1.0281,1.5094 -1.75,1.75 -0.75,0.25 -1.125,-0.125 -0.875,-0.875 z m 18.8125,-13.4061 c 0,-0.8946 0.5863,-1.2436 1.5,-0.893 0.825,0.3166 1.5,0.9775 1.5,1.4686 0,0.4912 -0.675,0.893 -1.5,0.893 -0.825,0 -1.5,-0.6608 -1.5,-1.4686 z m 1.5528,-7.4459 c -0.322,-0.521 -0.1592,-1.2107 0.3618,-1.5327 0.521,-0.3219 1.2106,-0.1591 1.5326,0.3618 0.322,0.521 0.1592,1.2107 -0.3618,1.5327 -0.521,0.3219 -1.2106,0.1591 -1.5326,-0.3618 z m 9.4472,-12.0855 c 0,-0.55 0.45,-1 1,-1 0.55,0 1,0.45 1,1 0,0.55 -0.45,1 -1,1 -0.55,0 -1,-0.45 -1,-1 z m 3.5,-4 c 0.3399,-0.55 0.8165,-1 1.059,-1 0.2426,0 0.441,0.45 0.441,1 0,0.55 -0.4766,1 -1.059,1 -0.5825,0 -0.7809,-0.45 -0.441,-1 z m -155,-53 c -0.3399,-0.55 0.1101,-1 1,-1 0.8899,0 1.3399,0.45 1,1 -0.3399,0.55 -0.7899,1 -1,1 -0.2101,0 -0.6601,-0.45 -1,-1 z m 20.5,-8.059 c 0,-0.5824 0.45,-0.7809 1,-0.441 0.55,0.34 1,0.8165 1,1.0591 0,0.2425 -0.45,0.4409 -1,0.4409 -0.55,0 -1,-0.4765 -1,-1.059 z m 268.5829,-28.8067 c -0.4307,-0.697 -0.5131,-1.5374 -0.183,-1.8675 0.8949,-0.8949 1.8707,0.4213 1.3873,1.8715 -0.3387,1.0162 -0.5742,1.0154 -1.2043,0 z m -9.0829,-1.1343 c -0.3399,-0.55 0.1101,-1 1,-1 0.8899,0 1.3399,0.45 1,1 -0.3399,0.55 -0.7899,1 -1,1 -0.2101,0 -0.6601,-0.45 -1,-1 z m -7.5,-8 c 0,-0.55 0.45,-1 1,-1 0.55,0 1,0.45 1,1 0,0.55 -0.45,1 -1,1 -0.55,0 -1,-0.45 -1,-1 z m -562.3638,-60.4942 c 0.3153,-0.8219 0.9836,-1.2408 1.4849,-0.9309 1.0486,0.648 0.2068,2.4251 -1.1487,2.4251 -0.5003,0 -0.6516,-0.6724 -0.3362,-1.4942 z m 113.8638,-71.5058 c 0.3399,-0.55 1.0415,-1 1.559,-1 0.5176,0 0.941,0.45 0.941,1 0,0.55 -0.7016,1 -1.559,1 -0.8575,0 -1.2809,-0.45 -0.941,-1 z m 307,-2 c 0.3399,-0.55 0.8165,-1 1.059,-1 0.2426,0 0.441,0.45 0.441,1 0,0.55 -0.4766,1 -1.059,1 -0.5825,0 -0.7809,-0.45 -0.441,-1 z m -298.5,-3.393 c 0,-0.2161 0.6984,-0.661 1.5519,-0.9885 0.89,-0.3415 1.2914,-0.1739 0.941,0.393 -0.5872,0.9502 -2.4929,1.4054 -2.4929,0.5955 z m -24.4034,-14.4507 c -0.3461,-0.5599 -0.1419,-1.3192 0.4536,-1.6873 1.5375,-0.9502 2.5295,0.3514 1.246,1.6348 -0.7182,0.7182 -1.2775,0.7355 -1.6996,0.053 z m 184.4034,-39.6563 c 0,-0.9166 0.4837,-1.5054 1.075,-1.3083 0.5912,0.1971 1.075,0.7858 1.075,1.3083 0,0.5225 -0.4838,1.1113 -1.075,1.3084 -0.5913,0.1971 -1.075,-0.3917 -1.075,-1.3084 z m -60.5,-73.5 c -0.3399,-0.55 -0.1415,-1 0.441,-1 0.5824,0 1.059,0.45 1.059,1 0,0.55 -0.1984,1 -0.441,1 -0.2425,0 -0.7191,-0.45 -1.059,-1 z m 83,-18 c -0.3399,-0.55 0.1101,-1 1,-1 0.8899,0 1.3399,0.45 1,1 -0.3399,0.55 -0.7899,1 -1,1 -0.2101,0 -0.6601,-0.45 -1,-1 z m 497.1239,701.1806 c 1.5438,-3.9391 3.1154,-9.2085 3.9212,-13.1477 0.3901,-1.907 1.0646,-4.157 1.499,-5 0.4343,-0.8431 1.564,-4.2329 2.5103,-7.5329 0.9464,-3.3 2.1538,-6.5503 2.6832,-7.2229 0.734,-0.9327 6.5764,-1.0831 24.6124,-0.6335 25.5888,0.6379 25.6113,0.6432 26.7235,6.3564 0.2677,1.375 1.3151,5.425 2.3276,9 1.0125,3.575 2.65,9.425 3.6389,13 0.989,3.575 2.1032,6.8587 2.4761,7.2971 0.373,0.4385 7.2721,0.8885 15.3314,1 16.176,0.224 15.5529,0.5302 13.2533,-6.5121 -3.2378,-9.9156 -13.1352,-42.2223 -15.0988,-49.285 -0.9175,-3.3 -2.0808,-6.7813 -2.5851,-7.7364 -0.5043,-0.955 -0.9169,-2.4018 -0.9169,-3.215 0,-0.8133 -0.6161,-3.4069 -1.369,-5.7636 -0.753,-2.3567 -2.139,-6.985 -3.08,-10.285 -0.9411,-3.3 -2.0691,-7.125 -2.5068,-8.5 -3.6168,-11.3626 -6.0104,-19.1915 -7.032,-23 -0.6639,-2.475 -1.5825,-5.2321 -2.0413,-6.1268 -0.4587,-0.8948 -1.1485,-3.3698 -1.5329,-5.5 -0.3843,-2.1303 -1.0336,-4.3232 -1.4428,-4.8732 -0.4091,-0.55 -0.984,-2.35 -1.2775,-4 -0.2935,-1.65 -1.5667,-6.7125 -2.8293,-11.25 l -2.2958,-8.25 -18.2963,-0.15 c -10.063,-0.082 -18.8167,-0.195 -19.4528,-0.25 -1.2746,-0.1102 -7.2615,18.1783 -15.3532,46.9 -0.9297,3.3 -2.0632,6.9 -2.5189,8 -1.1424,2.7575 -3.3248,10.1742 -6.4737,22 -1.4645,5.5 -3.0372,10.9 -3.4948,12 -1.9013,4.5694 -2.6661,10.0869 -1.6267,11.7346 0.5792,0.9182 0.707,2.0156 0.2841,2.4385 -0.423,0.423 -1.1877,0.1071 -1.6994,-0.702 -0.7348,-1.162 -0.9335,-0.9984 -0.9456,0.7789 -0.01,1.2375 -0.4653,2.25 -1.0153,2.25 -0.55,0 -1,1.5485 -1,3.441 0,1.8926 -0.4108,3.6949 -0.913,4.0053 -0.5021,0.3103 -1.228,2.4744 -1.6131,4.809 -0.385,2.3346 -1.0257,4.6947 -1.4237,5.2447 -0.3981,0.55 -2.0027,5.5 -3.566,11 -1.5632,5.5 -3.1608,10.45 -3.5501,11 -0.3894,0.55 -1.0195,2.8892 -1.4002,5.1983 l -0.6922,4.1982 6.1645,-0.029 c 3.3906,-0.016 6.3116,0.1196 6.4913,0.3018 0.1797,0.1822 3.8703,0.1875 8.2013,0.012 7.4855,-0.3037 7.9263,-0.4518 8.9251,-3 z m 1.3761,-27.1806 c 0,-0.55 0.4766,-1 1.059,-1 0.5825,0 0.7809,0.45 0.441,1 -0.3399,0.55 -0.8165,1 -1.059,1 -0.2426,0 -0.441,-0.45 -0.441,-1 z m -16,-16.4409 c 0,-0.8575 0.45,-1.5591 1,-1.5591 0.55,0 1,0.4235 1,0.941 0,0.5176 -0.45,1.2191 -1,1.559 -0.55,0.34 -1,-0.083 -1,-0.9409 z m 31.8454,-16.2451 c -0.6501,-0.7835 -0.6119,-1.8818 0.1127,-3.2357 0.6033,-1.1273 1.4876,-3.9686 1.9651,-6.314 0.9086,-4.4633 4.456,-18.013 8.0542,-30.7643 1.164,-4.125 3.0394,-11.2352 4.1676,-15.8006 2.3248,-9.4081 3.6854,-10.0365 5.6782,-2.6224 1.3392,4.9827 1.7861,6.5331 4.7345,16.423 0.9018,3.025 1.8542,6.625 2.1163,8 0.2622,1.375 0.8957,3.4 1.4079,4.5 0.5121,1.1 1.4002,4.25 1.9735,7 0.5733,2.75 1.451,6.575 1.9503,8.5 2.1701,8.3649 3.2299,14.0978 2.7036,14.6241 -0.3119,0.3119 -8.0624,0.6366 -17.2234,0.7215 -11.7935,0.1094 -16.9437,-0.1918 -17.6405,-1.0316 z m 8.3125,-53.314 c 0,-1.375 0.227,-1.9375 0.5044,-1.25 0.2774,0.6875 0.2774,1.8125 0,2.5 -0.2774,0.6875 -0.5044,0.125 -0.5044,-1.25 z m 124.8752,94.6365 c 0.093,-59.6068 -0.1189,-128.3693 -0.4015,-130.1365 -0.299,-1.87 -1.2033,-2.018 -13.9157,-2.2778 l -13.5959,-0.2778 -0.085,76.9948 -0.085,76.9949 11.2754,0.283 c 6.2014,0.1556 12.5128,0.1194 14.0253,-0.081 l 2.75,-0.3635 z m 200.6437,18.1754 c 6.6025,-3.1035 11.8031,-9.5971 13.181,-16.4578 1.3977,-6.9597 1.466,-33.3404 0.1106,-42.7163 -1.3655,-9.4457 -7.2049,-17.1523 -14.9684,-19.7544 -1.925,-0.6453 -3.725,-1.4479 -4,-1.7836 -0.6919,-0.8447 -6.2065,-2.5817 -14.5,-4.5672 -10.6919,-2.5598 -14.7849,-3.6569 -17.2971,-4.6367 -1.2633,-0.4927 -3.5358,-0.8959 -5.05,-0.8959 -1.5141,0 -3.1804,-0.3836 -3.7029,-0.8525 -0.5225,-0.4689 -2.975,-1.401 -5.45,-2.0712 -8.3793,-2.2691 -9.0126,-3.3648 -9.2475,-15.999 -0.2949,-15.8629 -1.0395,-15.3417 22.2247,-15.558 17.5725,-0.1634 18.1822,-0.1009 20.5661,2.1084 2.0145,1.867 2.4852,3.3205 2.6151,8.0746 0.087,3.1888 0.1021,6.5308 0.033,7.4267 -0.1456,1.8944 6.1065,2.7027 19.3083,2.4962 9.4319,-0.1476 8.9116,0.9745 7.4071,-15.9743 -1.379,-15.5333 -5.0208,-22.8516 -13.2059,-26.5369 -6.2537,-2.8158 -9.7265,-3.1107 -39.2012,-3.3287 -20.2567,-0.1499 -27.999,0.1326 -31,1.1312 -12.0364,4.0053 -17.4745,14.1618 -17.66,32.9825 -0.1137,11.539 1.2149,30.101 2.1544,30.101 0.4156,0 1.0104,1.2742 1.3219,2.8314 0.7234,3.617 8.9519,12.1686 11.7087,12.1686 0.5512,0 1.7835,0.4176 2.7386,0.9279 0.955,0.5103 4.2114,1.6526 7.2364,2.5386 3.025,0.8859 6.4,1.981 7.5,2.4336 3.8365,1.5784 9.1544,3.0999 10.8346,3.0999 0.9309,0 2.4739,0.3971 3.429,0.8824 0.955,0.4853 3.7614,1.403 6.2364,2.0393 2.475,0.6363 7.2757,1.8805 10.6681,2.7648 3.3925,0.8843 7.4425,2.6231 9,3.8639 2.7718,2.2081 2.839,2.5 3.1657,13.7619 0.4912,16.9311 2.3336,15.6877 -23.2465,15.6877 -17.305,0 -21.5673,-0.271 -22.5314,-1.4326 -0.6539,-0.7879 -1.3944,-5.1226 -1.6454,-9.6326 -0.251,-4.51 -0.6834,-8.5673 -0.9609,-9.0162 -0.2774,-0.449 -6.4546,-0.7268 -13.727,-0.6174 l -13.2226,0.1988 0.073,14.832 c 0.044,8.9201 0.4811,15.0982 1.0961,15.5 0.5623,0.3674 1.3103,1.8459 1.6622,3.2855 0.7979,3.2645 5.9054,8.3845 11.1682,11.1956 3.6795,1.9653 5.9633,2.1786 28.5,2.6617 28.2536,0.6057 40.4122,-0.2182 46.6768,-3.1629 z m -60.9268,-70.4741 c 0.6875,-0.2774 1.8125,-0.2774 2.5,0 0.6875,0.2774 0.125,0.5043 -1.25,0.5043 -1.375,0 -1.9375,-0.2269 -1.25,-0.5043 z m -22.75,-10.9211 c 0,-0.8708 0.5344,-1.4052 1.1875,-1.1875 1.8542,0.6181 2.1618,2.7708 0.3958,2.7708 -0.8708,0 -1.5833,-0.7125 -1.5833,-1.5833 z m -3,-7.4757 c 0,-0.5824 0.45,-0.7809 1,-0.441 0.55,0.34 1,0.8165 1,1.0591 0,0.2425 -0.45,0.4409 -1,0.4409 -0.55,0 -1,-0.4765 -1,-1.059 z m 29.5,-2.941 c -0.3399,-0.55 -0.1415,-1 0.441,-1 0.5824,0 1.059,0.45 1.059,1 0,0.55 -0.1984,1 -0.441,1 -0.2425,0 -0.7191,-0.45 -1.059,-1 z m -29.4211,-1.5833 c 0.048,-1.1649 0.285,-1.4019 0.6042,-0.6042 0.2889,0.7219 0.2534,1.5844 -0.079,1.9167 -0.3323,0.3323 -0.5687,-0.2583 -0.5253,-1.3125 z m 78.4312,-17.433 c 0.3454,-0.5589 1.047,-0.7574 1.559,-0.441 1.387,0.8573 1.1284,1.4573 -0.6281,1.4573 -0.8575,0 -1.2764,-0.4573 -0.9309,-1.0163 z m 10.4899,-9.0427 c 0,-1.1324 0.45,-1.7809 1,-1.441 0.55,0.34 1,1.2665 1,2.0591 0,0.7925 -0.45,1.4409 -1,1.4409 -0.55,0 -1,-0.9265 -1,-2.059 z m 0.5966,-3.7847 c -0.3461,-0.5599 -0.1419,-1.3192 0.4536,-1.6873 1.5375,-0.9502 2.5295,0.3514 1.246,1.6348 -0.7182,0.7182 -1.2775,0.7355 -1.6996,0.053 z m 1.4823,-9.7396 c 0.048,-1.1649 0.285,-1.4019 0.6042,-0.6042 0.2889,0.7219 0.2534,1.5844 -0.079,1.9167 -0.3323,0.3323 -0.5687,-0.2583 -0.5253,-1.3125 z m 236.6704,136.1671 c 10.9201,-1.1171 18.7682,-6.8684 22.5353,-16.5143 1.5561,-3.9845 1.7481,-7.386 1.5,-26.5695 -0.2831,-21.8847 -0.2988,-22.0241 -2.9936,-26.6081 -2.488,-4.2322 -4.9633,-6.5094 -10.291,-9.4678 -1.1,-0.6108 -3.575,-2.0085 -5.5,-3.106 -1.925,-1.0974 -4.625,-2.2584 -6,-2.5798 -12.2628,-2.8666 -40.1079,-10.8908 -45.1189,-13.002 -4.2739,-1.8006 -4.7588,-3.5106 -4.9833,-17.5749 -0.2108,-13.2095 -1.12,-12.6791 21.2723,-12.4107 14.0249,0.1681 18.6428,0.552 20.3866,1.6945 2.2363,1.4653 3.1112,4.4229 3.8621,13.0548 0.3434,3.9487 0.4095,4.0089 5.1441,4.6928 2.6379,0.3811 8.6529,0.5882 13.3667,0.4604 l 8.5704,-0.2324 -0.3326,-12.942 c -0.2947,-11.4695 -0.624,-13.5372 -2.8943,-18.1736 -2.8809,-5.8836 -5.9234,-8.9407 -11.7731,-11.8297 -3.6792,-1.817 -6.5168,-2.0007 -35.3848,-2.2906 -21.274,-0.2137 -31.728,0.028 -32.45,0.75 -0.5859,0.5858 -1.857,1.0651 -2.8248,1.0651 -2.4398,0 -9.6476,7.2943 -11.435,11.5723 -2.4114,5.7713 -3.5579,13.2259 -3.9107,25.4277 -0.6869,23.7619 3.5092,35.2639 14.729,40.3732 4.8282,2.1987 12.5701,4.6268 14.7522,4.6268 1.0483,0 2.1534,0.4003 2.4558,0.8896 0.3024,0.4892 2.0164,1.1166 3.809,1.3943 1.7926,0.2777 6.8379,1.4362 11.2119,2.5746 4.3739,1.1384 8.1455,1.8768 8.3813,1.641 0.2359,-0.2359 1.3698,0.2303 2.52,1.0358 1.1501,0.8056 3.0894,1.4647 4.3096,1.4647 1.2201,0 2.4966,0.45 2.8365,1 0.3399,0.55 1.604,1.0101 2.809,1.0223 3.6963,0.037 6.831,3.2745 7.6829,7.9337 0.936,5.1185 -0.2762,21.7283 -1.6888,23.1409 -0.8844,0.8845 -23.4835,1.5178 -38.0179,1.0654 -6.5143,-0.2027 -7.5379,-1.7673 -7.8616,-12.0166 -0.1277,-4.0449 -0.6128,-7.711 -1.0779,-8.1469 -1.0472,-0.9815 -22.3061,-2.0834 -25.2652,-1.3096 -2.0569,0.5379 -2.1498,1.0755 -2.0056,11.6166 0.265,19.3816 4.3566,28.7134 14.6574,33.4292 4.3929,2.0111 7.7015,2.6164 17.107,3.1292 13.9216,0.7591 39.1942,0.6112 47.91,-0.2804 z m -49.2493,-17.5838 c 0.3399,-0.55 0.8165,-1 1.059,-1 0.2426,0 0.441,0.45 0.441,1 0,0.55 -0.4766,1 -1.059,1 -0.5825,0 -0.7809,-0.45 -0.441,-1 z m -89.7795,6 c 0.955,-44.1136 0.7359,-41.7861 4.6841,-49.7764 1.9775,-4.002 3.5954,-7.4567 3.5954,-7.677 0,-0.2203 1.6167,-3.9209 3.5927,-8.2235 1.976,-4.3027 4.1726,-9.1731 4.8814,-10.8231 0.7087,-1.65 2.017,-4.643 2.9073,-6.6511 0.8902,-2.0081 1.6186,-4.1456 1.6186,-4.75 0,-0.6044 0.45,-1.0989 1,-1.0989 0.55,0 1,-0.5907 1,-1.3128 0,-0.7221 1.125,-3.6449 2.5,-6.4951 1.375,-2.8502 2.5,-5.6406 2.5,-6.2007 0,-0.5602 0.4176,-1.7999 0.9281,-2.7549 1.828,-3.4205 15.3189,-31.781 16.1428,-33.9356 0.8394,-2.1952 0.815,-2.1996 -13.6891,-2.5 -16.8409,-0.3487 -15.7359,-0.9012 -20.4379,10.2188 -1.7396,4.1142 -3.9442,9.2803 -4.899,11.4803 -0.9548,2.2 -2.7494,6.7 -3.988,10 -2.5229,6.7222 -2.8661,7.5559 -6.5862,16 -1.4539,3.3 -3.3232,7.575 -4.1541,9.5 -3.0682,7.1089 -4.8419,10.2774 -5.8147,10.3873 -0.5489,0.062 -1.7619,-1.4623 -2.6956,-3.3873 -3.4352,-7.0824 -7.8063,-16.8923 -7.8063,-17.5193 0,-0.355 -1.3843,-3.8709 -3.0762,-7.813 -5.0936,-11.868 -5.5735,-13.0287 -6.891,-16.6677 -2.9204,-8.0656 -8.1005,-19.1412 -9.7351,-20.8146 -0.9619,-0.9848 -4.688,-1.2516 -14.8472,-1.0635 -7.4597,0.1382 -13.7887,0.6164 -14.0645,1.0627 -0.2758,0.4462 0.2637,2.2748 1.199,4.0634 3.0625,5.8565 3.415,6.7069 3.415,8.2385 0,0.8324 0.45,1.5135 1,1.5135 0.55,0 1,0.4945 1,1.0989 0,0.6044 0.6386,2.5169 1.419,4.25 0.7805,1.7331 2.8055,6.22 4.5,9.9709 1.6946,3.7509 3.081,7.0115 3.081,7.2458 0,0.2343 1.575,3.8358 3.5,8.0032 1.925,4.1675 3.5,7.7561 3.5,7.9746 0,0.5938 4.435,10.2249 12.1309,26.3437 3.778,7.9129 6.8691,15.0004 6.8691,15.75 0,0.7496 0.3925,1.3629 0.8722,1.3629 1.578,0 2.069,7.1843 2.163,31.6473 0.051,13.2811 0.2518,24.3061 0.4462,24.5 0.1944,0.194 6.5717,0.3527 14.1718,0.3527 h 13.8183 z m 20.2795,-103 c 0,-0.55 0.45,-1 1,-1 0.55,0 1,0.45 1,1 0,0.55 -0.45,1 -1,1 -0.55,0 -1,-0.45 -1,-1 z m -88,-33.559 c 0,-0.8574 0.45,-1.2809 1,-0.941 0.55,0.34 1,1.0415 1,1.5591 0,0.5175 -0.45,0.9409 -1,0.9409 -0.55,0 -1,-0.7015 -1,-1.559 z m 314,86.1662 c 0,-47.05 0.2924,-62.4995 1.2,-63.4072 0.85,-0.85 6.8006,-1.2 20.4028,-1.2 h 19.2028 l 0.1351,-13.5 0.1351,-13.5 h -54.0379 -54.0379 v 13.4203 13.4202 l 18.1893,0.1145 c 11.4674,0.072 18.6738,0.5164 19.5,1.2022 1.055,0.8755 1.3107,13.1268 1.3107,62.7986 0,33.941 0.3137,62.0247 0.6972,62.4081 0.3835,0.3835 6.6835,0.6417 14,0.5738 l 13.3028,-0.1234 z m 158.779,48.6428 0.279,-13.25 h -33.922 c -27.2184,0 -34.0224,-0.2615 -34.4299,-1.3233 -0.5911,-1.5406 0.1589,-34.5403 0.8294,-36.4921 0.324,-0.943 2.5067,-1.2763 7.7082,-1.1769 3.991,0.076 16.1569,0.1058 27.0353,0.065 l 19.779,-0.073 -0.279,-13.1379 -0.279,-13.1379 -26.6539,0.1979 c -21.0579,0.1563 -26.826,-0.077 -27.4735,-1.1121 -0.4508,-0.7205 -0.9181,-8.3955 -1.0385,-17.0556 -0.1966,-14.1442 -0.04,-15.8416 1.5423,-16.6882 1.0222,-0.5471 14.5303,-0.8386 32.1924,-0.6947 16.7371,0.1363 31.2317,0.053 32.2101,-0.186 1.6073,-0.392 1.7521,-1.6523 1.5,-13.0597 l -0.2789,-12.6258 -47.25,-0.2224 -47.25,-0.2225 -0.211,5.2225 c -0.5438,13.4646 -0.2105,147.2822 0.368,147.7224 0.3613,0.275 21.9613,0.5 48,0.5 h 47.343 z m -53.029,-117.9122 c 0.6875,-0.2774 1.8125,-0.2774 2.5,0 0.6875,0.2774 0.125,0.5043 -1.25,0.5043 -1.375,0 -1.9375,-0.2269 -1.25,-0.5043 z m 43.0625,-0.021 c 0.7219,-0.2888 1.5844,-0.2533 1.9167,0.079 0.3323,0.3323 -0.2584,0.5686 -1.3125,0.5252 -1.165,-0.048 -1.4019,-0.2849 -0.6042,-0.6042 z m 64.1561,84.9331 c -0.2437,-54.4327 -0.2666,-53.25 1.0314,-53.25 0.55,0 1,0.4054 1,0.9008 0,0.4953 1.8216,4.8828 4.048,9.75 8.0417,17.58 9.952,22.054 9.952,23.3079 0,0.5877 0.4132,1.8499 0.9183,2.8049 1.8946,3.5827 5.0114,11.1083 5.6434,13.6261 0.3603,1.4357 1.0563,2.6103 1.5467,2.6103 0.4904,0 0.8916,0.6957 0.8916,1.5459 0,0.8501 1.125,3.6591 2.5,6.242 1.375,2.5829 2.5,5.4873 2.5,6.4542 0,0.9669 0.45,1.7579 1,1.7579 0.55,0 1,0.9145 1,2.0322 0,1.1176 0.6051,3.4801 1.3447,5.25 1.34,3.2065 1.369,3.2173 8.25,3.0746 12.3846,-0.2568 11.8126,-0.1011 13.245,-3.6068 0.7304,-1.7875 1.7876,-4.375 2.3494,-5.75 1.5165,-3.7117 5.1335,-12.1248 8.8133,-20.5 1.2083,-2.75 2.5716,-5.9 3.0296,-7 2.8503,-6.8458 4.1326,-9.8741 5.4202,-12.8003 0.7987,-1.8152 2.8753,-7.5527 4.6148,-12.75 3.8488,-11.4998 6.1538,-16.9497 7.1689,-16.9497 0.4203,0 0.8049,19.0125 0.8547,42.25 0.05,23.2375 0.1624,45.625 0.25,49.75 l 0.1594,7.5 h 13.4402 13.4403 l 0.021,-76.5 0.021,-76.5 -16.0614,-0.274 -16.0613,-0.2741 -3.5863,7.8456 c -1.9725,4.3151 -3.8899,9.0552 -4.2609,10.5335 -0.3711,1.4784 -1.0748,2.9352 -1.5639,3.2375 -0.4891,0.3023 -0.8892,1.2388 -0.8892,2.0813 0,0.8424 -1.8514,5.8784 -4.1142,11.191 -2.2629,5.3126 -4.4664,10.5592 -4.8968,11.6592 -4.0383,10.3207 -6.4539,16.0643 -10.3175,24.5324 -1.3883,3.0427 -2.8321,6.7595 -3.2086,8.2594 -0.3765,1.4999 -1.0846,2.9744 -1.5737,3.2767 -0.4891,0.3023 -0.8892,1.423 -0.8892,2.4906 0,1.0675 -0.45,1.9409 -1,1.9409 -0.55,0 -1,0.933 -1,2.0734 0,2.8644 -3.3978,2.1229 -3.8196,-0.8336 -0.1757,-1.2319 -0.7382,-2.2398 -1.25,-2.2398 -0.5117,0 -0.9304,-0.9265 -0.9304,-2.059 0,-1.1324 -0.3996,-1.812 -0.888,-1.5102 -0.4884,0.3019 -1.1894,-1.4611 -1.5578,-3.9177 -0.3684,-2.4565 -1.0938,-4.7285 -1.612,-5.0488 -0.5182,-0.3202 -0.9422,-1.4557 -0.9422,-2.5233 0,-1.0675 -0.45,-1.941 -1,-1.941 -0.55,0 -1.0143,-0.7875 -1.0318,-1.75 -0.017,-0.9625 -0.6925,-2.6235 -1.5,-3.6911 -0.8075,-1.0676 -1.4682,-3.0067 -1.4682,-4.309 0,-1.3239 -0.4409,-2.0954 -1,-1.7499 -0.55,0.34 -1,-0.286 -1,-1.3909 0,-1.7286 -5.5711,-17.2463 -9.5531,-26.6091 -0.7018,-1.65 -2.9202,-7.05 -4.9298,-12 -2.0096,-4.95 -4.5254,-10.9125 -5.5906,-13.25 l -1.9367,-4.25 -14.7449,0.015 c -8.1097,0.01 -15.3525,0.4003 -16.0951,0.8709 -1.3564,0.8596 -1.4028,5.1003 -1.0071,92.1137 0.044,9.625 -0.2117,26.8543 -0.5676,38.2873 -0.3559,11.433 -0.3793,21.2205 -0.052,21.75 0.3339,0.5402 6.5328,0.9627 14.125,0.9627 h 13.53 z m 51.1595,19.8504 c -0.7545,-0.478 -1.1674,-1.4824 -0.9175,-2.232 0.3164,-0.9493 0.8194,-0.6809 1.657,0.8843 1.3297,2.4845 1.2589,2.6136 -0.7395,1.3477 z m -12.3781,-1.7626 c 0.6875,-0.2774 1.8125,-0.2774 2.5,0 0.6875,0.2774 0.125,0.5043 -1.25,0.5043 -1.375,0 -1.9375,-0.2269 -1.25,-0.5043 z m -17.75,-31.8968 c 0,-0.8574 0.4573,-1.2763 1.0163,-0.9309 0.559,0.3455 0.7574,1.047 0.441,1.559 -0.8572,1.3871 -1.4573,1.1285 -1.4573,-0.6281 z m -1.3616,-4.941 c -0.3166,-0.825 -0.1398,-1.5 0.393,-1.5 0.5327,0 0.9686,0.675 0.9686,1.5 0,0.825 -0.1769,1.5 -0.393,1.5 -0.2162,0 -0.652,-0.675 -0.9686,-1.5 z m 12.8616,-11.5 c -0.3399,-0.55 -0.1415,-1 0.441,-1 0.5824,0 1.059,0.45 1.059,1 0,0.55 -0.1984,1 -0.441,1 -0.2425,0 -0.7191,-0.45 -1.059,-1 z m -2.5,-3.9409 c 0,-2.4146 0.5561,-2.6582 1.3493,-0.5911 0.3099,0.8074 0.133,1.734 -0.393,2.059 -0.526,0.3251 -0.9563,-0.3355 -0.9563,-1.4679 z m -7.1875,-12.7422 c 0.7219,-0.2888 1.5844,-0.2533 1.9167,0.079 0.3323,0.3323 -0.2584,0.5686 -1.3125,0.5252 -1.165,-0.048 -1.4019,-0.2849 -0.6042,-0.6042 z m 39.1875,-1.3169 c 0,-0.55 0.7016,-1 1.559,-1 0.8575,0 1.2809,0.45 0.941,1 -0.3399,0.55 -1.0415,1 -1.559,1 -0.5176,0 -0.941,-0.45 -0.941,-1 z m 168.6937,93.0718 c 6.0214,-1.9449 11.2414,-6.6726 13.8101,-12.5077 1.9512,-4.4321 2.3151,-7.4975 2.9168,-24.5641 0.4459,-12.6502 0.3102,-21.4286 -0.3863,-24.9904 -2.6663,-13.6342 -15.2352,-20.8675 -48.0343,-27.6437 -1.375,-0.2841 -3.4,-0.887 -4.5,-1.3398 -1.1,-0.4528 -5.375,-1.8163 -9.5,-3.03 -12.4753,-3.6707 -12,-2.9748 -12,-17.5701 v -12.528 l 3.544,-1.4808 c 1.9492,-0.8144 3.907,-1.2565 4.3506,-0.9823 0.4436,0.2742 7.4666,0.554 15.6067,0.6219 8.14,0.068 15.7803,0.5701 16.9784,1.1159 2.7972,1.2745 4.5203,6.0959 4.5203,12.6483 v 5.179 h 13.441 c 7.3925,0 13.6095,-0.3375 13.8155,-0.75 0.2061,-0.4125 0.061,-6.15 -0.323,-12.75 -0.8189,-14.0843 -2.6196,-19.1767 -8.7345,-24.7012 -6.8822,-6.2177 -10.8448,-6.8594 -41.699,-6.7528 -16.381,0.057 -28.9474,0.5436 -31.9514,1.2383 -6.8526,1.5845 -13.5025,8.1781 -15.8498,15.7157 -2.3295,7.4806 -3.4063,22.5689 -2.5269,35.4101 0.6071,8.8647 1.1862,11.4772 3.4772,15.6866 3.1419,5.7727 8.0592,10.0236 13.8509,11.9737 2.2,0.7407 4.4546,1.6685 5.0102,2.0616 1.2826,0.9077 15.9346,4.9629 20.2491,5.6044 1.7926,0.2666 3.5066,0.8849 3.809,1.3741 0.3023,0.4893 1.3107,0.8921 2.2407,0.8953 2.6147,0.01 19.9633,5.7467 23.2552,7.6912 l 2.9358,1.7343 v 12.6619 c 0,10.5834 -0.2727,12.8873 -1.6611,14.0344 -2.2302,1.8426 -41.1505,1.3892 -43.1027,-0.5022 -0.7939,-0.7691 -1.2942,-4.1785 -1.3455,-9.169 -0.083,-8.0616 -1.1722,-12.0184 -2.9981,-10.89 -0.5539,0.3423 -6.1235,0.676 -12.377,0.7414 -6.2534,0.065 -11.1749,0.4345 -10.9365,0.8202 0.2383,0.3857 -0.034,0.857 -0.6048,1.0473 -0.6389,0.213 -1.0965,5.5341 -1.1898,13.8354 -0.1598,14.2239 0.2251,15.857 5.5077,23.3654 2.3759,3.377 9.3566,6.7679 15.7078,7.6303 9.116,1.2377 60.2556,0.4989 64.6937,-0.9346 z m 8.8063,-18.0718 c 0.3399,-0.55 1.0415,-1 1.559,-1 0.5176,0 0.941,0.45 0.941,1 0,0.55 -0.7016,1 -1.559,1 -0.8575,0 -1.2809,-0.45 -0.941,-1 z m -67.5,-54.5 c 0,-0.825 0.4359,-1.5 0.9686,-1.5 0.5328,0 0.7096,0.675 0.393,1.5 -0.3166,0.825 -0.7524,1.5 -0.9686,1.5 -0.2161,0 -0.393,-0.675 -0.393,-1.5 z m 69,-43.559 c 0,-0.5824 0.45,-0.7809 1,-0.441 0.55,0.34 1,0.8165 1,1.0591 0,0.2425 -0.45,0.4409 -1,0.4409 -0.55,0 -1,-0.4765 -1,-1.059 z m 177.779,104.1254 0.279,-13.0664 h -30.47 c -21.2446,0 -30.6776,-0.336 -31.1559,-1.1098 -0.3772,-0.6104 -0.6273,-29.1977 -0.5557,-63.5275 l 0.1302,-62.4176 -14.2443,0.2775 -14.2443,0.2774 -0.1076,76 c -0.059,41.8 0.078,76.3412 0.3051,76.7582 0.2269,0.417 20.5213,0.5593 45.0985,0.3163 l 44.686,-0.4418 z m 39.2392,13.3294 c 3.453,-0.5714 3.5531,-0.7241 5.4003,-8.239 1.0351,-4.2112 2.2206,-8.3318 2.6343,-9.1568 0.4138,-0.825 1.3018,-3.525 1.9735,-6 2.6254,-9.674 3.1965,-11.0488 4.988,-12.0076 2.9221,-1.5639 45.1884,-1.2958 47.3714,0.3004 1.5822,1.1569 4.3377,8.9404 6.6227,18.7072 0.4504,1.925 1.6515,6.425 2.6691,10 l 1.8502,6.5 14.7865,0.2771 14.7866,0.277 -0.6605,-3.777 c -0.3632,-2.0774 -1.6806,-6.9271 -2.9274,-10.7771 -1.2469,-3.85 -3.1806,-10.15 -4.297,-14 -6.8686,-23.6868 -15.2248,-50.7384 -16.2901,-52.7364 -0.5092,-0.955 -0.9258,-2.4018 -0.9258,-3.215 0,-0.8133 -0.6136,-3.4069 -1.3636,-5.7636 -1.3274,-4.171 -3.6558,-11.8573 -9.1744,-30.285 -4.6128,-15.4031 -7.5734,-24.8358 -9.1675,-29.2081 l -1.5343,-4.2082 -18.4797,-0.2918 c -10.1639,-0.1605 -18.7954,-0.067 -19.1812,0.2081 -0.8539,0.6087 -4.4932,12.4594 -7.3703,24 -1.1655,4.675 -2.4192,8.725 -2.7859,9 -0.3668,0.275 -0.9254,1.85 -1.2414,3.5 -1.136,5.9318 -3.2176,13.3493 -3.9524,14.0841 -0.4121,0.4121 -0.7493,1.5804 -0.7493,2.5962 0,1.0158 -0.4202,2.6283 -0.9337,3.5833 -1.4598,2.7149 -8.887,27.0708 -16.2341,53.2364 -0.5405,1.925 -1.5117,5.6003 -2.1582,8.1674 -0.6464,2.567 -1.5125,5.0045 -1.9247,5.4167 -0.4121,0.4121 -0.7493,1.7191 -0.7493,2.9045 0,1.1853 -0.6222,4.1478 -1.3827,6.5833 -0.7605,2.4355 -1.9294,6.4531 -2.5975,8.9281 -0.6681,2.475 -1.6209,5.2814 -2.1173,6.2365 -0.4964,0.955 -0.9025,2.6425 -0.9025,3.75 0,1.8994 0.6377,2.0129 11.25,2.0025 6.1875,-0.01 12.8332,-0.273 14.7682,-0.5932 z m 27.1095,-61.1929 -6.3724,-0.3046 0.5625,-4.6991 c 0.3094,-2.5846 2.4099,-11.4492 4.6677,-19.6992 6.0617,-22.1488 7.1344,-26.7452 6.5791,-28.1922 -0.276,-0.7192 -0.1473,-1.3078 0.286,-1.3078 0.4333,0 1.4005,-2.25 2.1494,-5 1.801,-6.6137 4.1013,-6.7121 5.8453,-0.25 0.7051,2.6125 1.9497,7.225 2.766,10.25 4.4292,16.4154 5.0817,18.7411 6.8534,24.4282 0.8444,2.7105 1.5353,5.973 1.5353,7.25 0,1.277 0.3523,2.3218 0.783,2.3218 1.0636,0 3.5307,13.6834 2.7074,15.0156 -0.6139,0.9932 -10.1811,1.0564 -28.3627,0.1873 z m -2.0488,-45.7862 c 0.048,-1.1649 0.285,-1.4019 0.6042,-0.6042 0.2889,0.7219 0.2534,1.5844 -0.079,1.9167 -0.3323,0.3323 -0.5687,-0.2583 -0.5253,-1.3125 z m -17,-4 c 0.048,-1.1649 0.285,-1.4019 0.6042,-0.6042 0.2889,0.7219 0.2534,1.5844 -0.079,1.9167 -0.3323,0.3323 -0.5687,-0.2583 -0.5253,-1.3125 z m 1.9211,-5.4757 c 0,-1.6824 0.3896,-2.8182 0.8659,-2.5238 0.8056,0.4978 0.3661,5.5828 -0.4825,5.5828 -0.2109,0 -0.3834,-1.3765 -0.3834,-3.059 z m 19,-6 c 0,-0.5824 0.45,-0.7809 1,-0.441 0.55,0.34 1,0.8165 1,1.0591 0,0.2425 -0.45,0.4409 -1,0.4409 -0.55,0 -1,-0.4765 -1,-1.059 z m -0.3061,-5.5804 c -0.799,-0.799 0.1041,-2.3606 1.3651,-2.3606 0.5176,0 0.941,0.675 0.941,1.5 0,1.5465 -1.18,1.9867 -2.3061,0.8606 z m 185.5189,126.3916 c 5.5825,-2.6281 10.3114,-7.2252 12.8726,-12.5139 2.1926,-4.5275 2.2867,-5.6813 2.1146,-25.94 -0.1649,-19.4261 -0.3541,-21.5119 -2.2592,-24.9037 -3.0035,-5.3475 -5.2958,-8.3262 -6.4408,-8.3695 -0.55,-0.021 -1.7723,-1.3949 -2.7163,-3.0537 -1.7057,-2.9974 -1.6974,-3.0328 1.3509,-5.7437 1.6869,-1.5002 4.1653,-4.5987 5.5073,-6.8856 2.341,-3.9889 2.4408,-4.8905 2.4554,-22.184 0.015,-17.8612 -0.7095,-23.4889 -3.8191,-29.6581 -3.0318,-6.0149 -6.4438,-8.5779 -15.1774,-11.4011 -2.2372,-0.7232 -17.0227,-1.0989 -43.25,-1.0989 h -39.8508 l -0.1381,17.75 c -0.076,9.7625 -0.2828,21.35 -0.4596,25.75 -0.1768,4.4 -0.043,30.9864 0.2972,59.0809 l 0.6186,51.0809 42.591,-0.081 c 38.3549,-0.073 42.9602,-0.2547 46.3037,-1.8287 z m -60.5461,-25.4188 c -0.3667,-0.3667 -0.6667,-9.1331 -0.6667,-19.481 v -18.8143 l 2.3074,-0.5791 c 1.269,-0.3185 11.3147,-0.4395 22.3237,-0.269 25.7374,0.3987 23.9272,-1.0822 23.6998,19.3891 -0.1582,14.2452 -0.3138,15.386 -2.4303,17.8202 l -2.2613,2.6007 h -21.153 c -11.6341,0 -21.453,-0.3 -21.8196,-0.6666 z m -0.2239,-65.6217 c -0.2719,-0.7087 -0.3703,-8.6962 -0.2186,-17.75 l 0.2758,-16.4617 20,-0.2463 c 22.5011,-0.2771 23.9818,0.064 25.9915,5.9922 1.9634,5.7912 1.4584,23.6572 -0.7646,27.0489 l -1.773,2.7052 h -21.5083 c -16.626,0 -21.6206,-0.2924 -22.0028,-1.2883 z m 49.5572,-2.2117 c 0,-0.825 0.45,-1.5 1,-1.5 0.55,0 1,0.675 1,1.5 0,0.825 -0.45,1.5 -1,1.5 -0.55,0 -1,-0.675 -1,-1.5 z m -1378.5,-147.0471 c 10.45,-0.3521 20.4373,-0.6003 22.1941,-0.5515 1.7567,0.049 3.4139,-0.2671 3.6827,-0.702 0.4436,-0.7179 2.1824,-6.8936 6.2503,-22.1994 0.804,-3.025 1.8622,-6.85 2.3515,-8.5 0.4894,-1.65 1.6114,-5.925 2.4934,-9.5 2.9929,-12.1311 3.5791,-13.9082 5.0839,-15.413 1.2855,-1.2855 7.3382,-1.5119 41.835,-1.5644 43.0943,-0.065 41.545,-0.2447 43.0322,4.9774 0.3915,1.375 1.0948,3.85 1.5629,5.5 1.2226,4.3105 5.502,20.5805 8.0221,30.5 1.1877,4.675 2.5435,9.4 3.0129,10.5 0.4693,1.1 1.1167,2.9487 1.4385,4.1083 0.5203,1.874 1.5811,2.1833 9.5511,2.785 10.149,0.7661 41.554,0.7088 42.3401,-0.077 0.2835,-0.2835 0.1293,-1.4831 -0.3428,-2.6657 -0.7412,-1.8569 -4.9565,-15.4686 -8.2531,-26.6503 -0.5676,-1.925 -1.3699,-4.4 -1.7829,-5.5 -0.4131,-1.1 -1.539,-4.925 -2.5021,-8.5 -0.9631,-3.575 -2.3074,-8.3 -2.9874,-10.5 -0.68,-2.2 -2.2298,-7.375 -3.4439,-11.5 -1.2141,-4.125 -2.6195,-8.2813 -3.123,-9.2364 -0.5035,-0.955 -0.9155,-2.4018 -0.9155,-3.215 0,-0.8133 -0.6161,-3.4069 -1.369,-5.7636 -0.753,-2.3567 -2.1432,-6.985 -3.0896,-10.285 -1.6364,-5.7066 -5.5412,-18.8225 -11.1643,-37.5 -1.4075,-4.675 -2.917,-9.4 -3.3544,-10.5 -0.4374,-1.1 -2.0163,-6.5 -3.5087,-12 -1.4923,-5.5 -3.0688,-10.9 -3.5032,-12 -0.4345,-1.1 -1.5569,-4.925 -2.4943,-8.5 -0.9374,-3.575 -2.1121,-7.2813 -2.6104,-8.2364 -0.4984,-0.955 -0.9061,-2.4905 -0.9061,-3.4121 0,-1.6882 -2.572,-11.1401 -4.0413,-14.8515 -0.4355,-1.1 -1.0909,-3.125 -1.4565,-4.5 -0.3657,-1.375 -1.2644,-4.75 -1.9973,-7.5 -0.7328,-2.75 -2.5276,-8.825 -3.9884,-13.5 -1.4608,-4.675 -3.695,-12.325 -4.9649,-17 -1.2699,-4.675 -2.8023,-9.7375 -3.4055,-11.25 l -1.0966,-2.75 h -32.9642 -32.9643 l -2.5605,8.3947 c -1.4083,4.617 -2.5605,9.0904 -2.5605,9.9409 0,0.8505 -0.45,1.8245 -1,2.1644 -0.55,0.34 -1,1.4758 -1,2.5241 0,1.0483 -0.6101,3.8343 -1.3558,6.191 -0.7457,2.3567 -1.8493,6.0849 -2.4524,8.2849 -0.6031,2.2 -1.838,6.7 -2.7442,10 -0.9062,3.3 -2.0403,6.9 -2.5203,8 -0.48,1.1 -1.742,5.375 -2.8046,9.5 -2.416,9.3789 -6.0054,20.948 -7.2092,23.2365 -0.5024,0.955 -0.9135,2.3577 -0.9135,3.1171 0,1.5341 -7.6402,28.9915 -8.9449,32.1464 -0.4549,1.1 -1.375,4.025 -2.0445,6.5 -1.1449,4.2321 -2.1825,7.683 -4.8107,16 -1.6623,5.2606 -7.2545,24.9434 -8.3814,29.5 -0.5441,2.2 -1.3643,4.9 -1.8228,6 -0.4585,1.1 -1.1028,3.575 -1.4318,5.5 -0.6411,3.7509 -4.2214,16.2023 -5.6071,19.5 -0.4622,1.1 -1.1446,3.575 -1.5165,5.5 -0.372,1.925 -2.1194,8 -3.8831,13.5 -1.7638,5.5 -4.4292,14.05 -5.9231,19 -1.4939,4.95 -3.1477,9.7814 -3.6751,10.7365 -0.5275,0.955 -0.959,1.9345 -0.959,2.1767 0,0.6313 3.2326,1.2359 5,0.9352 0.825,-0.1404 10.05,-0.5434 20.5,-0.8955 z m 54.7495,-106.2451 c -0.4646,-1.2108 0.2049,-4.149 2.7819,-12.2078 0.4397,-1.375 2.6982,-9.475 5.019,-18 2.3208,-8.525 4.573,-16.4 5.0049,-17.5 0.4319,-1.1 1.0404,-3.575 1.3523,-5.5 0.3118,-1.925 1.2921,-5.975 2.1784,-9 0.8863,-3.025 1.8259,-6.625 2.088,-8 0.2622,-1.375 0.8543,-3.4 1.316,-4.5 0.4616,-1.1 1.7453,-5.825 2.8527,-10.5 5.6239,-23.7435 6.6287,-24.4061 10.615,-7 1.9818,8.6533 3.453,13.824 4.5817,16.1031 0.4367,0.8816 1.1132,3.8066 1.5034,6.5 0.3902,2.6933 1.0403,5.3469 1.4446,5.8969 0.4043,0.55 1.0168,2.575 1.3611,4.5 0.3444,1.925 1.3453,5.975 2.2244,9 2.906,10 5.5102,19.4673 7.427,27 0.4899,1.925 1.6417,6.425 2.5596,10 0.9179,3.575 1.73,8.2984 1.8047,10.4965 l 0.1358,3.9964 -27.865,0.036 c -22.5609,0.029 -27.9641,-0.2225 -28.3855,-1.3208 z m 74.7505,-76.0174 c 0,-0.537 0.7126,-1.2498 1.5836,-1.584 0.9739,-0.3738 1.431,-0.1503 1.1875,0.5805 -0.4983,1.4948 -2.7711,2.3179 -2.7711,1.0035 z m -208.5,180.8824 c 2.75,-0.7522 5.4275,-1.7513 5.95,-2.2202 0.5225,-0.4689 1.529,-0.8526 2.2366,-0.8526 2.1298,0 8.7569,-5.2 12.3965,-9.727 5.4585,-6.7895 9.06,-14.76 9.6602,-21.3792 0.2968,-3.2728 0.926,-6.1894 1.3982,-6.4812 0.4722,-0.2918 0.8585,-11.1915 0.8585,-24.2216 l 1e-4,-23.691 h -24 -24 l -0.025,13.5 c -0.024,13.425 -0.922,20.3744 -3.2081,24.8354 -2.5066,4.8912 -4.4532,5.1646 -36.7675,5.1646 -32.7659,0 -33.8504,-0.1643 -37.6015,-5.6988 -1.8134,-2.6756 -1.9109,-5.9602 -2.1761,-73.3012 -0.1527,-38.775 -0.013,-72.4103 0.3105,-74.7452 0.7179,-5.1814 4.389,-9.7891 8.4457,-10.6005 1.6597,-0.3319 15.8348,-0.6402 31.5001,-0.685 39.0546,-0.1118 37.8836,-0.7861 38.2613,22.0307 0.132,7.975 0.2445,16.4125 0.25,18.75 l 0.01,4.25 h 24.5 24.5 v -22.9192 c 0,-17.7592 -0.3618,-24.3445 -1.6072,-29.25 -1.8261,-7.1931 -6.545,-17.5575 -9.5646,-21.0075 -1.1184,-1.2778 -2.5498,-3.0372 -3.1808,-3.9098 -2.4011,-3.3202 -11.4212,-8.8239 -18.1474,-11.0729 -6.967,-2.3295 -7.2356,-2.3406 -57,-2.3406 -53.5947,0 -51.0924,-0.2146 -62.3707,5.3501 -8.6124,4.2494 -18.3191,15.0484 -15.3434,17.07 0.4695,0.319 0.5296,1.7049 0.1336,3.0799 l -0.7201,2.5 -0.1,-2.75 c -0.1636,-4.5126 -1.6292,-3.1593 -4.332,4 -4.6308,12.266 -4.9237,18.3789 -4.6856,97.7737 0.2057,68.5801 0.5335,79.4216 2.8565,94.4763 1.7561,11.381 10.4194,24.0931 19.595,28.7529 12.4051,6.2999 18.1128,6.7705 81.4664,6.7173 26.8466,-0.022 36.7188,-0.3632 40.5,-1.3974 z m 21.5789,-83.6561 c 0.048,-1.1649 0.285,-1.4019 0.6042,-0.6042 0.2889,0.7219 0.2534,1.5844 -0.079,1.9167 -0.3323,0.3323 -0.5687,-0.2583 -0.5253,-1.3125 z m -159.5362,-141.3476 c -0.3164,-0.512 -0.118,-1.2135 0.441,-1.559 0.559,-0.3454 1.0163,0.074 1.0163,0.9309 0,1.7566 -0.6001,2.0152 -1.4573,0.6281 z m 157,0 c -0.6831,-1.1052 0.8944,-2.2986 1.8178,-1.3752 0.9508,0.9508 0.7736,2.3061 -0.3015,2.3061 -0.5175,0 -1.1999,-0.4189 -1.5163,-0.9309 z m 414.4573,224.7439 c 21.3283,-4.4174 33.4012,-19.0518 35.7316,-43.313 1.0518,-10.9506 0.6603,-45.1558 -0.6332,-55.3154 -1.4104,-11.078 -5.4037,-19.3298 -13.0585,-26.9846 -3.2509,-3.2509 -7.4023,-6.6071 -9.2253,-7.4581 -11.6425,-5.4352 -16.2563,-7.1886 -27.3146,-10.3806 -2.75,-0.7937 -6.35,-1.8437 -8,-2.3332 -1.65,-0.4894 -6.375,-1.7712 -10.5,-2.8484 -4.125,-1.0772 -9.525,-2.6287 -12,-3.4477 -2.475,-0.8191 -6.975,-2.2363 -10,-3.1492 -3.025,-0.913 -6.4,-2.0413 -7.5,-2.5074 -1.1,-0.4661 -3.8,-1.3431 -6,-1.949 -20.6385,-5.6841 -19.5,-4.1595 -19.5,-26.1121 0,-16.5242 0.1323,-17.7791 2.096,-19.887 1.1528,-1.2374 3.2071,-2.6722 4.5651,-3.1885 1.358,-0.5163 14.3793,-0.9388 28.9361,-0.9388 36.4469,0 36.3066,-0.076 36.6801,19.9697 l 0.2227,11.9568 23.7508,0.2868 23.7508,0.2867 -8e-4,-15.418 c -8e-4,-15.12 -1.0708,-25.6142 -3.2203,-31.582 -6.1186,-16.9878 -14.7988,-24.9626 -32.2805,-29.6572 -7.5182,-2.019 -89.5044,-1.9242 -98.25,0.1135 -3.4375,0.801 -6.25,1.8135 -6.25,2.25 0,0.4366 -0.7304,0.7937 -1.623,0.7937 -2.1974,0 -13.6821,8.2906 -15.6543,11.3005 -0.8717,1.3304 -2.1992,3.0446 -2.95,3.8092 -0.7507,0.7647 -2.5966,4.3153 -4.1019,7.8903 -3.3601,7.9802 -4.3044,17.1767 -4.5701,44.5065 -0.2192,22.5551 0.9233,32.4518 4.6747,40.4935 4.1808,8.9623 14.3419,17.6598 25.7246,22.0194 1.1,0.4213 4.475,1.7514 7.5,2.9558 3.025,1.2044 8.65,3.0786 12.5,4.1647 3.85,1.0862 8.35,2.3542 10,2.8178 11.7506,3.3012 24.2786,7.2209 25.7364,8.0522 0.9551,0.5446 2.5001,0.9901 3.4334,0.9901 0.9334,0 4.202,0.8557 7.2636,1.9015 3.0616,1.0458 8.2666,2.695 11.5666,3.665 3.3,0.9701 7.5896,2.5486 9.5325,3.508 5.8985,2.9125 6.4675,5.0684 6.4675,24.5034 0,15.9043 -0.1641,17.4951 -2.0677,20.0449 -1.1373,1.5233 -3.3873,3.1814 -5,3.6847 -3.588,1.1197 -49.0961,1.6009 -57.5154,0.6082 -10.5789,-1.2473 -13.0253,-5.9954 -12.6877,-24.6253 0.1017,-5.6152 -0.1273,-10.5218 -0.509,-10.9035 -1.2212,-1.2212 -44.8167,-0.6903 -46.068,0.561 -1.6643,1.6642 -1.7305,29.6867 -0.096,40.6753 0.7463,5.0177 2.4289,11.5427 3.7391,14.5 5.8894,13.2934 20.3549,23.417 35.5183,24.8576 11.766,1.1178 90.7324,0.1689 97.1865,-1.1678 z m -88.4171,-118.6787 c -0.4307,-0.697 -0.5131,-1.5374 -0.183,-1.8675 0.8949,-0.8949 1.8707,0.4213 1.3873,1.8715 -0.3387,1.0162 -0.5742,1.0154 -1.2043,0 z m 306.6479,119.0349 c 0.6431,-0.643 2.3167,-1.184 3.7192,-1.2021 1.4025,-0.018 4.8,-1.3724 7.55,-3.0095 2.75,-1.6372 5.675,-3.2354 6.5,-3.5517 2.5387,-0.9732 11.1148,-13.1146 13.5872,-19.2355 3.0197,-7.4761 4.0777,-18.8019 3.9859,-42.6704 l -0.073,-19 -24.25,-0.2677 -24.25,-0.2678 v 16.9527 c 0,9.3239 -0.4454,18.1242 -0.9898,19.5561 -0.5444,1.4318 -2.1851,3.7111 -3.646,5.0651 l -2.6562,2.4616 h -31.3676 c -23.2404,0 -31.9442,-0.3238 -33.5932,-1.25 -4.0965,-2.3007 -6.7426,-6.0981 -6.7941,-9.75 -0.027,-1.925 -0.01,-34.975 0.044,-73.4444 0.092,-69.1767 0.1165,-69.9856 2.1992,-73.6913 3.3756,-6.006 4.6663,-6.2188 38.1981,-6.2954 27.4627,-0.063 30.3393,0.09 32.7693,1.7397 5.056,3.4326 5.8362,6.8539 5.8362,25.5926 v 17.0988 h 24.25 l 24.25,10e-4 -0.2563,-22.751 c -0.2871,-25.4813 -1.5503,-34.0372 -6.4069,-43.3951 -3.7458,-7.2174 -12.3083,-15.783 -19.1036,-19.1103 -11.216,-5.492 -17.4506,-6.0061 -66.0532,-5.4467 -47.9941,0.5524 -50.2909,0.7961 -61.1061,6.4834 -9.9531,5.234 -18.4761,17.3971 -21.1742,30.2176 -0.4051,1.925 -0.908,42.425 -1.1174,90 -0.416,94.4761 -0.4771,93.274 5.3629,105.5 6.9972,14.6487 17.8034,22.4864 33.8548,24.5547 9.9113,1.2772 99.3544,0.491 100.7308,-0.8855 z m 107.1985,0.6286 c 0.3907,-0.6074 7.5175,-26.213 12.0632,-43.3413 1.32,-4.974 2.8631,-10.2615 3.429,-11.75 l 1.029,-2.7065 h 41.4081 41.4081 l 0.6905,2.25 c 0.3797,1.2375 1.8122,6.525 3.1832,11.75 1.371,5.225 2.8644,10.85 3.3187,12.5 1.1448,4.1583 4.036,14.3879 5.0874,18 0.4802,1.65 1.4211,5.1551 2.0907,7.789 0.8269,3.2524 1.6419,4.626 2.5402,4.2813 0.7274,-0.2791 1.3226,-0.1 1.3226,0.3983 0,0.5122 9.986,0.9439 22.9829,0.9934 12.6406,0.048 23.6656,0.3497 24.5,0.6699 1.734,0.6653 1.9204,-0.5293 0.5985,-3.8348 -1.9854,-4.9643 -2.4749,-6.4925 -3.7791,-11.7971 -2.3256,-9.4586 -3.0933,-12.3342 -4.8054,-18 -0.9142,-3.025 -1.8838,-6.625 -2.1548,-8 -0.271,-1.375 -0.852,-3.4 -1.2911,-4.5 -0.4391,-1.1 -2.7039,-8.075 -5.0329,-15.5 -2.329,-7.425 -4.5897,-14.625 -5.0237,-16 -0.4341,-1.375 -1.5464,-5.2 -2.4718,-8.5 -0.9254,-3.3 -2.0338,-7.125 -2.4631,-8.5 -1.8942,-6.0671 -4.9734,-16.675 -9.1437,-31.5 -1.7019,-6.05 -3.7663,-13.25 -4.5877,-16 -0.8213,-2.75 -1.7415,-6.125 -2.0449,-7.5 -0.3034,-1.375 -0.8622,-2.95 -1.2419,-3.5 -0.3796,-0.55 -1.4939,-3.925 -2.4762,-7.5 -0.9823,-3.575 -2.1387,-7.4 -2.5698,-8.5 -1.7323,-4.4204 -5.9953,-19.2263 -5.9953,-20.8226 0,-0.9375 -0.4117,-2.4859 -0.9148,-3.4409 -0.5032,-0.9551 -1.6827,-4.8865 -2.621,-8.7365 -1.8922,-7.7631 -2.701,-10.5937 -8.0001,-28 -8.1585,-26.7985 -7.7561,-25.9284 -12.2786,-26.5553 -2.2034,-0.3054 -16.759,-0.6687 -32.3458,-0.8072 l -28.3397,-0.252 -1.25,2.7566 c -0.6875,1.5162 -1.25,3.477 -1.25,4.3573 0,0.8804 -0.3666,2.0281 -0.8146,2.5506 -0.4481,0.5225 -1.6396,4.325 -2.6479,8.45 -1.0083,4.125 -2.1424,7.95 -2.5202,8.5 -0.3779,0.55 -1.4903,4.15 -2.4722,8 -0.9818,3.85 -2.8561,10.3626 -4.1651,14.4723 -1.309,4.1097 -2.38,8.4972 -2.38,9.75 0,1.2528 -0.4008,2.2777 -0.8906,2.2777 -0.4898,0 -1.1212,1.4625 -1.4031,3.25 -0.6157,3.9044 -2.5698,11.4807 -3.6755,14.25 -0.4392,1.1 -1.5892,4.7 -2.5556,8 -0.9664,3.3 -2.0915,7.125 -2.5002,8.5 -0.4087,1.375 -1.3005,4.525 -1.9817,7 -2.4505,8.9023 -4.151,14.5353 -4.9812,16.5 -0.4649,1.1 -1.071,2.9 -1.3469,4 -0.276,1.1 -2.3762,8.525 -4.6672,16.5 -2.291,7.975 -4.5392,15.85 -4.9961,17.5 -0.4569,1.65 -1.5745,5.475 -2.4836,8.5 -0.9091,3.025 -1.8995,6.7431 -2.2009,8.2623 -0.3014,1.5192 -0.9461,3.0083 -1.4327,3.309 -0.4866,0.3007 -0.8847,1.8437 -0.8847,3.4287 0,1.5851 -0.399,3.1286 -0.8866,3.43 -0.4877,0.3014 -1.1935,2.1833 -1.5684,4.1821 -0.375,1.9988 -1.0597,4.3663 -1.5216,5.2611 -0.7404,1.4344 -3.6487,10.8985 -6.0312,19.6268 -0.4504,1.65 -1.5871,5.7 -2.526,9 -0.9389,3.3 -1.9118,7.125 -2.162,8.5 -0.2502,1.375 -0.8366,3.4 -1.3031,4.5 -0.4666,1.1 -1.617,4.7 -2.5565,8 -0.9395,3.3 -2.2802,7.8 -2.9794,10 l -1.2711,4 9.1529,0.5 c 9.2361,0.5046 40.7274,0.3496 41.0823,-0.2022 z m 32.3207,-104.5697 c -2.2845,-0.2998 -2.75,-0.8515 -2.75,-3.2595 0,-1.5943 0.629,-4.8269 1.3979,-7.1836 0.7688,-2.3567 1.962,-6.76 2.6515,-9.785 0.6895,-3.025 1.8605,-7.4282 2.6021,-9.7849 0.7417,-2.3567 1.3485,-5.1753 1.3485,-6.2636 0,-1.0882 0.4126,-2.76 0.9169,-3.715 0.8251,-1.5626 1.8264,-4.9463 5.2486,-17.7365 0.5887,-2.2 1.3161,-4.675 1.6164,-5.5 0.3004,-0.825 1.5512,-5.325 2.7796,-10 3.4847,-13.2616 7.25,-27.2736 8.0056,-29.7908 0.9926,-3.3073 2.766,-2.1746 3.7069,2.3677 0.447,2.1577 1.2109,5.4981 1.6977,7.4231 0.4867,1.925 1.6304,6.65 2.5414,10.5 0.9111,3.85 2.0176,8.125 2.4591,9.5 0.4415,1.375 1.578,5.425 2.5257,9 0.9476,3.575 2.0894,7.4 2.5372,8.5 0.4478,1.1 1.0482,3.125 1.3342,4.5 0.6059,2.9133 4.8068,19.0335 7.0362,27 3.8109,13.6184 5.9271,23.0008 5.3237,23.6041 -0.6882,0.6883 -48.2232,1.2481 -52.9792,0.624 z m 314.75,103.285 c 8.7318,-2.9726 11.7741,-4.7879 17.273,-10.3066 8.8164,-8.848 12.5509,-17.7342 13.9554,-33.2065 1.1277,-12.4224 0.7192,-163.2997 -0.4616,-170.5 -1.9982,-12.1845 -5.9331,-20.1971 -13.7529,-28.0041 -3.3076,-3.3023 -7.3639,-6.6173 -9.0139,-7.3667 -1.65,-0.7494 -3.675,-1.6905 -4.5,-2.0913 -6.7925,-3.3004 -12.2626,-3.5379 -81.5,-3.5379 h -69 l 0.4197,10 c 0.2309,5.5 0.3858,16.3 0.3442,24 -0.042,7.7 -0.054,26.825 -0.028,42.5 0.056,33.3351 0.051,61.841 -0.016,100 -0.027,15.125 0.1001,29.3 0.2816,31.5 0.6084,7.3709 0.6444,17.8809 0.1158,33.8083 l -0.5246,15.8083 71.2039,-0.6209 c 56.1576,-0.4896 72.0492,-0.9086 75.2039,-1.9826 z m -97.3207,-45.7971 c -1.7399,-2.0964 -1.6726,-160.2788 0.069,-161.4057 0.6887,-0.4456 16.899,-0.96 36.023,-1.143 l 34.7709,-0.3328 4.3976,2.5772 c 3.1341,1.8366 4.5281,2.2196 4.8518,1.3328 0.822,-2.2525 0.9209,5.027 1.0656,78.4324 0.1424,72.2634 0.1313,72.6929 -1.9467,75.5 -4.2292,5.7129 -4.8171,5.7966 -42.9952,6.1243 -28.9593,0.2485 -35.286,0.059 -36.2356,-1.0852 z m 215.5707,47.3724 12.25,-0.088 v -128.3553 -128.3554 l -23.5416,0.2302 c -12.9478,0.1267 -23.7374,0.4262 -23.9769,0.6657 -0.4271,0.4271 -0.5513,46.3447 -0.5048,186.5891 l 0.023,70.2742 11.75,-0.4359 c 6.4625,-0.2397 17.2625,-0.4756 24,-0.5242 z m 98.8439,-4.0884 c 0.7338,-2.475 2.2903,-8.325 3.4589,-13 1.1687,-4.675 2.5073,-9.85 2.9747,-11.5 0.4675,-1.65 1.7922,-6.825 2.9438,-11.5 3.0124,-12.2283 4.2058,-15.9021 5.5202,-16.9929 0.7011,-0.5819 17.3919,-0.992 42.0852,-1.0341 36.176,-0.062 40.9608,0.1098 41.2466,1.4786 0.1778,0.8516 0.7403,1.5484 1.25,1.5484 0.5097,0 0.9267,0.983 0.9267,2.1844 0,1.2015 0.6567,4.689 1.4594,7.75 0.8027,3.0611 2.8014,10.9656 4.4416,17.5656 3.7424,15.0595 5.7021,22.3087 6.891,25.4913 l 0.9307,2.4913 25.6379,0.01 c 15.5009,0.01 25.6382,-0.3662 25.6387,-0.9397 4e-4,-0.5216 -1.1352,-4.7966 -2.5236,-9.5 -3.3087,-11.2091 -5.9028,-20.1592 -7.9854,-27.5516 -0.9297,-3.3 -2.0323,-6.9 -2.4502,-8 -0.418,-1.1 -1.5503,-4.7 -2.5162,-8 -0.9659,-3.3 -2.1218,-6.9 -2.5687,-8 -0.8033,-1.9777 -2.5415,-7.7686 -4.9523,-16.5 -0.6834,-2.475 -1.8637,-6.1966 -2.6227,-8.2702 -0.7591,-2.0736 -1.3802,-4.8596 -1.3802,-6.191 0,-1.3314 -0.4003,-2.6681 -0.8895,-2.9705 -0.4892,-0.3023 -1.1151,-2.0164 -1.3908,-3.809 -0.2757,-1.7926 -2.1461,-8.6593 -4.1564,-15.2593 -6.8936,-22.6313 -10.7216,-35.0077 -12.9905,-42 -1.2493,-3.85 -2.8405,-9.025 -3.5361,-11.5 -0.6956,-2.475 -1.611,-5.4 -2.0343,-6.5 -0.4233,-1.1 -2.213,-7.4 -3.9771,-14 -1.7641,-6.6 -4.3092,-15.6 -5.6558,-20 -1.3465,-4.4 -2.8764,-9.575 -3.3996,-11.5 -1.6492,-6.0671 -6.0407,-20.1921 -8.8608,-28.5 l -2.7156,-8 -33.0256,-0.2835 -33.0256,-0.2836 -1.1661,3.7836 c -0.6413,2.0809 -2.3095,8.0585 -3.7071,13.2835 -3.5811,13.3881 -5.5396,20.1827 -6.4856,22.5 -0.449,1.1 -1.7889,5.6 -2.9777,10 -2.5455,9.4222 -3.3137,12.1431 -5.5058,19.5 -3.0239,10.1486 -3.4047,11.476 -5.0205,17.5 -0.8852,3.3 -2.0714,7.575 -2.6361,9.5 -0.5647,1.925 -1.5828,5.75 -2.2623,8.5 -0.6796,2.75 -1.4888,5.675 -1.7983,6.5 -1.4153,3.7734 -5.7828,18.7445 -5.7828,19.8227 0,0.6625 -0.4045,1.9859 -0.8989,2.9409 -0.8865,1.7126 -4.7776,13.9458 -6.9138,21.7364 -0.6032,2.2 -2.2242,7.825 -3.6022,12.5 -1.3779,4.675 -2.9477,10.3 -3.4884,12.5 -1.5023,6.1123 -4.5024,16.5632 -7.4639,26 -0.863,2.75 -3.4108,11.075 -5.6617,18.5 -2.2509,7.425 -4.4631,14.625 -4.9159,16 -0.4528,1.375 -1.3723,4.525 -2.0434,7 -0.671,2.475 -1.5931,5.4676 -2.049,6.6503 -0.456,1.1826 -0.5815,2.3977 -0.279,2.7002 0.3025,0.3025 11.8059,0.4599 25.5631,0.3498 l 25.013,-0.2003 z m 103.564,-45 c 0,-1.375 0.227,-1.9375 0.5044,-1.25 0.2774,0.6875 0.2774,1.8125 0,2.5 -0.2774,0.6875 -0.5044,0.125 -0.5044,-1.25 z m -2.5579,-7.6 c -0.3559,-0.9274 -0.4221,-1.9112 -0.1471,-2.1862 0.275,-0.275 0.7912,0.2588 1.1471,1.1862 0.3559,0.9275 0.4221,1.9113 0.1471,2.1863 -0.275,0.275 -0.7912,-0.2588 -1.1471,-1.1863 z m -129.6,-7.459 c 0,-0.5824 0.45,-0.7809 1,-0.441 0.55,0.34 1,0.8165 1,1.0591 0,0.2425 -0.45,0.4409 -1,0.4409 -0.55,0 -1,-0.4765 -1,-1.059 z m 4,-4 c 0,-0.5824 0.45,-0.7809 1,-0.441 0.55,0.34 1,0.8165 1,1.0591 0,0.2425 -0.45,0.4409 -1,0.4409 -0.55,0 -1,-0.4765 -1,-1.059 z m 51.7312,-36.5431 c -1.1009,-1.1009 -0.8784,-6.3979 0.2688,-6.3979 0.55,0 1,-0.7271 1,-1.6157 0,-1.4478 2.0735,-8.5478 4.0547,-13.8843 1.3854,-3.7316 5.2715,-16.9825 6.012,-20.5 0.4052,-1.925 1.94,-7.775 3.4106,-13 1.4706,-5.225 2.9249,-10.625 3.2319,-12 0.307,-1.375 2.2436,-9.25 4.3035,-17.5 2.0599,-8.25 4.0333,-16.2375 4.3853,-17.75 1.1024,-4.7362 3.3531,-3.2736 4.6165,3 0.6368,3.1625 1.5691,6.5314 2.0717,7.4865 0.5026,0.955 0.9138,2.4455 0.9138,3.3121 0,1.6152 2.5196,10.372 4.0142,13.9514 0.4593,1.1 1.0398,3.125 1.29,4.5 0.2502,1.375 1.2276,5.2 2.1719,8.5 0.9444,3.3 2.091,7.575 2.5481,9.5 0.457,1.925 2.0252,7.775 3.4849,13 3.6925,13.2182 5.5188,20.0773 6.124,23 0.2846,1.375 0.8664,3.4 1.2927,4.5 3.5543,9.1709 3.3993,11.0786 -0.9516,11.7171 -5.2312,0.7678 -53.4951,0.9287 -54.243,0.1808 z m -31.7312,-48.8388 c 0,-0.8575 0.45,-1.5591 1,-1.5591 0.55,0 1,0.4235 1,0.941 0,0.5176 -0.45,1.2191 -1,1.559 -0.55,0.34 -1,-0.083 -1,-0.9409 z"
       id="path2" /></g></svg>
