<?xml version="1.0" encoding="UTF-8" standalone="no"?>
<!-- Created with Inkscape (http://www.inkscape.org/) -->

<svg
   version="1.1"
   id="svg1"
   width="2521.6616"
   height="931.89764"
   viewBox="0 0 2521.6617 931.89768"
   xml:space="preserve"
   xmlns="http://www.w3.org/2000/svg"
   xmlns:svg="http://www.w3.org/2000/svg"><defs
     id="defs1" /><g
     id="g1"
     transform="translate(5400.883,1738.2145)"><path
       style="fill:#000000"
       d="m -5023.4216,-807.20823 c -3.1355,-0.4024 -7.1855,-1.42465 -9,-2.27166 -1.8145,-0.84701 -5.5491,-2.57983 -8.2991,-3.85071 -6.5873,-3.04422 -18.2161,-14.81577 -21.6451,-21.91079 -5.69,-11.77349 -6.3201,-14.63888 -6.338,-28.82209 l -0.017,-13.34912 -5.5,-3.01881 c -3.025,-1.66034 -9.0024,-5.21573 -13.2831,-7.90087 -4.2807,-2.68514 -8.2182,-4.88208 -8.75,-4.88208 -0.5318,0 -0.9704,-0.3375 -0.9747,-0.75 0,-0.4125 -1.0168,-1.24148 -2.25,-1.84219 -1.2332,-0.60071 -7.5381,-4.31321 -14.0109,-8.25 -6.4728,-3.93679 -12.2103,-7.15781 -12.75,-7.15781 -0.5397,0 -0.9813,-0.37776 -0.9813,-0.83948 0,-0.46172 -1.2375,-1.40205 -2.75,-2.08963 -1.5125,-0.68757 -10.4,-6.34029 -19.75,-12.56159 -9.35,-6.22131 -18.575,-12.19438 -20.5,-13.27349 -5.7308,-3.21257 -33.053,-19.65157 -39.202,-23.58672 -3.136,-2.007 -5.9916,-3.64909 -6.3456,-3.64909 -0.354,0 -1.9939,-0.96148 -3.6443,-2.13664 -2.6773,-1.9064 -14.9136,-9.42434 -36.5906,-22.48121 -4.0054,-2.41258 -11.7884,-7.31052 -17.2956,-10.88429 -5.5072,-3.5738 -10.2272,-6.4979 -10.489,-6.4979 -0.8189,0 -8.9156,-5.4611 -9.2662,-6.25 -0.1834,-0.4125 -0.9709,-0.75 -1.75,-0.75 -0.7792,0 -1.4167,-0.4196 -1.4167,-0.9326 0,-0.5129 -0.8973,-1.2174 -1.9941,-1.5655 -1.0967,-0.3481 -2.6456,-1.2844 -3.4419,-2.0808 -2.7242,-2.7241 -7.046,-2.8437 -9.672,-0.2676 -1.3156,1.2906 -3.6295,2.9851 -5.142,3.7655 -1.5125,0.7805 -2.75,1.793 -2.75,2.25 0,0.4571 -0.6236,0.831 -1.3857,0.831 -0.7621,0 -2.6746,0.6723 -4.25,1.4939 -1.5754,0.8216 -3.7868,1.4966 -4.9143,1.5 -1.1275,0 -2.569,0.5251 -3.2033,1.1594 -1.9082,1.9083 -22.7012,1.5477 -29.4145,-0.5101 -9.9903,-3.0622 -21.2771,-11.6157 -27.7587,-21.0363 -12.7393,-18.5159 -14.2834,-43.3029 -3.8689,-62.1069 3.8812,-7.0078 3.7477,-6.8255 9.3239,-12.7325 4.7892,-5.0734 9.667,-8.7792 14.5031,-11.0186 1.9423,-0.8995 4.4201,-2.4484 5.5061,-3.4421 1.9502,-1.7844 1.9727,-3.6154 1.8251,-148.3068 -0.082,-80.575 -0.1974,-147.0007 -0.2561,-147.6127 -0.059,-0.612 -2.988,-2.5311 -6.5095,-4.2648 -3.5215,-1.7336 -8.8649,-5.5079 -11.8742,-8.3873 -5.8049,-5.5542 -13.3845,-16.4498 -14.3934,-20.6904 -0.3329,-1.3996 -0.9178,-2.9948 -1.2997,-3.5448 -1.7039,-2.4542 -3.5093,-13.7295 -3.4426,-21.5 0.2379,-27.7032 20.5109,-51.7337 46.9127,-55.6076 8.4254,-1.2362 22.8783,-0.2073 24.0653,1.7133 0.304,0.4919 1.2483,0.8943 2.0985,0.8943 1.6014,0 11.4269,4.6467 12.3262,5.8293 0.2805,0.3689 1.9629,1.478 3.7388,2.4647 3.1906,1.7728 3.2851,1.7628 8,-0.8481 2.6241,-1.4531 6.2037,-3.7229 7.9545,-5.044 1.7508,-1.321 3.6633,-2.4019 4.25,-2.4019 0.5867,0 1.0667,-0.3739 1.0667,-0.831 0,-0.457 1.2375,-1.4558 2.75,-2.2194 1.5125,-0.7636 4.7653,-2.7522 7.2284,-4.419 2.4631,-1.6668 4.949,-3.2556 5.5242,-3.5306 0.5752,-0.275 7.4603,-4.55 15.3003,-9.5 7.84,-4.95 15.7448,-9.9 17.5662,-11 7.7454,-4.6776 20.2435,-12.336 27.4172,-16.8002 4.2425,-2.6402 9.1762,-5.504 10.9637,-6.364 1.7875,-0.86 3.25,-1.9624 3.25,-2.4497 0,-0.4873 0.469,-0.8861 1.0423,-0.8861 1.0855,0 5.3416,-2.6241 44.6934,-27.5564 28.9612,-18.3491 46.2551,-29.1631 51.6812,-32.3166 2.2457,-1.3052 9.1853,-5.4677 15.4214,-9.25 6.2361,-3.7823 11.7486,-6.877 12.25,-6.877 0.5014,0 0.9117,-0.4196 0.9117,-0.9326 0,-0.5129 0.9258,-1.2264 2.0573,-1.5855 2.5122,-0.7974 4.4883,-5.3363 2.9799,-6.8447 -0.5705,-0.5704 -1.0372,-5.0789 -1.0372,-10.0189 0,-14.733 5.9839,-28.5505 17.3805,-40.1334 4.6224,-4.698 16.2774,-12.4849 18.6866,-12.4849 0.528,0 1.7414,-0.3968 2.6965,-0.8818 3.2137,-1.6321 11.2238,-3.1182 16.8079,-3.1182 7.7505,0 13.7963,1.5778 21.9285,5.7226 10.5642,5.3843 14.378,8.3724 21.3963,16.7641 7.9783,9.5393 14.4529,35.2042 11.1036,44.0137 -1.3754,3.6174 0.029,5.8522 5.7685,9.1812 2.6024,1.5094 4.8816,3.0985 5.0649,3.5314 0.1834,0.4329 0.9158,0.787 1.6276,0.787 0.7118,0 1.876,0.701 2.587,1.5578 0.7111,0.8568 2.6787,2.1984 4.3725,2.9813 3.0844,1.4258 6.0354,3.0946 12.5796,7.1138 1.925,1.1823 5.075,3.0365 7,4.1204 4.8829,2.7496 25.187,15.1343 33,20.1287 3.575,2.2853 7.2875,4.4197 8.25,4.7432 0.9625,0.3235 1.75,0.9856 1.75,1.4715 0,0.4858 0.453,0.8833 1.0066,0.8833 0.5537,0 6.0662,3.305 12.25,7.3444 6.1839,4.0394 13.4934,8.5862 16.2434,10.104 2.75,1.5178 7.1385,4.2879 9.7523,6.1557 2.6138,1.8677 5.2013,3.3959 5.75,3.3959 0.5487,0 0.9977,0.45 0.9977,1 0,0.55 0.675,1 1.5,1 0.825,0 1.5,0.45 1.5,1 0,0.55 0.52,1 1.1556,1 0.6356,0 2.6306,1.125 4.4333,2.5 1.8027,1.375 3.4748,2.5 3.7158,2.5 0.8387,0 36.5969,22.0988 43.9048,27.1334 1.4902,1.0267 2.9387,1.8666 3.2188,1.8666 0.2801,0 3.6397,2.025 7.4656,4.5 3.826,2.475 7.234,4.5 7.5734,4.5 0.3394,0 1.1606,0.4498 1.8249,0.9994 1.6666,1.379 11.8246,8.0006 12.2735,8.0006 0.2005,0 4.2012,2.475 8.8903,5.5 4.6892,3.025 8.9798,5.5 9.5349,5.5 0.555,0 1.0091,0.3976 1.0091,0.8834 0,2.1889 4.1967,1.7574 7.7347,-0.7951 2.0709,-1.4941 5.2278,-3.3601 7.0153,-4.1465 1.7875,-0.7865 3.25,-1.7701 3.25,-2.1859 0,-0.4157 0.8734,-0.7559 1.941,-0.7559 1.0675,0 2.1793,-0.3856 2.4707,-0.857 0.6784,-1.0978 10.4761,-2.4673 17.5883,-2.4586 5.8734,0.01 13.2277,0.9945 16.5,2.2149 3.9737,1.4821 14.0417,6.6163 15.8675,8.0917 14.2129,11.4852 23.0699,30.6483 22.5407,48.7692 -0.6941,23.7733 -11.5317,41.8451 -31.2434,52.0988 l -6.4572,3.3589 -0.04,147.8234 -0.04,147.8235 4.186,2.1304 c 17.983,9.1523 28.1373,21.7137 32.5525,40.2692 1.2191,5.1235 1.5631,21.9728 0.4709,23.065 -0.3645,0.3645 -0.8217,2.127 -1.0161,3.9167 -0.7104,6.5422 -6.1541,18.2502 -11.7346,25.238 -3.6637,4.5876 -13.5726,11.7045 -21.0843,15.1435 -5.2036,2.3823 -6.93,2.6369 -18.1247,2.6729 -6.8052,0.022 -13.3867,-0.4408 -14.6254,-1.0283 -5.5445,-2.6298 -9.6402,-4.2722 -10.6533,-4.2722 -0.6044,0 -1.0989,-0.45 -1.0989,-1 0,-0.55 -0.6711,-1 -1.4914,-1 -0.8202,0 -3.5547,-1.575 -6.0765,-3.5 -2.5219,-1.925 -4.9148,-3.5 -5.3175,-3.5 -0.4028,0 -3.3478,1.575 -6.5446,3.5 -3.1968,1.925 -5.9782,3.5 -6.1809,3.5 -0.2028,0 -3.5279,2.025 -7.3891,4.5 -3.8613,2.475 -7.4659,4.5 -8.0102,4.5 -0.5444,0 -0.9898,0.45 -0.9898,1 0,0.55 -0.474,1 -1.0532,1 -0.5793,0 -4.0668,1.9615 -7.75,4.3589 -14.1298,9.19693 -21.2397,13.64114 -21.8231,13.64114 -0.3331,0 -2.691,1.52469 -5.2397,3.38819 -2.5487,1.8635 -6.209,4.27486 -8.134,5.35857 -1.925,1.08372 -5.525,3.18224 -8,4.66338 -2.475,1.48114 -5.7375,3.21843 -7.25,3.86066 -1.5125,0.64222 -2.75,1.51902 -2.75,1.94844 0,0.42942 -0.5673,0.78076 -1.2607,0.78076 -0.6934,0 -4.2792,2.025 -7.9686,4.5 -3.6893,2.475 -6.9366,4.5 -7.2161,4.5 -0.2795,0 -6.1541,3.6 -13.0546,8 -6.9005,4.4 -12.986,8 -13.5232,8 -0.5372,0 -0.9768,0.35499 -0.9768,0.78886 0,0.43387 -2.4647,2.07835 -5.4772,3.6544 -3.0124,1.57605 -6.3686,3.69607 -7.4582,4.71115 -1.0895,1.01508 -2.4498,1.84559 -3.0228,1.84559 -0.573,0 -1.0418,0.45 -1.0418,1 0,0.55 -0.6375,1 -1.4167,1 -0.7791,0 -1.5666,0.33958 -1.75,0.75462 -0.3903,0.8836 -9.6323,6.78684 -22.3333,14.26512 -4.95,2.91454 -11.3556,6.80241 -14.2346,8.63971 -2.8791,1.83731 -5.498,3.34055 -5.8198,3.34055 -0.3219,0 -2.6816,1.4625 -5.2438,3.25 -2.5622,1.7875 -5.1183,3.475 -5.6802,3.75 -2.0976,1.02659 -16.0408,9.45537 -16.5216,9.9874 -0.275,0.30432 -1.625,1.13019 -3,1.83525 -11.635,5.96614 -10.6519,4.09242 -11.3732,21.67735 -0.518,12.63059 -2.0746,18.99716 -6.2909,25.73013 -1.2848,2.05157 -2.3359,4.08903 -2.3359,4.5277 0,2.07999 -16.0685,16.01313 -21.523,18.66278 -3.2874,1.59689 -6.7956,3.30379 -7.7962,3.7931 -1.5688,0.76723 -17.2793,2.99384 -18.6808,2.64759 -0.275,-0.0679 -3.0654,-0.45277 -6.2009,-0.85517 z m -48.4375,-76.50613 c 0.3166,-0.825 0.1398,-1.5 -0.393,-1.5 -0.5327,0 -0.9686,0.675 -0.9686,1.5 0,0.825 0.1769,1.5 0.393,1.5 0.2162,0 0.652,-0.675 0.9686,-1.5 z m -4.3525,-3.98898 c -1.249,-1.505 -3.0091,-1.18446 -3.0091,0.548 0,0.51754 0.9551,0.94098 2.1224,0.94098 1.7663,0 1.9151,-0.24988 0.8867,-1.48898 z m 28.9318,-24.51928 c 2.5266,-2.24824 8.1299,-5.49576 12.9993,-7.53414 7.9207,-3.31568 9.3037,-3.57999 18.5591,-3.54695 10.6043,0.0379 13.0207,0.27605 14.1384,1.39374 0.3826,0.38259 1.7456,0.69561 3.029,0.69561 1.2833,0 2.3333,0.45 2.3333,1 0,0.55 0.7907,1 1.7571,1 0.9664,0 5.0056,2.475 8.9761,5.5 3.9704,3.025 7.666,5.5 8.2124,5.5 1.2268,0 7.2096,-3.32797 12.5494,-6.98063 6.6602,-4.55588 37.4346,-24.01937 37.9779,-24.01937 0.2786,0 3.6658,-2.025 7.5271,-4.5 3.8612,-2.475 7.1957,-4.5 7.4098,-4.5 0.2142,0 3.2471,-1.80094 6.7398,-4.00209 3.4927,-2.20116 7.2504,-4.44337 8.3504,-4.98271 1.1,-0.53933 3.8,-2.1086 6,-3.48726 2.2,-1.37866 4.9185,-2.91456 6.0411,-3.41312 1.1226,-0.49855 2.6402,-1.62834 3.3724,-2.51064 0.7323,-0.8823 1.9138,-1.60418 2.6256,-1.60418 0.7118,0 1.4442,-0.3375 1.6276,-0.75 0.1833,-0.4125 2.0967,-1.65 4.252,-2.75 6.8186,-3.47998 7.5813,-3.95653 7.5813,-4.73712 0,-0.41958 0.675,-0.76288 1.5,-0.76288 0.825,0 1.5,-0.45 1.5,-1 0,-0.55 0.5088,-1 1.1306,-1 0.6218,0 3.3228,-1.575 6.0023,-3.5 2.6794,-1.925 5.2832,-3.5 5.7861,-3.5 0.5029,0 1.0643,-0.3748 1.2477,-0.83289 0.4349,-1.08668 11.5775,-8.16711 12.8527,-8.16711 0.5393,0 0.9806,-0.45 0.9806,-1 0,-0.55 0.4631,-1 1.0291,-1 0.566,0 5.5366,-2.92504 11.0456,-6.50004 5.5091,-3.575 10.2459,-6.5 10.5262,-6.5 0.2804,0 3.9724,-2.1918 8.2044,-4.8706 4.2321,-2.6789 10.1697,-6.2248 13.1947,-7.8797 10.8224,-5.9206 15.5077,-8.6412 16,-9.2904 0.275,-0.3627 0.9501,-0.8393 1.5001,-1.0593 3.0469,-1.2184 15.4999,-9.2639 15.4999,-10.0139 0,-0.4873 0.436,-0.8861 0.9688,-0.8861 0.5329,0 4.0204,-1.9517 7.75,-4.3371 3.7297,-2.3855 7.5687,-4.6213 8.5312,-4.9686 2.0018,-0.7224 2.2684,-4.2876 0.7338,-9.8124 -0.8592,-3.0934 -1.6925,-3.8662 -5.7444,-5.3277 -4.5486,-1.6406 -6.5669,-2.4311 -11.4894,-4.4997 -1.2375,-0.52 -7.7333,-2.7633 -14.435,-4.9851 -6.7017,-2.2219 -13.6767,-4.676 -15.5,-5.4536 -4.0253,-1.7168 -7.6544,-3.1101 -23.815,-9.1428 -6.875,-2.5664 -13.4,-5.0288 -14.5,-5.4721 -5.9075,-2.3804 -13.331,-5.0069 -15.7611,-5.5763 -3.1163,-0.7302 -4.846,-2.912 -10.2464,-12.9246 -2.0765,-3.85 -4.2743,-7.675 -4.884,-8.5 -0.6097,-0.825 -1.6418,-2.4597 -2.2937,-3.6326 -0.6519,-1.173 -4.0276,-7.248 -7.5016,-13.5 -3.474,-6.2521 -7.2156,-13.1674 -8.3148,-15.3674 -1.0991,-2.2 -2.2234,-4.225 -2.4984,-4.5 -0.275,-0.275 -0.9911,-1.4 -1.5913,-2.5 -3.577,-6.5557 -7.9737,-14.3701 -10.4087,-18.5 -3.5719,-6.0579 -7.7114,-13.5278 -12.7152,-22.9449 -2.1757,-4.0948 -4.7048,-7.9174 -5.6201,-8.4948 -1.7041,-1.0749 -7.1224,4.0228 -25.5328,24.0221 -25.8266,28.0555 -38.3604,41.0014 -39.3732,40.6676 -0.4173,-0.1375 -0.7587,0.4655 -0.7587,1.3399 0,1.3113 -3.8198,5.987 -15.5,18.9733 -3.275,3.6413 -18.7167,20.5869 -22.5631,24.7608 l -4.5632,4.9515 -5.045,-5.3877 c -2.7748,-2.9633 -6.5714,-7.1878 -8.4369,-9.3878 -1.8655,-2.2 -4.5168,-5.1699 -5.8918,-6.5997 -4.2869,-4.458 -14.1438,-15.1147 -23,-24.8661 -10.7083,-11.7907 -9.2277,-10.137 -17.9581,-20.0585 -4.1019,-4.6616 -11.57,-12.7507 -16.5957,-17.9757 -5.0256,-5.225 -11.1195,-11.7346 -13.5419,-14.4658 -9.3801,-10.5761 -16.3216,-17.5342 -17.4923,-17.5342 -1.3061,0 -4.4222,4.9443 -10.7145,17 -2.153,4.125 -4.2551,7.95 -4.6714,8.5 -0.4162,0.55 -3.5671,6.4 -7.002,13 -3.4348,6.6 -6.6667,12.5218 -7.1819,13.1595 -0.5152,0.6377 -2.1671,3.5627 -3.6708,6.5 -5.3991,10.5461 -10.4634,17.9844 -11.3226,16.6301 -0.5655,-0.8913 -0.8229,-0.9262 -0.8335,-0.1129 -0.01,0.6472 -0.5778,1.3701 -1.2653,1.6065 -0.6875,0.2364 -0.4625,0.3115 0.5,0.1669 2.3338,-0.3505 2.2168,1.6718 -0.25,4.3196 -1.1,1.1807 -2,2.6155 -2,3.1885 0,0.573 -0.4359,1.0418 -0.9686,1.0418 -0.5328,0 -0.7157,0.6591 -0.4066,1.4646 0.309,0.8054 -0.2833,2.7179 -1.3164,4.25 -1.0331,1.532 -2.8921,4.8104 -4.1311,7.2854 -1.2389,2.475 -2.6335,5.175 -3.0991,6 -0.4655,0.825 -1.4246,2.7375 -2.1313,4.25 -0.7067,1.5125 -2.0823,2.75 -3.0569,2.75 -0.9746,0 -2.014,0.3916 -2.3097,0.8702 -0.2958,0.4785 -3.3599,1.9018 -6.8091,3.1629 -3.4491,1.261 -6.7212,2.6041 -7.2712,2.9847 -0.55,0.3806 -2.35,1.1743 -4,1.7637 -1.65,0.5894 -8.175,2.9519 -14.5,5.2499 -6.325,2.2981 -13.4125,4.657 -15.75,5.242 -2.3375,0.585 -4.25,1.4378 -4.25,1.8951 0,0.4574 -1.0984,0.8315 -2.441,0.8315 -1.3425,0 -2.7191,0.45 -3.059,1 -0.3399,0.55 -1.6265,1 -2.859,1 -1.2326,0 -2.6685,0.3576 -3.191,0.7947 -0.5225,0.437 -3.65,1.6107 -6.95,2.6082 -3.3,0.9975 -7.73,2.6649 -9.8445,3.7054 -2.1145,1.0404 -4.417,1.8917 -5.1167,1.8917 -2.5229,0 -12.0775,4.3355 -13.7888,6.2568 -1.7829,2.0018 -2.4147,9.2482 -0.9847,11.2947 1.5234,2.1803 28.3368,19.4485 30.1988,19.4485 0.5697,0 1.0359,0.3873 1.0359,0.8607 0,0.4734 2.5875,2.2698 5.75,3.992 6.4363,3.5051 6.7225,3.6734 24.199,14.2254 6.9031,4.168 13.676,8.218 15.051,9 1.375,0.7821 2.725,1.6685 3,1.9699 0.275,0.3014 4.2523,2.7764 8.8383,5.50001 4.5861,2.72362 9.5361,5.74478 11,6.71369 1.464,0.9689 3.4492,2.03389 4.4117,2.36663 0.9625,0.33274 1.75,1.00249 1.75,1.48835 0,0.48585 0.4569,0.88336 1.0154,0.88336 1.2036,0 12.3357,7.16488 12.8179,8.25 0.1834,0.4125 0.9709,0.75 1.75,0.75 0.7792,0 1.4167,0.45 1.4167,1 0,0.55 0.4457,1 0.9905,1 0.5447,0 6.1887,3.375 12.5421,7.5 6.3534,4.125 11.8762,7.5 12.2729,7.5 0.3966,0 3.0599,1.575 5.9184,3.5 2.8585,1.925 5.4616,3.5 5.7847,3.5 0.3231,0 3.0496,1.575 6.0589,3.5 3.0092,1.925 5.6789,3.5 5.9325,3.5 0.2536,0 2.9233,1.575 5.9325,3.5 3.0093,1.925 5.7481,3.5 6.0862,3.5 0.3381,0 2.0472,1.07137 3.798,2.38082 1.7508,1.30945 5.2083,3.47804 7.6833,4.8191 8.2693,4.48061 11.1595,6.27763 15.3441,9.54038 2.2858,1.78216 4.7184,3.24466 5.4059,3.25 0.6875,0.005 1.25,0.4597 1.25,1.0097 0,0.55 0.48,1 1.0667,1 0.5867,0 2.5417,1.125 4.3444,2.5 1.8027,1.375 3.728,2.5 4.2783,2.5 0.5503,0 1.8151,0.9 2.8106,2 0.9955,1.1 2.4152,2 3.155,2 0.7397,0 1.345,0.45 1.345,1 0,2.15963 3.7144,0.7525 7.9409,-3.00826 z m 53.5591,-2.99174 c 0.3399,-0.55 -0.083,-1 -0.941,-1 -0.8574,0 -1.559,0.45 -1.559,1 0,0.55 0.4234,1 0.941,1 0.5175,0 1.2191,-0.45 1.559,-1 z m 153.9929,-40.98854 c 0.3504,-0.56686 -0.051,-0.73451 -0.941,-0.39301 -1.7324,0.66479 -2.0494,1.38155 -0.6109,1.38155 0.5175,0 1.2159,-0.44484 1.5519,-0.98854 z m 6.5071,-2.45244 c 0,-0.24254 -0.45,-0.7191 -1,-1.05902 -0.55,-0.33991 -1,-0.14147 -1,0.44099 0,0.58246 0.45,1.05901 1,1.05901 0.55,0 1,-0.19844 1,-0.44098 z m -327,-7.5 c 0,-1.17986 -1.9504,-2.44199 -2.6667,-1.72568 -0.7163,0.71631 0.5459,2.66666 1.7257,2.66666 0.5176,0 0.941,-0.42344 0.941,-0.94098 z m 293,-0.55902 c 0,-0.825 -0.45,-1.5 -1,-1.5 -0.55,0 -1,0.675 -1,1.5 0,0.825 0.45,1.5 1,1.5 0.55,0 1,-0.675 1,-1.5 z m 13,-9.05901 c 0,-0.85746 -0.45,-1.2809 -1,-0.94099 -0.55,0.33992 -1,1.04148 -1,1.55902 0,0.51754 0.45,0.94098 1,0.94098 0.55,0 1,-0.70155 1,-1.55901 z m -503.5,-37.44103 c -0.3399,-0.55 -1.0415,-1 -1.559,-1 -0.5176,0 -0.941,0.45 -0.941,1 0,0.55 0.7016,1 1.559,1 0.8575,0 1.2809,-0.45 0.941,-1 z m 28.1042,-1.7291 c -1.0166,-1.0165 -1.8553,0.5139 -1.0213,1.8634 0.6301,1.0194 0.8656,1.0202 1.2043,0 0.2316,-0.6948 0.1493,-1.5351 -0.183,-1.8674 z m -2.6042,0.1222 c 0,-0.2162 -0.675,-0.3931 -1.5,-0.3931 -0.825,0 -1.5,0.4359 -1.5,0.9687 0,0.5327 0.675,0.7096 1.5,0.393 0.825,-0.3166 1.5,-0.7525 1.5,-0.9686 z m 8,-1.3931 c 0,-0.55 -0.675,-1 -1.5,-1 -0.825,0 -1.5,0.45 -1.5,1 0,0.55 0.675,1 1.5,1 0.825,0 1.5,-0.45 1.5,-1 z m 26,-10.5 c 0,-0.825 -0.4019,-1.5 -0.893,-1.5 -0.4912,0 -1.152,0.675 -1.4686,1.5 -0.3507,0.9138 0,1.5 0.893,1.5 0.8077,0 1.4686,-0.675 1.4686,-1.5 z m 520.7292,0.8959 c -0.3323,-0.3323 -1.1948,-0.3678 -1.9167,-0.079 -0.7977,0.3193 -0.5608,0.5562 0.6042,0.6042 1.0541,0.043 1.6448,-0.1929 1.3125,-0.5252 z m 6.2708,-1.8642 c 0,-0.7906 -0.9024,-1.0818 -2.4411,-0.7877 -1.9217,0.3674 -2.1888,0.7367 -1.2552,1.7361 1.3779,1.475 3.6963,0.8802 3.6963,-0.9484 z m -491,-4.5317 c 0,-0.55 -0.4766,-1 -1.059,-1 -0.5825,0 -0.7809,0.45 -0.441,1 0.3399,0.55 0.8165,1 1.059,1 0.2426,0 0.441,-0.45 0.441,-1 z m -16,-6.8333 c 0,-1.3021 -1.1888,-2.168 -2.1558,-1.5704 -1.0342,0.6392 -0.1424,2.4037 1.2148,2.4037 0.5176,0 0.941,-0.375 0.941,-0.8333 z m 646.6831,-22.3542 c -0.3192,-0.7977 -0.5562,-0.5607 -0.6042,0.6042 -0.043,1.0542 0.193,1.6448 0.5253,1.3125 0.3323,-0.3323 0.3678,-1.1948 0.079,-1.9167 z m -657.1831,-42.9547 c 1.65,-0.602 4.9076,-1.9412 7.2391,-2.9761 2.3315,-1.0349 4.6095,-1.8817 5.0622,-1.8817 0.4527,0 2.6858,-0.9 4.9626,-2 2.2767,-1.1 4.6065,-2 5.1773,-2 1.1007,0 10.2932,-3.4165 21.3088,-7.9198 3.4965,-1.4294 15.2962,-5.6182 25.7233,-9.1316 10.4643,-3.526 13.948,-5.5668 13.9953,-8.1986 0.017,-0.9625 0.3747,-1.75 0.7943,-1.75 0.4195,0 1.2235,-1.0125 1.7866,-2.25 0.563,-1.2375 1.5535,-2.1429 2.2011,-2.012 0.6734,0.1362 0.9302,-0.4062 0.5998,-1.2672 -0.5963,-1.5539 4.566,-12.4642 5.8996,-12.4684 0.4125,0 0.75,-0.676 0.75,-1.4993 0,-0.8233 1.8675,-4.9858 4.15,-9.25 2.2825,-4.2642 5.5743,-10.4531 7.3151,-13.7531 1.7408,-3.3 5.4983,-9.7075 8.35,-14.239 2.8517,-4.5315 5.1849,-8.6565 5.1849,-9.1667 0,-0.5102 0.3375,-1.0776 0.75,-1.2609 0.4125,-0.1834 1.6457,-2.1334 2.7404,-4.3334 1.0948,-2.2 2.2198,-4.225 2.5,-4.5 0.2803,-0.275 2.2612,-3.875 4.402,-8 2.1408,-4.125 5.1783,-9.8381 6.75,-12.6959 1.5717,-2.8578 2.8576,-5.6541 2.8576,-6.214 0,-0.56 -2.4006,-3.6218 -5.3347,-6.8041 -2.9341,-3.1823 -7.0966,-7.8061 -9.25,-10.2753 -5.2457,-6.0147 -7.3077,-8.2666 -28.248,-30.8487 l -3.3328,-3.594 -1.7355,2.3008 c -0.9545,1.2655 -2.6048,3.9431 -3.6673,5.9504 -2.9055,5.4894 -11.5283,20.5406 -12.4209,21.6808 -0.4306,0.55 -3.3803,5.95 -6.5551,12 -6.3976,12.1918 -7.9557,15.0287 -13.4557,24.5 -3.9483,6.7992 -5.5226,9.5955 -10.9783,19.5 -1.8177,3.3 -4.1412,7.1945 -5.1633,8.6544 -1.0221,1.4599 -1.8584,2.8953 -1.8584,3.1898 0,0.2945 -2.2491,4.275 -4.9981,8.8456 -2.7489,4.5707 -4.9989,8.8352 -5,9.4769 0,0.6417 -0.3434,1.3167 -0.7608,1.5 -0.4174,0.1833 -1.9167,2.5833 -3.3317,5.3333 -7.6721,14.9104 -14.3758,27.3091 -16.0334,29.6544 -1.0318,1.4599 -1.876,2.9018 -1.876,3.2043 0,0.3025 -2.25,4.4601 -5,9.2391 -2.75,4.7791 -5,9.0747 -5,9.5457 0,0.4711 -0.3529,0.8565 -0.7842,0.8565 -0.4313,0 -2.1188,2.6926 -3.75,5.9836 -1.6312,3.2909 -3.3033,5.9909 -3.7158,6 -0.8602,0.019 -1.0285,4.4046 -0.2007,5.2324 0.6258,0.6258 7.4778,-0.7263 11.9507,-2.3582 z m 560.9848,2.1669 c 0.6752,-1.0925 -1.8559,-5.8837 -14.5408,-27.5247 -2.9015,-4.95 -6.3652,-11.025 -7.6972,-13.5 -1.332,-2.475 -3.6734,-6.75 -5.203,-9.5 -1.5297,-2.75 -4.3614,-7.925 -6.2927,-11.5 -6.5816,-12.1832 -9.0358,-16.4982 -10.8941,-19.1543 -1.0213,-1.4599 -1.857,-2.9314 -1.857,-3.2699 0,-0.3385 -1.0593,-2.2941 -2.354,-4.3456 -1.2946,-2.0516 -4.7821,-8.4552 -7.75,-14.2302 -2.9678,-5.775 -5.7422,-10.95 -6.1652,-11.5 -2.1887,-2.8451 -13.2643,-22.1769 -32.6566,-57 -7.5914,-13.6319 -11.637,-20.4904 -12.0742,-20.4696 -0.774,0.037 -7.1614,6.1841 -10.5,10.1053 -9.5741,11.2447 -13.215,15.4358 -15.0201,17.2896 -7.6082,7.8141 -19.3249,21.511 -19.8699,23.2282 -0.4121,1.2983 -0.09,2.533 0.8674,3.3278 0.8374,0.695 1.5226,1.8925 1.5226,2.6611 0,0.7685 1.125,3.1795 2.5,5.3576 1.375,2.1782 2.5,4.1297 2.5,4.3367 0,0.207 2.153,4.1534 4.7844,8.7698 2.6314,4.6165 6.5689,11.9935 8.75,16.3935 2.1811,4.4 4.2258,8.225 4.5439,8.5 0.3181,0.275 1.2667,1.85 2.108,3.5 4.271,8.377 7.3195,14.0516 7.7896,14.5 0.2883,0.275 1.0146,1.4 1.6141,2.5 0.5995,1.1 2.3531,4.25 3.8969,7 1.5438,2.75 5.2815,9.725 8.306,15.5 6.8311,13.0434 9.2606,16.3654 13.1462,17.9748 1.6835,0.6973 3.0609,1.5508 3.0609,1.8966 0,0.3457 1.0125,0.6741 2.25,0.7297 1.2375,0.056 6.075,1.5665 10.75,3.3576 8.6853,3.3274 17.7824,6.5823 35.5,12.7017 9.9818,3.4476 13.4579,4.7885 16.7364,6.4563 0.9551,0.4858 2.5526,0.8833 3.55,0.8833 0.9975,0 2.2411,0.4092 2.7636,0.9093 0.8228,0.7875 12.7194,4.8784 14.641,5.0346 0.38,0.031 0.9622,-0.3828 1.2938,-0.9192 z m -597.1743,-31.7747 c 1.2846,-2.0625 2.6307,-4.425 2.9914,-5.25 0.3606,-0.825 1.757,-3.3 3.103,-5.5 1.346,-2.2 3.9268,-6.925 5.735,-10.5 1.8082,-3.575 3.6415,-6.65 4.0739,-6.8333 0.4324,-0.1833 0.7862,-0.8686 0.7862,-1.5228 0,-0.6542 1.4718,-3.4292 3.2708,-6.1667 1.7989,-2.7374 4.5493,-7.4522 6.1119,-10.4772 1.5626,-3.025 3.4657,-6.2104 4.2292,-7.0787 0.7635,-0.8683 1.3881,-2.3308 1.3881,-3.25 0,-0.9192 0.3569,-1.6713 0.793,-1.6713 0.4362,0 2.7987,-3.9375 5.25,-8.75 2.4514,-4.8125 4.7158,-8.975 5.032,-9.25 0.3163,-0.275 2.5663,-4.325 5,-9 2.4338,-4.675 4.65,-8.725 4.925,-9 0.275,-0.275 0.9905,-1.4 1.59,-2.5 3.2228,-5.9137 7.032,-12.6412 13.8404,-24.4444 4.1633,-7.2175 7.5696,-13.5201 7.5696,-14.0058 0,-0.4857 0.3375,-1.0331 0.75,-1.2164 0.4125,-0.1834 1.9233,-2.5834 3.3572,-5.3334 4.1717,-8.0001 6.3562,-11.9618 6.8928,-12.5 0.275,-0.2758 1.2001,-1.8511 2.0557,-3.5007 4.1588,-8.0177 7.4841,-14.0478 7.9955,-14.4993 0.3116,-0.275 2.1684,-3.425 4.1263,-7 5.3118,-9.6989 8.0677,-14.5819 13.7118,-24.2957 2.8109,-4.8376 5.1107,-9.0159 5.1107,-9.2852 0,-0.2692 0.7331,-1.6083 1.6292,-2.9758 l 1.6291,-2.4864 8.958,9.2716 c 4.9269,5.0993 11.9563,12.6237 15.6209,16.7209 3.6645,4.0971 7.3378,8.1818 8.1628,9.077 5.6615,6.1432 18.8902,20.7222 21.1117,23.2666 1.492,1.7089 2.4322,3.7322 2.1164,4.5549 -0.3886,1.0126 -0.1665,1.2321 0.7031,0.6947 0.841,-0.5198 3.2732,1.2859 7.1873,5.3359 3.2539,3.3669 6.4709,6.1073 7.1489,6.0899 1.225,-0.031 6.7326,-8.2366 6.7326,-10.0302 0,-0.516 0.3477,-0.9382 0.7726,-0.9382 0.4249,0 1.6624,-1.6758 2.75,-3.7241 1.0876,-2.0483 5.065,-9.1358 8.8387,-15.75 3.7736,-6.6142 8.6688,-15.4009 10.878,-19.5259 2.2093,-4.125 5.0329,-9.3 6.2748,-11.5 2.8432,-5.0366 6.262,-11.1732 14.485,-26 1.8302,-3.3 4.2151,-7.575 5.2997,-9.5 1.0847,-1.925 3.2002,-5.75 4.7012,-8.5 1.501,-2.75 3.751,-6.8 5,-9 2.4769,-4.3626 5.9417,-10.6833 10.9636,-20 1.7787,-3.3 4.0298,-7.35 5.0023,-9 2.1884,-3.7128 7.8155,-13.9715 9.8734,-18 0.8429,-1.65 2.9249,-5.25 4.6267,-8 1.7018,-2.75 3.7556,-6.35 4.5641,-8 0.8084,-1.65 2.0324,-3.5946 2.7199,-4.3214 0.6875,-0.7268 1.25,-1.9643 1.25,-2.75 0,-0.7857 0.45,-1.4286 1,-1.4286 0.55,0 1,-0.4699 1,-1.0443 0,-1.4987 7.3012,-13.9878 7.8541,-13.4349 0.254,0.254 1.0188,-3e-4 1.6994,-0.5651 0.9295,-0.7715 2.5356,1.2834 6.4544,8.2586 7.6951,13.6967 9.2366,16.4857 13.9755,25.2857 2.3695,4.4 5.0448,9.125 5.9452,10.5 0.9004,1.375 2.4178,4.075 3.3719,6 0.9541,1.925 3.2096,6.2 5.0123,9.5 1.8027,3.3 5.1123,9.375 7.3547,13.5 2.2425,4.125 5.44,9.8067 7.1057,12.6259 2.6239,4.4411 6.9278,12.0788 10.6355,18.8741 0.6002,1.1 1.3163,2.2254 1.5913,2.5008 0.5364,0.5372 2.7193,4.4956 6.8928,12.4992 1.4339,2.75 2.8322,5.225 3.1072,5.5 0.275,0.275 1.3957,2.3 2.4904,4.5 1.0948,2.2 2.2198,4.225 2.5,4.5 0.554,0.5436 0.8699,1.1032 6.4923,11.5 2.0821,3.85 4.5691,8.35 5.5269,10 0.9577,1.65 4.4397,8.175 7.7377,14.5 7.4983,14.3804 10.1228,19.0953 11.6893,21 0.6786,0.825 2.2102,3.6375 3.4037,6.25 1.1935,2.6125 2.6614,4.75 3.2621,4.75 0.6006,0 3.1858,-2.3321 5.7448,-5.1826 2.5591,-2.8504 7.5778,-8.1741 11.1528,-11.8303 3.575,-3.6562 8.075,-8.5139 10,-10.7948 4.0187,-4.7616 5.3048,-5.255 4.4106,-1.6923 -0.8122,3.2362 0.9302,3.2423 2.4036,0.01 0.8761,-1.9229 0.8557,-2.4365 -0.09,-2.25 -0.6736,0.1328 -1.2247,-0.4335 -1.2247,-1.2585 0,-1.09 0.8882,-1.4141 3.25,-1.186 2.3158,0.2237 3.25,-0.1025 3.25,-1.135 0,-0.7969 1.1699,-2.2155 2.5997,-3.1523 1.9834,-1.2996 2.4846,-2.3056 2.1141,-4.2435 -0.6073,-3.177 4.8436,-9.6174 6.2347,-7.3665 1.2675,2.0509 3.2935,0.1835 2.6373,-2.4309 -0.4986,-1.9863 -0.2734,-2.218 1.669,-1.7175 1.9159,0.4937 2.0622,0.3552 0.9978,-0.9441 -1.0386,-1.268 -0.66,-2.1275 2.2629,-5.1371 2.2384,-2.3049 4.0762,-3.3972 5.0724,-3.015 0.9874,0.379 1.4909,0.09 1.3686,-0.7863 -0.4334,-3.1044 0.076,-4.0102 1.9251,-3.4233 1.2038,0.382 2.1002,0.027 2.4885,-0.9846 0.3505,-0.9134 0.1893,-1.3236 -0.3816,-0.9708 -1.9048,1.1773 -0.9613,-0.7741 2.0115,-4.1598 2.4297,-2.7673 3,-3.0533 3,-1.5045 0,1.0518 0.675,2.4726 1.5,3.1572 0.825,0.6847 1.5,1.8648 1.5,2.6225 0,0.7576 0.3513,1.3775 0.7808,1.3775 0.4294,0 1.3062,1.2375 1.9484,2.75 0.6422,1.5125 2.3721,4.775 3.8441,7.25 2.9285,4.9241 9.2748,15.9252 13.2681,23 1.397,2.475 2.7917,4.725 3.0993,5 0.3076,0.275 1.8843,3.2 3.5038,6.5 1.6194,3.3 4.3262,8.25 6.0151,11 1.6889,2.75 3.9639,6.8 5.0555,9 1.0917,2.2 2.261,4.225 2.5983,4.5 0.5321,0.4337 6.6442,11.8706 16.5501,30.9685 1.5601,3.0077 3.624,6.3551 4.5865,7.4386 0.9625,1.0835 1.75,2.5051 1.75,3.1591 0,0.6539 0.675,1.7492 1.5,2.4338 0.825,0.6847 1.5,2.0898 1.5,3.1225 0,1.0326 0.4414,1.8775 0.9809,1.8775 0.5396,0 1.2633,1.125 1.6085,2.5 0.3451,1.375 0.9526,2.5 1.35,2.5 0.3975,0 1.3542,1.2375 2.126,2.75 0.7719,1.5125 4.6627,8.4557 8.6463,15.4292 9.5813,16.7727 10.296,18.0525 15.2737,27.3514 2.3463,4.3832 4.5992,8.4194 5.0065,8.9694 0.4073,0.55 1.8518,3.025 3.21,5.5 7.5423,13.7436 9.2365,16.7271 10.7892,19 0.9394,1.375 2.5372,4.4125 3.5509,6.75 1.0136,2.3375 2.4313,4.25 3.1504,4.25 1.035,0 1.3124,-4.4296 1.3308,-21.25 0.2131,-195.244 -0.099,-264.1361 -1.2017,-265.465 -0.6611,-0.7966 -2.8039,-2.2147 -4.7618,-3.1512 -2.5833,-1.2358 -3.4682,-2.2419 -3.2261,-3.6683 0.2568,-1.5132 0.057,-1.6969 -0.8672,-0.7983 -0.918,0.8923 -2.0362,0.6978 -4.7496,-0.8262 -6.7837,-3.8102 -15.0772,-14.6737 -18.9644,-24.841 -4.0892,-10.6958 -4.4663,-12.9668 -4.1064,-24.7282 0.293,-9.5762 0.096,-11.6724 -1.146,-12.1742 -0.825,-0.3334 -6.1877,-3.7543 -11.9171,-7.6019 -5.7294,-3.8476 -11.2419,-7.4399 -12.25,-7.9828 -1.0081,-0.5429 -1.8329,-1.3304 -1.8329,-1.75 0,-0.4196 -0.4716,-0.7629 -1.048,-0.7629 -0.5765,0 -3.5102,-1.575 -6.5195,-3.5 -3.0092,-1.925 -5.683,-3.5 -5.9417,-3.5 -0.2587,0 -3.6296,-2.025 -7.4908,-4.5 -3.8613,-2.475 -7.2591,-4.5 -7.5507,-4.5 -0.2917,0 -1.7496,-0.8399 -3.2398,-1.8666 -5.272,-3.632 -22.2335,-14.1334 -22.8278,-14.1334 -0.3316,0 -3.4997,-2.025 -7.0402,-4.5 -3.5405,-2.475 -6.6253,-4.5 -6.855,-4.5 -0.2297,0 -4.2147,-2.475 -8.8554,-5.5 -4.6408,-3.025 -8.819,-5.5 -9.2849,-5.5 -0.4659,0 -2.7474,-1.737 -5.0699,-3.86 -2.3226,-2.123 -4.4159,-3.667 -4.6519,-3.4311 -0.2359,0.236 -4.3136,-2.077 -9.0615,-5.1399 -4.7479,-3.0629 -8.8262,-5.569 -9.0629,-5.569 -0.2367,0 -4.2669,-2.475 -8.956,-5.5 -4.6892,-3.025 -8.7885,-5.5 -9.1098,-5.5 -0.3212,0 -3.5878,-1.9239 -7.2591,-4.2753 -3.6713,-2.3515 -10.0501,-6.251 -14.1751,-8.6657 -10.5651,-6.1846 -24.5005,-14.8068 -38.5088,-23.8266 -6.6048,-4.2528 -13.6312,-8.5893 -15.6143,-9.6367 l -3.6056,-1.9044 -3.3857,2.5531 c -12.7058,9.5814 -28.4121,13.1446 -45.3856,10.2965 -6.2068,-1.0414 -18.0654,-6.694 -22.2519,-10.6066 -3.2238,-3.013 -5.6538,-3.7049 -6.7547,-1.9235 -0.5667,0.9169 -26.5551,19.1078 -30.7006,21.4892 -0.9574,0.55 -6.1399,3.6681 -11.5168,6.9291 -26.9774,16.3615 -32.4416,19.5709 -33.321,19.5709 -0.5252,0 -0.955,0.3492 -0.955,0.7759 0,0.4268 -2.0207,1.6643 -4.4905,2.75 -2.4698,1.0858 -4.4948,2.3116 -4.5,2.7241 -0.01,0.4125 -0.6845,0.75 -1.5095,0.75 -0.825,0 -1.5,0.45 -1.5,1 0,0.55 -0.675,1 -1.5,1 -0.825,0 -1.5,0.3402 -1.5,0.7559 0,0.4158 -1.4625,1.3927 -3.25,2.171 -1.7875,0.7782 -4.6425,2.4631 -6.3444,3.7441 -1.7019,1.281 -3.6144,2.329 -4.25,2.329 -0.6356,0 -1.1556,0.3555 -1.1556,0.79 0,0.4344 -2.25,2.104 -5,3.71 -2.75,1.6061 -5,3.2232 -5,3.5935 0,0.3703 -0.7875,0.9385 -1.75,1.2626 -2.391,0.8051 -5.61,2.7882 -20.9751,12.9217 -7.2737,4.7972 -13.4927,8.7222 -13.8198,8.7222 -0.3271,0 -2.7008,1.4552 -5.2749,3.2337 -6.5328,4.5136 -20.3278,12.7663 -21.3398,12.7663 -0.4622,0 -0.8404,0.45 -0.8404,1 0,0.55 -0.4413,1 -0.9806,1 -0.5393,0 -3.4427,1.575 -6.4519,3.5 -3.0093,1.925 -5.704,3.5 -5.9883,3.5 -0.5968,0 -14.8291,9.0696 -15.5792,9.9279 -0.6867,0.7858 -3.864,2.6956 -7.75,4.6584 -1.7875,0.9029 -3.25,2.0404 -3.25,2.5277 0,0.4873 -0.675,0.886 -1.5,0.886 -0.825,0 -1.5,0.45 -1.5,1 0,0.55 -0.675,1 -1.5,1 -0.825,0 -1.5,0.45 -1.5,1 0,0.55 -0.6274,1 -1.3942,1 -0.7669,0 -2.7394,1.2566 -4.3835,2.7924 -2.8889,2.6987 -2.9594,2.9755 -2.098,8.25 1.7825,10.9147 -1.433,26.9831 -7.4563,37.2612 -2.8709,4.8988 -13.8643,16.6964 -15.5583,16.6964 -0.6103,0 -1.1097,0.4415 -1.1097,0.981 0,0.5395 -1.125,1.2633 -2.5,1.6084 -1.375,0.3451 -2.5,1.0287 -2.5,1.5191 0,0.4903 -0.6059,0.8915 -1.3464,0.8915 -0.7405,0 -2.7655,0.708 -4.5,1.5733 -2.8484,1.4209 -3.159,2.0259 -3.2093,6.25 -0.4926,41.4048 -0.2424,283.1768 0.2932,283.1768 0.4056,0 1.7884,-1.6876 3.073,-3.7501 z m 459.6895,-178.687 c 0,-0.7219 7.4118,-7.4845 7.7893,-7.107 0.6924,0.6924 -2.2996,4.544 -3.5298,4.544 -0.6927,0 -1.2595,0.675 -1.2595,1.5 0,0.825 -0.675,1.5 -1.5,1.5 -0.825,0 -1.5,-0.1966 -1.5,-0.437 z m -114.5748,167.3159 c -0.6481,-1.0485 -2.4252,-0.2068 -2.4252,1.1488 0,0.5003 0.6724,0.6515 1.4943,0.3362 0.8218,-0.3154 1.2407,-0.9836 0.9309,-1.485 z m -212.4252,-8.8789 c 0,-0.55 -0.1984,-1 -0.441,-1 -0.2425,0 -0.7191,0.45 -1.059,1 -0.3399,0.55 -0.1415,1 0.441,1 0.5824,0 1.059,-0.45 1.059,-1 z m 188.9345,-9.9268 c 5.811,-6.0097 11.6763,-12.3696 13.0339,-14.1329 1.3576,-1.7634 4.2826,-5.1022 6.5,-7.4195 2.2174,-2.3174 5.0129,-5.2951 6.2123,-6.6171 1.1993,-1.322 2.7743,-2.9076 3.5,-3.5235 0.7256,-0.6159 3.6406,-3.6014 6.4777,-6.6344 5.9058,-6.3135 8.0099,-7.9297 7.0429,-5.4098 -0.3512,0.9152 -0.1744,1.664 0.3929,1.664 0.5674,0 0.9514,-0.7875 0.8535,-1.75 -0.384,-3.7754 0.01,-4.3995 2.2945,-3.6731 1.8504,0.5873 2.0382,0.466 1.0752,-0.6944 -0.9278,-1.118 -0.4533,-2.223 2.3166,-5.3942 5.5618,-6.3679 16.7063,-18.496 22.7737,-24.7837 5.3224,-5.5158 6.6035,-7.9616 4.7654,-9.0976 -0.4548,-0.281 -3.0318,-4.8076 -5.7267,-10.059 -2.695,-5.2514 -5.2479,-9.548 -5.6732,-9.548 -0.4252,0 -0.7732,-0.667 -0.7732,-1.4823 0,-0.8154 -1.868,-4.5279 -4.151,-8.25 -3.6661,-5.977 -6.645,-11.1362 -10.259,-17.7677 -0.5995,-1.1 -1.3671,-2.225 -1.7057,-2.5 -0.3386,-0.275 -1.6279,-2.525 -2.865,-5 -1.2372,-2.475 -3.7122,-6.975 -5.5,-10 -1.7878,-3.025 -5.2722,-9.325 -7.7431,-14 -2.471,-4.675 -6.6983,-12.325 -9.3942,-17 -2.6958,-4.675 -6.2471,-11.1868 -7.8918,-14.4706 -1.6446,-3.2839 -3.4402,-6.4672 -3.9902,-7.0741 -0.55,-0.6068 -2.1203,-3.545 -3.4895,-6.5293 -1.3692,-2.9843 -2.796,-5.6555 -3.1707,-5.936 -0.3747,-0.2805 -0.9907,-1.743 -1.3689,-3.25 -0.3783,-1.507 -1.0889,-2.74 -1.5793,-2.74 -0.4904,0 -0.8916,-0.675 -0.8916,-1.5 0,-0.825 -0.3596,-1.5 -0.7991,-1.5 -0.4395,0 -1.3669,-1.5702 -2.0609,-3.4895 -0.694,-1.9192 -1.7969,-4.0757 -2.4509,-4.7922 -1.7478,-1.9148 -3.6674,-4.9828 -4.3167,-6.8991 -0.7593,-2.2409 -3.5434,-3.223 -4.5636,-1.6097 -2.0766,3.2837 -5.9915,10.2016 -9.5792,16.927 -2.1604,4.0499 -4.8224,8.9385 -5.9155,10.8635 -2.3938,4.2157 -8.1571,14.5347 -10.0534,18 -0.7524,1.375 -2.3186,4.075 -3.4806,6 -1.1619,1.925 -3.1107,5.3 -4.3307,7.5 -1.2199,2.2 -4.5119,8.05 -7.3155,13 -2.8037,4.95 -5.1057,9.525 -5.1157,10.1667 -0.01,0.6417 -0.3999,1.3167 -0.8664,1.5 -0.7908,0.3108 -1.9567,2.2477 -8.7787,14.5833 -1.4448,2.6125 -5.4283,9.7 -8.8523,15.75 -3.424,6.05 -7.8823,14.0513 -9.9074,17.7807 -2.0251,3.7293 -4.5665,8.3418 -5.6477,10.25 -1.0811,1.9081 -2.9202,5.1568 -4.0867,7.2193 -1.1666,2.0625 -2.7076,4.5892 -3.4246,5.6148 -1.7998,2.5749 -0.9728,4.2224 5.5899,11.1352 3.1328,3.3 7.667,8.1986 10.0759,10.8857 2.4089,2.6871 7.3602,8.0871 11.0029,12 3.6427,3.9129 8.6649,9.3201 11.1604,12.016 2.7633,2.9851 4.3146,5.4822 3.9676,6.3865 -0.3684,0.9599 -0.085,1.3232 0.8012,1.0277 1.4454,-0.4818 2.8694,0.8911 20.4477,19.7147 19.6837,21.0782 23.9775,25.3694 25.4345,25.4198 0.7889,0.027 6.1889,-4.8674 12,-10.8772 z m 36.0655,7.9268 c 0,-0.55 -0.4234,-1 -0.941,-1 -0.5175,0 -1.2191,0.45 -1.559,1 -0.3399,0.55 0.083,1 0.941,1 0.8574,0 1.559,-0.45 1.559,-1 z m 4.5907,-4.7426 c -0.6935,-0.6935 -2.5907,0.7156 -2.5907,1.9241 0,0.6631 0.5738,0.5872 1.5242,-0.2015 0.8383,-0.6957 1.3182,-1.4709 1.0665,-1.7226 z m -26.5907,-11.726 c 0,-0.8946 -0.5863,-1.2436 -1.5,-0.893 -0.825,0.3166 -1.5,0.9775 -1.5,1.4686 0,0.4912 0.675,0.893 1.5,0.893 0.825,0 1.5,-0.6608 1.5,-1.4686 z m -277.8186,-5.2575 -0.5503,-2.7739 -0.658,2.5 c -0.7192,2.7323 -0.2895,4.3136 0.9619,3.5402 0.4382,-0.2708 0.5491,-1.7407 0.2464,-3.2663 z m 414.8186,-3.2739 c 0,-0.55 -0.1984,-1 -0.441,-1 -0.2425,0 -0.7191,0.45 -1.059,1 -0.3399,0.55 -0.1415,1 0.441,1 0.5824,0 1.059,-0.45 1.059,-1 z m -439.6507,-2.4679 c 0.3099,-0.8074 0.133,-1.734 -0.393,-2.059 -0.526,-0.3251 -0.9563,0.3355 -0.9563,1.4679 0,2.4146 0.5561,2.6582 1.3493,0.5911 z m 32.6507,-0.973 c 0,-0.2426 -0.45,-0.7191 -1,-1.0591 -0.55,-0.3399 -1,-0.1414 -1,0.441 0,0.5825 0.45,1.059 1,1.059 0.55,0 1,-0.1984 1,-0.4409 z m 104,-28.5591 c 0,-0.55 -0.4766,-1 -1.059,-1 -0.5825,0 -0.7809,0.45 -0.441,1 0.3399,0.55 0.8165,1 1.059,1 0.2426,0 0.441,-0.45 0.441,-1 z m 202.6831,-2.1875 c -0.3192,-0.7977 -0.5562,-0.5607 -0.6042,0.6042 -0.043,1.0542 0.193,1.6448 0.5253,1.3125 0.3323,-0.3323 0.3678,-1.1948 0.079,-1.9167 z m 166.1333,-2.4853 c -0.174,-1.4701 -0.8027,-2.8322 -1.3972,-3.027 -0.6753,-0.2212 -0.9141,0.7815 -0.6365,2.6729 0.5475,3.7303 2.4731,4.0655 2.0337,0.3541 z m -2.8164,-4.7681 c 0,-0.2426 -0.45,-0.7191 -1,-1.0591 -0.55,-0.3399 -1,-0.1414 -1,0.441 0,0.5825 0.45,1.059 1,1.059 0.55,0 1,-0.1984 1,-0.4409 z m -458,-38 c 0,-0.2426 -0.45,-0.7191 -1,-1.0591 -0.55,-0.3399 -1,-0.1414 -1,0.441 0,0.5825 0.45,1.059 1,1.059 0.55,0 1,-0.1984 1,-0.4409 z m 4,-4.5591 c 0,-0.55 -0.1984,-1 -0.441,-1 -0.2425,0 -0.7191,0.45 -1.059,1 -0.3399,0.55 -0.1415,1 0.441,1 0.5824,0 1.059,-0.45 1.059,-1 z m 94,-22.4409 c 0,-1.0555 -1.9191,-1.4989 -2.4899,-0.5754 -0.3455,0.559 0.073,1.0163 0.9309,1.0163 0.8574,0 1.559,-0.1984 1.559,-0.4409 z m 273.5,-3.5591 c 0.3399,-0.55 0.1415,-1 -0.441,-1 -0.5824,0 -1.059,0.45 -1.059,1 0,0.55 0.1984,1 0.441,1 0.2425,0 0.7191,-0.45 1.059,-1 z m 1.1831,-4.1875 c -0.3192,-0.7977 -0.5562,-0.5607 -0.6042,0.6042 -0.043,1.0542 0.193,1.6448 0.5253,1.3125 0.3323,-0.3323 0.3678,-1.1948 0.079,-1.9167 z m 3.1294,-5.75 c 0.25,-0.75 -0.125,-1.125 -0.875,-0.875 -0.7219,0.2407 -1.5094,1.0282 -1.75,1.75 -0.25,0.75 0.125,1.125 0.875,0.875 0.7219,-0.2406 1.5094,-1.0281 1.75,-1.75 z m 19.1875,-11.9555 c 0,-0.4911 -0.675,-1.152 -1.5,-1.4686 -0.9137,-0.3506 -1.5,0 -1.5,0.893 0,0.8078 0.675,1.4686 1.5,1.4686 0.825,0 1.5,-0.4018 1.5,-0.893 z m 0.4472,-9.1924 c -0.322,-0.5209 -1.0116,-0.6837 -1.5326,-0.3618 -0.521,0.322 -0.6838,1.0117 -0.3618,1.5327 0.322,0.5209 1.0116,0.6837 1.5326,0.3618 0.521,-0.322 0.6838,-1.0117 0.3618,-1.5327 z m 9.5528,-10.9146 c 0,-0.55 -0.45,-1 -1,-1 -0.55,0 -1,0.45 -1,1 0,0.55 0.45,1 1,1 0.55,0 1,-0.45 1,-1 z m 3,-4 c 0,-0.55 -0.1984,-1 -0.441,-1 -0.2425,0 -0.7191,0.45 -1.059,1 -0.3399,0.55 -0.1415,1 0.441,1 0.5824,0 1.059,-0.45 1.059,-1 z m -154.5,-53 c 0.3399,-0.55 -0.1101,-1 -1,-1 -0.8899,0 -1.3399,0.45 -1,1 0.3399,0.55 0.7899,1 1,1 0.2101,0 0.6601,-0.45 1,-1 z m 20.5,-7.4409 c 0,-0.2426 -0.45,-0.7191 -1,-1.0591 -0.55,-0.3399 -1,-0.1414 -1,0.441 0,0.5825 0.45,1.059 1,1.059 0.55,0 1,-0.1984 1,-0.4409 z m 267.6042,-31.2882 c -1.0166,-1.0165 -1.8553,0.5139 -1.0213,1.8634 0.6301,1.0194 0.8656,1.0202 1.2043,0 0.2316,-0.6948 0.1493,-1.5351 -0.183,-1.8674 z m -8.1042,0.7291 c 0.3399,-0.55 -0.1101,-1 -1,-1 -0.8899,0 -1.3399,0.45 -1,1 0.3399,0.55 0.7899,1 1,1 0.2101,0 0.6601,-0.45 1,-1 z m -7.5,-8 c 0,-0.55 -0.45,-1 -1,-1 -0.55,0 -1,0.45 -1,1 0,0.55 0.45,1 1,1 0.55,0 1,-0.45 1,-1 z m -562.5427,-59.9309 c 0.3164,-0.512 0.1651,-1.1844 -0.3362,-1.4942 -0.5013,-0.3099 -1.1696,0.109 -1.4849,0.9309 -0.6217,1.6201 0.8807,2.0849 1.8211,0.5633 z m 114.5427,-72.0691 c 0,-0.55 -0.4234,-1 -0.941,-1 -0.5175,0 -1.2191,0.45 -1.559,1 -0.3399,0.55 0.083,1 0.941,1 0.8574,0 1.559,-0.45 1.559,-1 z m 306,-2 c 0,-0.55 -0.1984,-1 -0.441,-1 -0.2425,0 -0.7191,0.45 -1.059,1 -0.3399,0.55 -0.1415,1 0.441,1 0.5824,0 1.059,-0.45 1.059,-1 z m -297.5071,-3.9885 c 0.3504,-0.5669 -0.051,-0.7345 -0.941,-0.393 -1.7324,0.6648 -2.0494,1.3815 -0.6109,1.3815 0.5175,0 1.2159,-0.4448 1.5519,-0.9885 z m -24.743,-15.5949 c -0.953,-0.953 -2.8635,0.5906 -2.1533,1.7397 0.4221,0.683 0.9814,0.6657 1.6996,-0.053 0.5888,-0.5887 0.7929,-1.348 0.4537,-1.6872 z m 184.4001,-37.9166 c 0,-0.5225 -0.4838,-1.1112 -1.075,-1.3083 -0.5913,-0.1971 -1.075,0.3917 -1.075,1.3083 0,0.9167 0.4837,1.5055 1.075,1.3084 0.5912,-0.1971 1.075,-0.7859 1.075,-1.3084 z m -61.15,-73.5 c 0,-0.55 -0.4766,-1 -1.059,-1 -0.5825,0 -0.7809,0.45 -0.441,1 0.3399,0.55 0.8165,1 1.059,1 0.2426,0 0.441,-0.45 0.441,-1 z m 83.5,-18 c 0.3399,-0.55 -0.1101,-1 -1,-1 -0.8899,0 -1.3399,0.45 -1,1 0.3399,0.55 0.7899,1 1,1 0.2101,0 0.6601,-0.45 1,-1 z m 477.9975,704.1688 c -0.1797,-0.1822 -3.1007,-0.318 -6.4913,-0.3018 l -6.1645,0.029 0.6922,-4.1982 c 0.3807,-2.3091 1.0108,-4.6483 1.4002,-5.1983 0.3893,-0.55 1.9869,-5.5 3.5501,-11 1.5633,-5.5 3.1679,-10.45 3.566,-11 0.398,-0.55 1.0387,-2.9101 1.4237,-5.2447 0.3851,-2.3346 1.111,-4.4987 1.6131,-4.809 0.5022,-0.3104 0.913,-2.1127 0.913,-4.0053 0,-1.8925 0.45,-3.441 1,-3.441 0.55,0 1.0069,-1.0125 1.0153,-2.25 0.012,-1.7773 0.2108,-1.9409 0.9456,-0.7789 0.5117,0.8091 1.2764,1.125 1.6994,0.702 0.4229,-0.4229 0.2951,-1.5203 -0.2841,-2.4385 -1.0394,-1.6477 -0.2746,-7.1652 1.6267,-11.7346 0.4576,-1.1 2.0303,-6.5 3.4948,-12 3.1489,-11.8258 5.3313,-19.2425 6.4737,-22 0.4557,-1.1 1.5892,-4.7 2.5189,-8 8.0917,-28.7217 14.0786,-47.0102 15.3532,-46.9 0.6361,0.055 9.3898,0.1675 19.4528,0.25 l 18.2963,0.15 2.2958,8.25 c 1.2626,4.5375 2.5358,9.6 2.8293,11.25 0.2935,1.65 0.8684,3.45 1.2775,4 0.4092,0.55 1.0585,2.7429 1.4428,4.8732 0.3844,2.1302 1.0742,4.6052 1.5329,5.5 0.4588,0.8947 1.3774,3.6518 2.0413,6.1268 1.0216,3.8085 3.4152,11.6374 7.032,23 0.4377,1.375 1.5657,5.2 2.5068,8.5 0.941,3.3 2.327,7.9283 3.08,10.285 0.7529,2.3567 1.369,4.9503 1.369,5.7636 0,0.8132 0.4126,2.26 0.9169,3.215 0.5043,0.9551 1.6676,4.4364 2.5851,7.7364 1.9636,7.0627 11.861,39.3694 15.0988,49.285 2.2996,7.0423 2.9227,6.7361 -13.2533,6.5121 -8.0593,-0.1115 -14.9584,-0.5615 -15.3314,-1 -0.3729,-0.4384 -1.4871,-3.7221 -2.4761,-7.2971 -0.9889,-3.575 -2.6264,-9.425 -3.6389,-13 -1.0125,-3.575 -2.0599,-7.625 -2.3276,-9 -1.1122,-5.7132 -1.1347,-5.7185 -26.7235,-6.3564 -18.036,-0.4496 -23.8784,-0.2992 -24.6124,0.6335 -0.5294,0.6726 -1.7368,3.9229 -2.6832,7.2229 -0.9463,3.3 -2.076,6.6898 -2.5103,7.5329 -0.4344,0.843 -1.1089,3.093 -1.499,5 -0.8058,3.9392 -2.3774,9.2086 -3.9212,13.1477 -0.9988,2.5482 -1.4396,2.6963 -8.9251,3 -4.331,0.1757 -8.0216,0.1704 -8.2013,-0.012 z m 20.0025,-30.1688 c 0.3399,-0.55 0.1415,-1 -0.441,-1 -0.5824,0 -1.059,0.45 -1.059,1 0,0.55 0.1984,1 0.441,1 0.2425,0 0.7191,-0.45 1.059,-1 z m -15.5,-17.059 c 0,-0.5175 -0.45,-0.941 -1,-0.941 -0.55,0 -1,0.7016 -1,1.5591 0,0.8574 0.45,1.2809 1,0.9409 0.55,-0.3399 1,-1.0414 1,-1.559 z m 64.7093,-15.3169 c 0.5263,-0.5263 -0.5335,-6.2592 -2.7036,-14.6241 -0.4993,-1.925 -1.377,-5.75 -1.9503,-8.5 -0.5733,-2.75 -1.4614,-5.9 -1.9735,-7 -0.5122,-1.1 -1.1457,-3.125 -1.4079,-4.5 -0.2621,-1.375 -1.2145,-4.975 -2.1163,-8 -2.9484,-9.8899 -3.3953,-11.4403 -4.7345,-16.423 -1.9928,-7.4141 -3.3534,-6.7857 -5.6782,2.6224 -1.1282,4.5654 -3.0036,11.6756 -4.1676,15.8006 -3.5982,12.7513 -7.1456,26.301 -8.0542,30.7643 -0.4775,2.3454 -1.3618,5.1867 -1.9651,6.314 -2.1235,3.9678 -0.2174,4.4318 17.5278,4.2673 9.161,-0.085 16.9115,-0.4096 17.2234,-0.7215 z m -26.047,-54.8741 c -0.2774,-0.6875 -0.5044,-0.125 -0.5044,1.25 0,1.375 0.227,1.9375 0.5044,1.25 0.2774,-0.6875 0.2774,-1.8125 0,-2.5 z m 107.5624,117.4671 -11.2754,-0.283 0.085,-76.9949 0.085,-76.9948 13.5959,0.2778 c 12.7124,0.2598 13.6167,0.4078 13.9157,2.2778 0.2826,1.7672 0.4947,70.5297 0.4015,130.1365 l -0.033,21.1365 -2.75,0.3635 c -1.5125,0.2 -7.8239,0.2362 -14.0253,0.081 z m 170.7753,-0.2423 c -22.5367,-0.4831 -24.8205,-0.6964 -28.5,-2.6617 -5.2628,-2.8111 -10.3703,-7.9311 -11.1682,-11.1956 -0.3519,-1.4396 -1.0999,-2.9181 -1.6622,-3.2855 -0.615,-0.4018 -1.0518,-6.5799 -1.0961,-15.5 l -0.073,-14.832 13.2226,-0.1988 c 7.2724,-0.1094 13.4496,0.1684 13.727,0.6174 0.2775,0.4489 0.7099,4.5062 0.9609,9.0162 0.251,4.51 0.9915,8.8447 1.6454,9.6326 0.9641,1.1616 5.2264,1.4326 22.5314,1.4326 25.5801,0 23.7377,1.2434 23.2465,-15.6877 -0.3267,-11.2619 -0.3939,-11.5538 -3.1657,-13.7619 -1.5575,-1.2408 -5.6075,-2.9796 -9,-3.8639 -3.3924,-0.8843 -8.1931,-2.1285 -10.6681,-2.7648 -2.475,-0.6363 -5.2814,-1.554 -6.2364,-2.0393 -0.9551,-0.4853 -2.4981,-0.8824 -3.429,-0.8824 -1.6802,0 -6.9981,-1.5215 -10.8346,-3.0999 -1.1,-0.4526 -4.475,-1.5477 -7.5,-2.4336 -3.025,-0.886 -6.2814,-2.0283 -7.2364,-2.5386 -0.9551,-0.5103 -2.1874,-0.9279 -2.7386,-0.9279 -2.7568,0 -10.9853,-8.5516 -11.7087,-12.1686 -0.3115,-1.5572 -0.9063,-2.8314 -1.3219,-2.8314 -0.9395,0 -2.2681,-18.562 -2.1544,-30.101 0.1855,-18.8207 5.6236,-28.9772 17.66,-32.9825 3.001,-0.9986 10.7433,-1.2811 31,-1.1312 29.4747,0.218 32.9475,0.5129 39.2012,3.3287 8.1851,3.6853 11.8269,11.0036 13.2059,26.5369 1.5045,16.9488 2.0248,15.8267 -7.4071,15.9743 -13.2018,0.2065 -19.4539,-0.6018 -19.3083,-2.4962 0.069,-0.8959 0.054,-4.2379 -0.033,-7.4267 -0.1299,-4.7541 -0.6006,-6.2076 -2.6151,-8.0746 -2.3839,-2.2093 -2.9936,-2.2718 -20.5661,-2.1084 -23.2642,0.2163 -22.5196,-0.3049 -22.2247,15.558 0.2349,12.6342 0.8682,13.7299 9.2475,15.999 2.475,0.6702 4.9275,1.6023 5.45,2.0712 0.5225,0.4689 2.1888,0.8525 3.7029,0.8525 1.5142,0 3.7867,0.4032 5.05,0.8959 2.5122,0.9798 6.6052,2.0769 17.2971,4.6367 8.2935,1.9855 13.8081,3.7225 14.5,4.5672 0.275,0.3357 2.075,1.1383 4,1.7836 3.8736,1.2983 8.4079,5.072 11.7734,9.7984 2.9579,4.154 4.1825,13.4411 4.2068,31.9015 0.026,19.4643 -1.0965,25.1312 -6.102,30.8178 -7.9227,9.0006 -15.987,10.4074 -54.8782,9.5737 z m -11.75,-73.637 c -0.6875,-0.2774 -1.8125,-0.2774 -2.5,0 -0.6875,0.2774 -0.125,0.5043 1.25,0.5043 1.375,0 1.9375,-0.2269 1.25,-0.5043 z m -22.4792,-10.5253 c -0.618,-1.8542 -2.7708,-2.1617 -2.7708,-0.3958 0,0.8708 0.7125,1.5833 1.5833,1.5833 0.8709,0 1.4052,-0.5343 1.1875,-1.1875 z m -3.7708,-7.2534 c 0,-0.2426 -0.45,-0.7191 -1,-1.0591 -0.55,-0.3399 -1,-0.1414 -1,0.441 0,0.5825 0.45,1.059 1,1.059 0.55,0 1,-0.1984 1,-0.4409 z m 29,-3.5591 c 0,-0.55 -0.4766,-1 -1.059,-1 -0.5825,0 -0.7809,0.45 -0.441,1 0.3399,0.55 0.8165,1 1.059,1 0.2426,0 0.441,-0.45 0.441,-1 z m -30.3169,-2.1875 c -0.3192,-0.7977 -0.5562,-0.5607 -0.6042,0.6042 -0.043,1.0542 0.193,1.6448 0.5253,1.3125 0.3323,-0.3323 0.3678,-1.1948 0.079,-1.9167 z m 80.3169,-16.2534 c 0,-1.0555 -1.9191,-1.4989 -2.4899,-0.5754 -0.3455,0.559 0.073,1.0163 0.9309,1.0163 0.8574,0 1.559,-0.1984 1.559,-0.4409 z m 10,-9 c 0,-0.7926 -0.45,-1.7191 -1,-2.0591 -0.55,-0.3399 -1,0.3086 -1,1.441 0,1.1325 0.45,2.059 1,2.059 0.55,0 1,-0.6484 1,-1.4409 z m 0.7499,-6.1425 c -0.953,-0.953 -2.8635,0.5906 -2.1533,1.7397 0.4221,0.683 0.9814,0.6657 1.6996,-0.053 0.5888,-0.5887 0.7929,-1.348 0.4537,-1.6872 z m -0.067,-8.6041 c -0.3192,-0.7977 -0.5562,-0.5607 -0.6042,0.6042 -0.043,1.0542 0.193,1.6448 0.5253,1.3125 0.3323,-0.3323 0.3678,-1.1948 0.079,-1.9167 z m 188.1562,137.0517 c -9.4055,-0.5128 -12.7141,-1.1181 -17.107,-3.1292 -10.3008,-4.7158 -14.3924,-14.0476 -14.6574,-33.4292 -0.1442,-10.5411 -0.051,-11.0787 2.0056,-11.6166 2.9591,-0.7738 24.218,0.3281 25.2652,1.3096 0.4651,0.4359 0.9502,4.102 1.0779,8.1469 0.3237,10.2493 1.3473,11.8139 7.8616,12.0166 14.5344,0.4524 37.1335,-0.1809 38.0179,-1.0654 1.4126,-1.4126 2.6248,-18.0224 1.6888,-23.1409 -0.8519,-4.6592 -3.9866,-7.8962 -7.6829,-7.9337 -1.205,-0.012 -2.4691,-0.4723 -2.809,-1.0223 -0.3399,-0.55 -1.6164,-1 -2.8365,-1 -1.2202,0 -3.1595,-0.6591 -4.3096,-1.4647 -1.1502,-0.8055 -2.2841,-1.2717 -2.52,-1.0358 -0.2358,0.2358 -4.0074,-0.5026 -8.3813,-1.641 -4.374,-1.1384 -9.4193,-2.2969 -11.2119,-2.5746 -1.7926,-0.2777 -3.5066,-0.9051 -3.809,-1.3943 -0.3024,-0.4893 -1.4075,-0.8896 -2.4558,-0.8896 -2.1821,0 -9.924,-2.4281 -14.7522,-4.6268 -4.3406,-1.9766 -8.6125,-6.2548 -11.085,-11.1013 -5.1698,-10.1337 -5.0142,-42.0607 0.2667,-54.6996 1.7874,-4.278 8.9952,-11.5723 11.435,-11.5723 0.9678,0 2.2389,-0.4793 2.8248,-1.0651 0.722,-0.722 11.176,-0.9637 32.45,-0.75 28.868,0.2899 31.7056,0.4736 35.3848,2.2906 5.8497,2.889 8.8922,5.9461 11.7731,11.8297 2.2703,4.6364 2.5996,6.7041 2.8943,18.1736 l 0.3326,12.942 -8.5704,0.2324 c -4.7138,0.1278 -10.7288,-0.079 -13.3667,-0.4604 -4.7346,-0.6839 -4.8007,-0.7441 -5.1441,-4.6928 -0.7509,-8.6319 -1.6258,-11.5895 -3.8621,-13.0548 -1.7438,-1.1425 -6.3617,-1.5264 -20.3866,-1.6945 -22.3923,-0.2684 -21.4831,-0.7988 -21.2723,12.4107 0.2245,14.0643 0.7094,15.7743 4.9833,17.5749 5.011,2.1112 32.8561,10.1354 45.1189,13.002 1.375,0.3214 4.075,1.4824 6,2.5798 1.925,1.0975 4.4,2.4952 5.5,3.106 5.3277,2.9584 7.803,5.2356 10.291,9.4678 2.6948,4.584 2.7105,4.7234 2.9936,26.6081 0.2481,19.1835 0.056,22.585 -1.5,26.5695 -3.7671,9.6459 -11.6152,15.3972 -22.5353,16.5143 -8.7158,0.8916 -33.9884,1.0395 -47.91,0.2804 z m 0.1607,-17.8642 c 0,-0.55 -0.1984,-1 -0.441,-1 -0.2425,0 -0.7191,0.45 -1.059,1 -0.3399,0.55 -0.1415,1 0.441,1 0.5824,0 1.059,-0.45 1.059,-1 z m -119.5186,17.1473 c -0.1944,-0.1939 -0.3952,-11.2189 -0.4462,-24.5 -0.094,-24.463 -0.585,-31.6473 -2.163,-31.6473 -0.4797,0 -0.8722,-0.6133 -0.8722,-1.3629 0,-0.7496 -3.0911,-7.8371 -6.8691,-15.75 -7.6959,-16.1188 -12.1309,-25.7499 -12.1309,-26.3437 0,-0.2185 -1.575,-3.8071 -3.5,-7.9746 -1.925,-4.1674 -3.5,-7.7689 -3.5,-8.0032 0,-0.2343 -1.3864,-3.4949 -3.081,-7.2458 -1.6945,-3.7509 -3.7195,-8.2378 -4.5,-9.9709 -0.7804,-1.7331 -1.419,-3.6456 -1.419,-4.25 0,-0.6044 -0.45,-1.0989 -1,-1.0989 -0.55,0 -1,-0.6811 -1,-1.5135 0,-1.5316 -0.3525,-2.382 -3.415,-8.2385 -0.9353,-1.7886 -1.4748,-3.6172 -1.199,-4.0634 0.2758,-0.4463 6.6048,-0.9245 14.0645,-1.0627 10.1592,-0.1881 13.8853,0.079 14.8472,1.0635 1.6346,1.6734 6.8147,12.749 9.7351,20.8146 1.3175,3.639 1.7974,4.7997 6.891,16.6677 1.6919,3.9421 3.0762,7.458 3.0762,7.813 0,0.627 4.3711,10.4369 7.8063,17.5193 0.9337,1.925 2.1467,3.4493 2.6956,3.3873 0.9728,-0.1099 2.7465,-3.2784 5.8147,-10.3873 0.8309,-1.925 2.7002,-6.2 4.1541,-9.5 3.7201,-8.4441 4.0633,-9.2778 6.5862,-16 1.2386,-3.3 3.0332,-7.8 3.988,-10 0.9548,-2.2 3.1594,-7.3661 4.899,-11.4803 4.702,-11.12 3.597,-10.5675 20.4379,-10.2188 14.5041,0.3004 14.5285,0.3048 13.6891,2.5 -0.8239,2.1546 -14.3148,30.5151 -16.1428,33.9356 -0.5105,0.955 -0.9281,2.1947 -0.9281,2.7549 0,0.5601 -1.125,3.3505 -2.5,6.2007 -1.375,2.8502 -2.5,5.773 -2.5,6.4951 0,0.7221 -0.45,1.3128 -1,1.3128 -0.55,0 -1,0.4945 -1,1.0989 0,0.6044 -0.7284,2.7419 -1.6186,4.75 -0.8903,2.0081 -2.1986,5.0011 -2.9073,6.6511 -0.7088,1.65 -2.9054,6.5204 -4.8814,10.8231 -1.976,4.3026 -3.5927,8.0032 -3.5927,8.2235 0,0.2203 -1.6179,3.675 -3.5954,7.677 -3.9482,7.9903 -3.7291,5.6628 -4.6841,49.7764 l -0.249,11.5 h -13.8183 c -7.6001,0 -13.9774,-0.1587 -14.1718,-0.3527 z m 50.5186,-114.1473 c 0,-0.55 -0.45,-1 -1,-1 -0.55,0 -1,0.45 -1,1 0,0.55 0.45,1 1,1 0.55,0 1,-0.45 1,-1 z m -88,-32.9409 c 0,-0.5176 -0.45,-1.2191 -1,-1.5591 -0.55,-0.3399 -1,0.084 -1,0.941 0,0.8575 0.45,1.559 1,1.559 0.55,0 1,-0.4234 1,-0.9409 z m 284.6972,147.3048 c -0.3835,-0.3834 -0.6972,-28.4671 -0.6972,-62.4081 0,-49.6718 -0.2557,-61.9231 -1.3107,-62.7986 -0.8262,-0.6858 -8.0326,-1.1301 -19.5,-1.2022 l -18.1893,-0.1145 v -13.4202 -13.4203 h 54.0379 54.0379 l -0.1351,13.5 -0.1351,13.5 h -19.2028 c -13.6022,0 -19.5528,0.35 -20.4028,1.2 -0.9076,0.9077 -1.2,16.3572 -1.2,63.4072 v 62.2071 l -13.3028,0.1234 c -7.3165,0.068 -13.6165,-0.1903 -14,-0.5738 z m 90.4598,-0.3639 c -0.5785,-0.4402 -0.9118,-134.2578 -0.368,-147.7224 l 0.211,-5.2225 47.25,0.2225 47.25,0.2224 0.2789,12.6258 c 0.2521,11.4074 0.1073,12.6677 -1.5,13.0597 -0.9784,0.2386 -15.473,0.3223 -32.2101,0.186 -17.6621,-0.1439 -31.1702,0.1476 -32.1924,0.6947 -1.582,0.8466 -1.7389,2.544 -1.5423,16.6882 0.1204,8.6601 0.5877,16.3351 1.0385,17.0556 0.6475,1.0349 6.4156,1.2684 27.4735,1.1121 l 26.6539,-0.1979 0.279,13.1379 0.279,13.1379 -19.779,0.073 c -10.8784,0.04 -23.0443,0.011 -27.0353,-0.065 -5.2015,-0.099 -7.3842,0.2339 -7.7082,1.1769 -0.6705,1.9518 -1.4205,34.9515 -0.8294,36.4921 0.4075,1.0618 7.2115,1.3233 34.4299,1.3233 h 33.922 l -0.279,13.25 -0.279,13.25 h -47.343 c -26.0387,0 -47.6387,-0.225 -48,-0.5 z m 45.093,-130.6622 c -0.6875,-0.2774 -1.8125,-0.2774 -2.5,0 -0.6875,0.2774 -0.125,0.5043 1.25,0.5043 1.375,0 1.9375,-0.2269 1.25,-0.5043 z m 42.4792,0.058 c -0.3323,-0.3323 -1.1948,-0.3678 -1.9167,-0.079 -0.7977,0.3193 -0.5608,0.5562 0.6042,0.6042 1.0541,0.043 1.6448,-0.1929 1.3125,-0.5252 z m 34.7938,130.6414 c -0.3272,-0.5295 -0.3038,-10.317 0.052,-21.75 0.3559,-11.433 0.6113,-28.6623 0.5676,-38.2873 -0.3957,-87.0134 -0.3493,-91.2541 1.0071,-92.1137 0.7426,-0.4706 7.9854,-0.8625 16.0951,-0.8709 l 14.7449,-0.015 1.9367,4.25 c 1.0652,2.3375 3.581,8.3 5.5906,13.25 2.0096,4.95 4.228,10.35 4.9298,12 3.982,9.3628 9.5531,24.8805 9.5531,26.6091 0,1.1049 0.45,1.7309 1,1.3909 0.5591,-0.3455 1,0.426 1,1.7499 0,1.3023 0.6607,3.2414 1.4682,4.309 0.8075,1.0676 1.4825,2.7286 1.5,3.6911 0.017,0.9625 0.4818,1.75 1.0318,1.75 0.55,0 1,0.8735 1,1.941 0,1.0676 0.424,2.2031 0.9422,2.5233 0.5182,0.3203 1.2436,2.5923 1.612,5.0488 0.3684,2.4566 1.0694,4.2196 1.5578,3.9177 0.4884,-0.3018 0.888,0.3778 0.888,1.5102 0,1.1325 0.4187,2.059 0.9304,2.059 0.5118,0 1.0743,1.0079 1.25,2.2398 0.4218,2.9565 3.8196,3.698 3.8196,0.8336 0,-1.1404 0.45,-2.0734 1,-2.0734 0.55,0 1,-0.8734 1,-1.9409 0,-1.0676 0.4001,-2.1883 0.8892,-2.4906 0.4891,-0.3023 1.1972,-1.7768 1.5737,-3.2767 0.3765,-1.4999 1.8203,-5.2167 3.2086,-8.2594 3.8636,-8.4681 6.2792,-14.2117 10.3175,-24.5324 0.4304,-1.1 2.6339,-6.3466 4.8968,-11.6592 2.2628,-5.3126 4.1142,-10.3486 4.1142,-11.191 0,-0.8425 0.4001,-1.779 0.8892,-2.0813 0.4891,-0.3023 1.1928,-1.7591 1.5639,-3.2375 0.371,-1.4783 2.2884,-6.2184 4.2609,-10.5335 l 3.5863,-7.8456 16.0613,0.2741 16.0614,0.274 -0.021,76.5 -0.021,76.5 h -13.4403 -13.4402 l -0.1594,-7.5 c -0.088,-4.125 -0.2001,-26.5125 -0.25,-49.75 -0.05,-23.2375 -0.4344,-42.25 -0.8547,-42.25 -1.0151,0 -3.3201,5.4499 -7.1689,16.9497 -1.7395,5.1973 -3.8161,10.9348 -4.6148,12.75 -1.2876,2.9262 -2.5699,5.9545 -5.4202,12.8003 -0.458,1.1 -1.8213,4.25 -3.0296,7 -3.6798,8.3752 -7.2968,16.7883 -8.8133,20.5 -4.2029,10.2867 -2.1898,9.0788 -15.5944,9.3568 -6.881,0.1427 -6.91,0.1319 -8.25,-3.0746 -0.7396,-1.7699 -1.3447,-4.1324 -1.3447,-5.25 0,-1.1177 -0.45,-2.0322 -1,-2.0322 -0.55,0 -1,-0.791 -1,-1.7579 0,-0.9669 -1.125,-3.8713 -2.5,-6.4542 -1.375,-2.5829 -2.5,-5.3919 -2.5,-6.242 0,-0.8502 -0.4012,-1.5459 -0.8916,-1.5459 -0.4904,0 -1.1864,-1.1746 -1.5467,-2.6103 -0.632,-2.5178 -3.7488,-10.0434 -5.6434,-13.6261 -0.5051,-0.955 -0.9183,-2.2172 -0.9183,-2.8049 0,-1.2539 -1.9103,-5.7279 -9.952,-23.3079 -2.2264,-4.8672 -4.048,-9.2547 -4.048,-9.75 0,-0.4954 -0.45,-0.9008 -1,-0.9008 -1.298,0 -1.2751,-1.1827 -1.0314,53.25 l 0.2094,46.75 h -13.53 c -7.5922,0 -13.7911,-0.4225 -14.125,-0.9627 z m 79.3446,-27.2846 c -0.8376,-1.5652 -1.3406,-1.8336 -1.657,-0.8843 -0.2499,0.7496 0.163,1.754 0.9175,2.232 1.9984,1.2659 2.0692,1.1368 0.7395,-1.3477 z m -10.6176,-0.4149 c -0.6875,-0.2774 -1.8125,-0.2774 -2.5,0 -0.6875,0.2774 -0.125,0.5043 1.25,0.5043 1.375,0 1.9375,-0.2269 1.25,-0.5043 z m -18.7927,-31.2687 c 0.3164,-0.512 0.118,-1.2135 -0.441,-1.559 -0.559,-0.3454 -1.0163,0.074 -1.0163,0.9309 0,1.7566 0.6001,2.0152 1.4573,0.6281 z m -1.4573,-5.5691 c 0,-0.825 -0.4359,-1.5 -0.9686,-1.5 -0.5328,0 -0.7096,0.675 -0.393,1.5 0.3166,0.825 0.7524,1.5 0.9686,1.5 0.2161,0 0.393,-0.675 0.393,-1.5 z m 13,-11.5 c 0,-0.55 -0.4766,-1 -1.059,-1 -0.5825,0 -0.7809,0.45 -0.441,1 0.3399,0.55 0.8165,1 1.059,1 0.2426,0 0.441,-0.45 0.441,-1 z m -2.6507,-4.532 c -0.7932,-2.0671 -1.3493,-1.8235 -1.3493,0.5911 0,1.1324 0.4303,1.793 0.9563,1.4679 0.526,-0.325 0.7029,-1.2516 0.393,-2.059 z m -6.6201,-12.0721 c -0.3323,-0.3323 -1.1948,-0.3678 -1.9167,-0.079 -0.7977,0.3193 -0.5608,0.5562 0.6042,0.6042 1.0541,0.043 1.6448,-0.1929 1.3125,-0.5252 z m 39.7708,-1.3959 c 0.3399,-0.55 -0.084,-1 -0.941,-1 -0.8574,0 -1.559,0.45 -1.559,1 0,0.55 0.4234,1 0.941,1 0.5175,0 1.2191,-0.45 1.559,-1 z m 101.5,94.0064 c -6.3512,-0.8624 -13.3319,-4.2533 -15.7078,-7.6303 -5.2826,-7.5084 -5.6675,-9.1415 -5.5077,-23.3654 0.093,-8.3013 0.5509,-13.6224 1.1898,-13.8354 0.571,-0.1903 0.8431,-0.6616 0.6048,-1.0473 -0.2384,-0.3857 4.6831,-0.7548 10.9365,-0.8202 6.2535,-0.065 11.8231,-0.3991 12.377,-0.7414 1.8259,-1.1284 2.9152,2.8284 2.9981,10.89 0.051,4.9905 0.5516,8.3999 1.3455,9.169 1.9522,1.8914 40.8725,2.3448 43.1027,0.5022 1.3884,-1.1471 1.6611,-3.451 1.6611,-14.0344 v -12.6619 l -2.9358,-1.7343 c -3.2919,-1.9445 -20.6405,-7.6823 -23.2552,-7.6912 -0.93,0 -1.9384,-0.406 -2.2407,-0.8953 -0.3024,-0.4892 -2.0164,-1.1075 -3.809,-1.3741 -4.3145,-0.6415 -18.9665,-4.6967 -20.2491,-5.6044 -0.5556,-0.3931 -2.8102,-1.3209 -5.0102,-2.0616 -5.7917,-1.9501 -10.709,-6.201 -13.8509,-11.9737 -2.291,-4.2094 -2.8701,-6.8219 -3.4772,-15.6866 -0.8794,-12.8412 0.1974,-27.9295 2.5269,-35.4101 2.3473,-7.5376 8.9972,-14.1312 15.8498,-15.7157 3.004,-0.6947 15.5704,-1.1817 31.9514,-1.2383 30.8542,-0.1066 34.8168,0.5351 41.699,6.7528 6.1149,5.5245 7.9156,10.6169 8.7345,24.7012 0.3837,6.6 0.5291,12.3375 0.323,12.75 -0.206,0.4125 -6.423,0.75 -13.8155,0.75 h -13.441 v -5.179 c 0,-6.5524 -1.7231,-11.3738 -4.5203,-12.6483 -1.1981,-0.5458 -8.8384,-1.048 -16.9784,-1.1159 -8.1401,-0.068 -15.1631,-0.3477 -15.6067,-0.6219 -0.4436,-0.2742 -2.4014,0.1679 -4.3506,0.9823 l -3.544,1.4808 v 12.528 c 0,14.5953 -0.4753,13.8994 12,17.5701 4.125,1.2137 8.4,2.5772 9.5,3.03 1.1,0.4528 3.125,1.0557 4.5,1.3398 32.7991,6.7762 45.368,14.0095 48.0343,27.6437 0.6965,3.5618 0.8322,12.3402 0.3863,24.9904 -0.6017,17.0666 -0.9656,20.132 -2.9168,24.5641 -2.5687,5.8351 -7.7887,10.5628 -13.8101,12.5077 -4.4381,1.4335 -55.5777,2.1723 -64.6937,0.9346 z m 76,-19.0064 c 0,-0.55 -0.4234,-1 -0.941,-1 -0.5175,0 -1.2191,0.45 -1.559,1 -0.3399,0.55 0.083,1 0.941,1 0.8574,0 1.559,-0.45 1.559,-1 z m -68.6384,-54.5 c 0.3166,-0.825 0.1398,-1.5 -0.393,-1.5 -0.5327,0 -0.9686,0.675 -0.9686,1.5 0,0.825 0.1769,1.5 0.393,1.5 0.2162,0 0.652,-0.675 0.9686,-1.5 z m 69.6384,-42.9409 c 0,-0.2426 -0.45,-0.7191 -1,-1.0591 -0.55,-0.3399 -1,-0.1414 -1,0.441 0,0.5825 0.45,1.059 1,1.059 0.55,0 1,-0.1984 1,-0.4409 z m 85.7155,116.6991 c -0.227,-0.417 -0.3642,-34.9582 -0.3051,-76.7582 l 0.1076,-76 14.2443,-0.2774 14.2443,-0.2775 -0.1302,62.4176 c -0.072,34.3298 0.1785,62.9171 0.5557,63.5275 0.4783,0.7738 9.9113,1.1098 31.1559,1.1098 h 30.47 l -0.279,13.0664 -0.279,13.0663 -44.686,0.4418 c -24.5772,0.243 -44.8716,0.1007 -45.0985,-0.3163 z m 103.2845,-1.2717 c 0,-1.1075 0.4061,-2.795 0.9025,-3.75 0.4964,-0.9551 1.4492,-3.7615 2.1173,-6.2365 0.6681,-2.475 1.837,-6.4926 2.5975,-8.9281 0.7605,-2.4355 1.3827,-5.398 1.3827,-6.5833 0,-1.1854 0.3372,-2.4924 0.7493,-2.9045 0.4122,-0.4122 1.2783,-2.8497 1.9247,-5.4167 0.6465,-2.5671 1.6177,-6.2424 2.1582,-8.1674 7.3471,-26.1656 14.7743,-50.5215 16.2341,-53.2364 0.5135,-0.955 0.9337,-2.5675 0.9337,-3.5833 0,-1.0158 0.3372,-2.1841 0.7493,-2.5962 0.7348,-0.7348 2.8164,-8.1523 3.9524,-14.0841 0.316,-1.65 0.8746,-3.225 1.2414,-3.5 0.3667,-0.275 1.6204,-4.325 2.7859,-9 2.8771,-11.5406 6.5164,-23.3913 7.3703,-24 0.3858,-0.275 9.0173,-0.3686 19.1812,-0.2081 l 18.4797,0.2918 1.5343,4.2082 c 1.5941,4.3723 4.5547,13.805 9.1675,29.2081 5.5186,18.4277 7.847,26.114 9.1744,30.285 0.75,2.3567 1.3636,4.9503 1.3636,5.7636 0,0.8132 0.4166,2.26 0.9258,3.215 1.0653,1.998 9.4215,29.0496 16.2901,52.7364 1.1164,3.85 3.0501,10.15 4.297,14 1.2468,3.85 2.5642,8.6997 2.9274,10.7771 l 0.6605,3.777 -14.7866,-0.277 -14.7865,-0.2771 -1.8502,-6.5 c -1.0176,-3.575 -2.2187,-8.075 -2.6691,-10 -2.285,-9.7668 -5.0405,-17.5503 -6.6227,-18.7072 -2.183,-1.5962 -44.4493,-1.8643 -47.3714,-0.3004 -1.7915,0.9588 -2.3626,2.3336 -4.988,12.0076 -0.6717,2.475 -1.5597,5.175 -1.9735,6 -0.4137,0.825 -1.5992,4.9456 -2.6343,9.1568 -1.8472,7.5149 -1.9473,7.6676 -5.4003,8.239 -1.935,0.3202 -8.5807,0.5872 -14.7682,0.5932 -10.6123,0.01 -11.25,-0.1031 -11.25,-2.0025 z m 81.4904,-59.9709 c 0.8233,-1.3322 -1.6438,-15.0156 -2.7074,-15.0156 -0.4307,0 -0.783,-1.0448 -0.783,-2.3218 0,-1.277 -0.6909,-4.5395 -1.5353,-7.25 -1.7717,-5.6871 -2.4242,-8.0128 -6.8534,-24.4282 -0.8163,-3.025 -2.0609,-7.6375 -2.766,-10.25 -1.744,-6.4621 -4.0443,-6.3637 -5.8453,0.25 -0.7489,2.75 -1.7161,5 -2.1494,5 -0.4333,0 -0.562,0.5886 -0.286,1.3078 0.5553,1.447 -0.5174,6.0434 -6.5791,28.1922 -2.2578,8.25 -4.3583,17.1146 -4.6677,19.6992 l -0.5625,4.6991 6.3724,0.3046 c 18.1816,0.8691 27.7488,0.8059 28.3627,-0.1873 z m -29.8073,-46.2031 c -0.3192,-0.7977 -0.5562,-0.5607 -0.6042,0.6042 -0.043,1.0542 0.193,1.6448 0.5253,1.3125 0.3323,-0.3323 0.3678,-1.1948 0.079,-1.9167 z m -17,-4 c -0.3192,-0.7977 -0.5562,-0.5607 -0.6042,0.6042 -0.043,1.0542 0.193,1.6448 0.5253,1.3125 0.3323,-0.3323 0.3678,-1.1948 0.079,-1.9167 z m 2.5662,-4.3363 c 0.2654,-1.3881 0.093,-2.7647 -0.3834,-3.059 -0.4763,-0.2944 -0.8659,0.8414 -0.8659,2.5238 0,3.7125 0.5933,3.9666 1.2493,0.5352 z m 19.7507,-5.9171 c 0,-0.2426 -0.45,-0.7191 -1,-1.0591 -0.55,-0.3399 -1,-0.1414 -1,0.441 0,0.5825 0.45,1.059 1,1.059 0.55,0 1,-0.1984 1,-0.4409 z m 0,-7.0591 c 0,-0.825 -0.4234,-1.5 -0.941,-1.5 -1.261,0 -2.1641,1.5616 -1.3651,2.3606 1.1261,1.1261 2.3061,0.6859 2.3061,-0.8606 z m 93.6995,78.0809 c -0.3402,-28.0945 -0.474,-54.6809 -0.2972,-59.0809 0.1768,-4.4 0.3836,-15.9875 0.4596,-25.75 l 0.1381,-17.75 h 39.8508 c 26.2273,0 41.0128,0.3757 43.25,1.0989 8.7336,2.8232 12.1456,5.3862 15.1774,11.4011 3.1096,6.1692 3.8342,11.7969 3.8191,29.6581 -0.015,17.2935 -0.1144,18.1951 -2.4554,22.184 -1.342,2.2869 -3.8204,5.3854 -5.5073,6.8856 -3.0483,2.7109 -3.0566,2.7463 -1.3509,5.7437 0.944,1.6588 2.1663,3.033 2.7163,3.0537 1.145,0.043 3.4373,3.022 6.4408,8.3695 1.9051,3.3918 2.0943,5.4776 2.2592,24.9037 0.1721,20.2587 0.078,21.4125 -2.1146,25.94 -2.5612,5.2887 -7.2901,9.8858 -12.8726,12.5139 -3.3435,1.574 -7.9488,1.7559 -46.3037,1.8287 l -42.591,0.081 z m 74.2011,21.8184 c 2.1165,-2.4342 2.2721,-3.575 2.4303,-17.8202 0.2274,-20.4713 2.0376,-18.9904 -23.6998,-19.3891 -11.009,-0.1705 -21.0547,-0.05 -22.3237,0.269 l -2.3074,0.5791 v 18.8143 c 0,10.3479 0.3,19.1143 0.6667,19.481 0.3666,0.3666 10.1855,0.6666 21.8196,0.6666 h 21.153 z m -0.1737,-65.1045 c 2.223,-3.3917 2.728,-21.2577 0.7646,-27.0489 -2.0097,-5.9279 -3.4904,-6.2693 -25.9915,-5.9922 l -20,0.2463 -0.2758,16.4617 c -0.1517,9.0538 -0.053,17.0413 0.2186,17.75 0.3822,0.9959 5.3768,1.2883 22.0028,1.2883 h 21.5083 z m 6.2731,-0.7948 c 0,-0.825 -0.45,-1.5 -1,-1.5 -0.55,0 -1,0.675 -1,1.5 0,0.825 0.45,1.5 1,1.5 0.55,0 1,-0.675 1,-1.5 z m -1404.25,-146.2715 c -2.0253,-0.4341 -2.0831,-0.6525 -0.791,-2.992 0.5274,-0.9551 2.1812,-5.7865 3.6751,-10.7365 1.4939,-4.95 4.1593,-13.5 5.9231,-19 1.7637,-5.5 3.5111,-11.575 3.8831,-13.5 0.3719,-1.925 1.0543,-4.4 1.5165,-5.5 1.3857,-3.2977 4.966,-15.7491 5.6071,-19.5 0.329,-1.925 0.9733,-4.4 1.4318,-5.5 0.4585,-1.1 1.2787,-3.8 1.8228,-6 1.1269,-4.5566 6.7191,-24.2394 8.3814,-29.5 2.6282,-8.317 3.6658,-11.7679 4.8107,-16 0.6695,-2.475 1.5896,-5.4 2.0445,-6.5 1.3047,-3.1549 8.9449,-30.6123 8.9449,-32.1464 0,-0.7594 0.4111,-2.1621 0.9135,-3.1171 1.2038,-2.2885 4.7932,-13.8576 7.2092,-23.2365 1.0626,-4.125 2.3246,-8.4 2.8046,-9.5 0.48,-1.1 1.6141,-4.7 2.5203,-8 0.9062,-3.3 2.1411,-7.8 2.7442,-10 0.6031,-2.2 1.7067,-5.9282 2.4524,-8.2849 0.7457,-2.3567 1.3558,-5.1427 1.3558,-6.191 0,-1.0483 0.45,-2.1841 1,-2.5241 0.55,-0.3399 1,-1.3139 1,-2.1644 0,-0.8505 1.1522,-5.3239 2.5605,-9.9409 l 2.5605,-8.3947 h 32.9643 32.9642 l 1.0966,2.75 c 0.6032,1.5125 2.1356,6.575 3.4055,11.25 1.2699,4.675 3.5041,12.325 4.9649,17 1.4608,4.675 3.2556,10.75 3.9884,13.5 0.7329,2.75 1.6316,6.125 1.9973,7.5 0.3656,1.375 1.021,3.4 1.4565,4.5 1.4693,3.7114 4.0413,13.1633 4.0413,14.8515 0,0.9216 0.4077,2.4571 0.9061,3.4121 0.4983,0.9551 1.673,4.6614 2.6104,8.2364 0.9374,3.575 2.0598,7.4 2.4943,8.5 0.4344,1.1 2.0109,6.5 3.5032,12 1.4924,5.5 3.0713,10.9 3.5087,12 0.4374,1.1 1.9469,5.825 3.3544,10.5 5.6231,18.6775 9.5279,31.7934 11.1643,37.5 0.9464,3.3 2.3366,7.9283 3.0896,10.285 0.7529,2.3567 1.369,4.9503 1.369,5.7636 0,0.8132 0.412,2.26 0.9155,3.215 0.5035,0.9551 1.9089,5.1114 3.123,9.2364 1.2141,4.125 2.7639,9.3 3.4439,11.5 0.68,2.2 2.0243,6.925 2.9874,10.5 0.9631,3.575 2.089,7.4 2.5021,8.5 0.413,1.1 1.2153,3.575 1.7829,5.5 3.2966,11.1817 7.5119,24.7934 8.2531,26.6503 0.4721,1.1826 0.6263,2.3822 0.3428,2.6657 -0.7861,0.7861 -32.1911,0.8434 -42.3401,0.077 -7.97,-0.6017 -9.0308,-0.911 -9.5511,-2.785 -0.3218,-1.1596 -0.9692,-3.0083 -1.4385,-4.1083 -0.4694,-1.1 -1.8252,-5.825 -3.0129,-10.5 -2.5201,-9.9195 -6.7995,-26.1895 -8.0221,-30.5 -0.4681,-1.65 -1.1714,-4.125 -1.5629,-5.5 -1.4872,-5.2221 0.062,-5.0429 -43.0322,-4.9774 -34.4968,0.053 -40.5495,0.2789 -41.835,1.5644 -1.5048,1.5048 -2.091,3.2819 -5.0839,15.413 -0.882,3.575 -2.004,7.85 -2.4934,9.5 -0.4893,1.65 -1.5475,5.475 -2.3515,8.5 -4.0679,15.3058 -5.8067,21.4815 -6.2503,22.1994 -0.2688,0.4349 -1.926,0.7508 -3.6827,0.702 -4.2384,-0.1176 -40.7767,1.1207 -42.6941,1.447 -0.825,0.1403 -2.2875,0.086 -3.25,-0.1199 z m 134.6142,-109.732 c -0.075,-2.1981 -0.8868,-6.9215 -1.8047,-10.4965 -0.9179,-3.575 -2.0697,-8.075 -2.5596,-10 -1.9168,-7.5327 -4.521,-17 -7.427,-27 -0.8791,-3.025 -1.88,-7.075 -2.2244,-9 -0.3443,-1.925 -0.9568,-3.95 -1.3611,-4.5 -0.4043,-0.55 -1.0544,-3.2036 -1.4446,-5.8969 -0.3902,-2.6934 -1.0667,-5.6184 -1.5034,-6.5 -1.1287,-2.2791 -2.5999,-7.4498 -4.5817,-16.1031 -2.2478,-9.815 -3.2236,-12.2433 -4.7221,-11.7515 -1.2709,0.4171 -2.4048,4.025 -5.8929,18.7515 -1.1074,4.675 -2.3911,9.4 -2.8527,10.5 -0.4617,1.1 -1.0538,3.125 -1.316,4.5 -0.2621,1.375 -1.2017,4.975 -2.088,8 -0.8863,3.025 -1.8666,7.075 -2.1784,9 -0.3119,1.925 -0.9204,4.4 -1.3523,5.5 -0.4319,1.1 -2.6841,8.975 -5.0049,17.5 -2.3208,8.525 -4.5793,16.625 -5.019,18 -2.577,8.0588 -3.2465,10.997 -2.7819,12.2078 0.4214,1.0983 5.8246,1.3497 28.3855,1.3208 l 27.865,-0.036 z m 21.4069,-74.3096 c 0.2435,-0.7308 -0.2136,-0.9543 -1.1875,-0.5805 -0.871,0.3342 -1.5836,1.047 -1.5836,1.584 0,1.3144 2.2728,0.4913 2.7711,-1.0035 z m -303.2711,182.7734 c -16.447,-0.5549 -20.4819,-1.3907 -29.9664,-6.2074 -9.1756,-4.6598 -17.8389,-17.3719 -19.595,-28.7529 -2.323,-15.0547 -2.6508,-25.8962 -2.8565,-94.4763 -0.2381,-79.3948 0.055,-85.5077 4.6856,-97.7737 2.7028,-7.1593 4.1684,-8.5126 4.332,-4 l 0.1,2.75 0.7201,-2.5 c 0.396,-1.375 0.3359,-2.7609 -0.1336,-3.0799 -2.9757,-2.0216 6.731,-12.8206 15.3434,-17.07 11.2783,-5.5647 8.776,-5.3501 62.3707,-5.3501 49.7644,0 50.033,0.011 57,2.3406 6.7262,2.249 15.7463,7.7527 18.1474,11.0729 0.631,0.8726 2.0624,2.632 3.1808,3.9098 3.0196,3.45 7.7385,13.8144 9.5646,21.0075 1.2454,4.9055 1.6072,11.4908 1.6072,29.25 v 22.9192 h -24.5 -24.5 l -0.01,-4.25 c -0.01,-2.3375 -0.118,-10.775 -0.25,-18.75 -0.3777,-22.8168 0.7933,-22.1425 -38.2613,-22.0307 -15.6653,0.045 -29.8404,0.3531 -31.5001,0.685 -4.0567,0.8114 -7.7278,5.4191 -8.4457,10.6005 -0.3235,2.3349 -0.4632,35.9702 -0.3105,74.7452 0.2652,67.341 0.3627,70.6256 2.1761,73.3012 3.7511,5.5345 4.8356,5.6988 37.6015,5.6988 32.3143,0 34.2609,-0.2734 36.7675,-5.1646 2.2861,-4.461 3.1837,-11.4104 3.2081,-24.8354 l 0.025,-13.5 h 24 24 l -10e-5,23.691 c 0,13.0301 -0.3863,23.9298 -0.8585,24.2216 -0.4722,0.2918 -1.1014,3.2084 -1.3982,6.4812 -0.6002,6.6192 -4.2017,14.5897 -9.6602,21.3792 -3.6396,4.527 -10.2667,9.727 -12.3965,9.727 -0.7076,0 -1.7141,0.3837 -2.2366,0.8526 -3.2746,2.9388 -11.6151,3.5884 -46.45,3.6176 -19.525,0.016 -42.7,-0.2131 -51.5,-0.5099 z m 114.1831,-85.1478 c -0.3192,-0.7977 -0.5562,-0.5607 -0.6042,0.6042 -0.043,1.0542 0.193,1.6448 0.5253,1.3125 0.3323,-0.3323 0.3678,-1.1948 0.079,-1.9167 z m -158.6831,-141.3715 c 0,-0.8574 -0.4573,-1.2763 -1.0163,-0.9309 -0.559,0.3455 -0.7574,1.047 -0.441,1.559 0.8572,1.3871 1.4573,1.1285 1.4573,-0.6281 z m 158,0.7257 c 0,-1.3021 -1.1888,-2.168 -2.1558,-1.5704 -1.0342,0.6392 -0.1424,2.4037 1.2148,2.4037 0.5176,0 0.941,-0.375 0.941,-0.8333 z m 314.8135,225.8141 c -15.1634,-1.4406 -29.6289,-11.5642 -35.5183,-24.8576 -1.3102,-2.9573 -2.9928,-9.4823 -3.7391,-14.5 -1.6344,-10.9886 -1.5682,-39.0111 0.096,-40.6753 1.2513,-1.2513 44.8468,-1.7822 46.068,-0.561 0.3817,0.3817 0.6107,5.2883 0.509,10.9035 -0.3376,18.6299 2.1088,23.378 12.6877,24.6253 8.4193,0.9927 53.9274,0.5115 57.5154,-0.6082 1.6127,-0.5033 3.8627,-2.1614 5,-3.6847 1.9036,-2.5498 2.0677,-4.1406 2.0677,-20.0449 0,-19.435 -0.569,-21.5909 -6.4675,-24.5034 -1.9429,-0.9594 -6.2325,-2.5379 -9.5325,-3.508 -3.3,-0.97 -8.505,-2.6192 -11.5666,-3.665 -3.0616,-1.0458 -6.3302,-1.9015 -7.2636,-1.9015 -0.9333,0 -2.4783,-0.4455 -3.4334,-0.9901 -1.4578,-0.8313 -13.9858,-4.751 -25.7364,-8.0522 -1.65,-0.4636 -6.15,-1.7316 -10,-2.8178 -3.85,-1.0861 -9.475,-2.9603 -12.5,-4.1647 -3.025,-1.2044 -6.4,-2.5345 -7.5,-2.9558 -11.3827,-4.3596 -21.5438,-13.0571 -25.7246,-22.0194 -3.7514,-8.0417 -4.8939,-17.9384 -4.6747,-40.4935 0.2657,-27.3298 1.21,-36.5263 4.5701,-44.5065 1.5053,-3.575 3.3512,-7.1256 4.1019,-7.8903 0.7508,-0.7646 2.0783,-2.4788 2.95,-3.8092 1.9722,-3.0099 13.4569,-11.3005 15.6543,-11.3005 0.8926,0 1.623,-0.3571 1.623,-0.7937 0,-0.4365 2.8125,-1.449 6.25,-2.25 8.7456,-2.0377 90.7318,-2.1325 98.25,-0.1135 17.4817,4.6946 26.1619,12.6694 32.2805,29.6572 2.1495,5.9678 3.2195,16.462 3.2203,31.582 l 8e-4,15.418 -23.7508,-0.2867 -23.7508,-0.2868 -0.2227,-11.9568 c -0.3735,-20.046 -0.2332,-19.9697 -36.6801,-19.9697 -14.5568,0 -27.5781,0.4225 -28.9361,0.9388 -1.358,0.5163 -3.4123,1.9511 -4.5651,3.1885 -1.9637,2.1079 -2.096,3.3628 -2.096,19.887 0,21.9526 -1.1385,20.428 19.5,26.1121 2.2,0.6059 4.9,1.4829 6,1.949 1.1,0.4661 4.475,1.5944 7.5,2.5074 3.025,0.9129 7.525,2.3301 10,3.1492 2.475,0.819 7.875,2.3705 12,3.4477 4.125,1.0772 8.85,2.359 10.5,2.8484 1.65,0.4895 5.25,1.5395 8,2.3332 11.0583,3.192 15.6721,4.9454 27.3146,10.3806 1.823,0.851 5.9744,4.2072 9.2253,7.4581 7.6548,7.6548 11.6481,15.9066 13.0585,26.9846 1.2935,10.1596 1.685,44.3648 0.6332,55.3154 -2.3304,24.2612 -14.4033,38.8956 -35.7316,43.313 -6.4541,1.3367 -85.4205,2.2856 -97.1865,1.1678 z m 9.7907,-121.7099 c -1.0166,-1.0165 -1.8553,0.5139 -1.0213,1.8634 0.6301,1.0194 0.8656,1.0202 1.2043,0 0.2316,-0.6948 0.1493,-1.5351 -0.183,-1.8674 z m 204.8958,121.7838 c -16.0514,-2.0683 -26.8576,-9.906 -33.8548,-24.5547 -5.84,-12.226 -5.7789,-11.0239 -5.3629,-105.5 0.2094,-47.575 0.7123,-88.075 1.1174,-90 2.6981,-12.8205 11.2211,-24.9836 21.1742,-30.2176 10.8152,-5.6873 13.112,-5.931 61.1061,-6.4834 48.6026,-0.5594 54.8372,-0.045 66.0532,5.4467 6.7953,3.3273 15.3578,11.8929 19.1036,19.1103 4.8566,9.3579 6.1198,17.9138 6.4069,43.3951 l 0.2563,22.751 h -24.25 -24.25 v -17.0988 c 0,-18.7387 -0.7802,-22.16 -5.8362,-25.5926 -2.43,-1.6498 -5.3066,-1.8025 -32.7693,-1.7397 -33.5318,0.077 -34.8225,0.2894 -38.1981,6.2954 -2.0827,3.7057 -2.1068,4.5146 -2.1992,73.6913 -0.051,38.4694 -0.071,71.5194 -0.044,73.4444 0.052,3.6519 2.6976,7.4493 6.7941,9.75 1.649,0.9262 10.3528,1.25 33.5932,1.25 h 31.3676 l 2.6562,-2.4616 c 1.4609,-1.354 3.1016,-3.6333 3.646,-5.0651 0.5444,-1.4319 0.9898,-10.2322 0.9898,-19.5561 v -16.9527 l 24.25,0.2678 24.25,0.2677 0.073,19 c 0.092,23.8685 -0.9662,35.1943 -3.9859,42.6704 -2.4724,6.1209 -11.0485,18.2623 -13.5872,19.2355 -0.825,0.3163 -3.75,1.9145 -6.5,3.5517 -2.75,1.6371 -6.1475,2.9914 -7.55,3.0095 -1.4025,0.018 -3.0761,0.5591 -3.7192,1.2021 -1.3764,1.3765 -90.8195,2.1627 -100.7308,0.8855 z m 166.847,-0.055 -9.1529,-0.5 1.2711,-4 c 0.6992,-2.2 2.0399,-6.7 2.9794,-10 0.9395,-3.3 2.0899,-6.9 2.5565,-8 0.4665,-1.1 1.0529,-3.125 1.3031,-4.5 0.2502,-1.375 1.2231,-5.2 2.162,-8.5 0.9389,-3.3 2.0756,-7.35 2.526,-9 2.3825,-8.7283 5.2908,-18.1924 6.0312,-19.6268 0.4619,-0.8948 1.1466,-3.2623 1.5216,-5.2611 0.3749,-1.9988 1.0807,-3.8807 1.5684,-4.1821 0.4876,-0.3014 0.8866,-1.8449 0.8866,-3.43 0,-1.585 0.3981,-3.128 0.8847,-3.4287 0.4866,-0.3007 1.1313,-1.7898 1.4327,-3.309 0.3014,-1.5192 1.2918,-5.2373 2.2009,-8.2623 0.9091,-3.025 2.0267,-6.85 2.4836,-8.5 0.4569,-1.65 2.7051,-9.525 4.9961,-17.5 2.291,-7.975 4.3912,-15.4 4.6672,-16.5 0.2759,-1.1 0.882,-2.9 1.3469,-4 0.8302,-1.9647 2.5307,-7.5977 4.9812,-16.5 0.6812,-2.475 1.573,-5.625 1.9817,-7 0.4087,-1.375 1.5338,-5.2 2.5002,-8.5 0.9664,-3.3 2.1164,-6.9 2.5556,-8 1.1057,-2.7693 3.0598,-10.3456 3.6755,-14.25 0.2819,-1.7875 0.9133,-3.25 1.4031,-3.25 0.4898,0 0.8906,-1.0249 0.8906,-2.2777 0,-1.2528 1.071,-5.6403 2.38,-9.75 1.309,-4.1097 3.1833,-10.6223 4.1651,-14.4723 0.9819,-3.85 2.0943,-7.45 2.4722,-8 0.3778,-0.55 1.5119,-4.375 2.5202,-8.5 1.0083,-4.125 2.1998,-7.9275 2.6479,-8.45 0.448,-0.5225 0.8146,-1.6702 0.8146,-2.5506 0,-0.8803 0.5625,-2.8411 1.25,-4.3573 l 1.25,-2.7566 28.3397,0.252 c 15.5868,0.1385 30.1424,0.5018 32.3458,0.8072 4.5225,0.6269 4.1201,-0.2432 12.2786,26.5553 5.2991,17.4063 6.1079,20.2369 8.0001,28 0.9383,3.85 2.1178,7.7814 2.621,8.7365 0.5031,0.955 0.9148,2.5034 0.9148,3.4409 0,1.5963 4.263,16.4022 5.9953,20.8226 0.4311,1.1 1.5875,4.925 2.5698,8.5 0.9823,3.575 2.0966,6.95 2.4762,7.5 0.3797,0.55 0.9385,2.125 1.2419,3.5 0.3034,1.375 1.2236,4.75 2.0449,7.5 0.8214,2.75 2.8858,9.95 4.5877,16 4.1703,14.825 7.2495,25.4329 9.1437,31.5 0.4293,1.375 1.5377,5.2 2.4631,8.5 0.9254,3.3 2.0377,7.125 2.4718,8.5 0.434,1.375 2.6947,8.575 5.0237,16 2.329,7.425 4.5938,14.4 5.0329,15.5 0.4391,1.1 1.0201,3.125 1.2911,4.5 0.271,1.375 1.2406,4.975 2.1548,8 1.7121,5.6658 2.4798,8.5414 4.8054,18 1.3042,5.3046 1.7937,6.8328 3.7791,11.7971 1.3219,3.3055 1.1355,4.5001 -0.5985,3.8348 -0.8344,-0.3202 -11.8594,-0.6216 -24.5,-0.6699 -12.9969,-0.049 -22.9829,-0.4812 -22.9829,-0.9934 0,-0.4982 -0.5952,-0.6774 -1.3226,-0.3983 -0.8983,0.3447 -1.7133,-1.0289 -2.5402,-4.2813 -0.6696,-2.6339 -1.6105,-6.139 -2.0907,-7.789 -1.0514,-3.6121 -3.9426,-13.8417 -5.0874,-18 -0.4543,-1.65 -1.9477,-7.275 -3.3187,-12.5 -1.371,-5.225 -2.8035,-10.5125 -3.1832,-11.75 l -0.6905,-2.25 h -41.4081 -41.4081 l -1.029,2.7065 c -0.5659,1.4885 -2.109,6.776 -3.429,11.75 -4.5457,17.1283 -11.6725,42.7339 -12.0632,43.3413 -0.3549,0.5518 -31.8462,0.7068 -41.0823,0.2022 z m 126.3822,-105.3959 c 0.6034,-0.6033 -1.5128,-9.9857 -5.3237,-23.6041 -2.2294,-7.9665 -6.4303,-24.0867 -7.0362,-27 -0.286,-1.375 -0.8864,-3.4 -1.3342,-4.5 -0.4478,-1.1 -1.5896,-4.925 -2.5372,-8.5 -0.9477,-3.575 -2.0842,-7.625 -2.5257,-9 -0.4415,-1.375 -1.548,-5.65 -2.4591,-9.5 -0.911,-3.85 -2.0547,-8.575 -2.5414,-10.5 -0.4868,-1.925 -1.2507,-5.2654 -1.6977,-7.4231 -0.9409,-4.5423 -2.7143,-5.675 -3.7069,-2.3677 -0.7556,2.5172 -4.5209,16.5292 -8.0056,29.7908 -1.2284,4.675 -2.4792,9.175 -2.7796,10 -0.3003,0.825 -1.0277,3.3 -1.6164,5.5 -3.4222,12.7902 -4.4235,16.1739 -5.2486,17.7365 -0.5043,0.955 -0.9169,2.6268 -0.9169,3.715 0,1.0883 -0.6068,3.9069 -1.3485,6.2636 -0.7416,2.3567 -1.9126,6.7599 -2.6021,9.7849 -0.6895,3.025 -1.8827,7.4283 -2.6515,9.785 -0.7689,2.3567 -1.3979,5.5893 -1.3979,7.1836 0,2.408 0.4655,2.9597 2.75,3.2595 4.756,0.6241 52.291,0.064 52.9792,-0.624 z m 115.8876,90.7042 c 0.5286,-15.9274 0.4926,-26.4374 -0.1158,-33.8083 -0.1815,-2.2 -0.3083,-16.375 -0.2816,-31.5 0.067,-38.159 0.072,-66.6649 0.016,-100 -0.026,-15.675 -0.014,-34.8 0.028,-42.5 0.042,-7.7 -0.1133,-18.5 -0.3442,-24 l -0.4197,-10 h 69 c 69.2374,0 74.7075,0.2375 81.5,3.5379 0.825,0.4008 2.85,1.3419 4.5,2.0913 1.65,0.7494 5.7063,4.0644 9.0139,7.3667 7.8198,7.807 11.7547,15.8196 13.7529,28.0041 1.1808,7.2003 1.5893,158.0776 0.4616,170.5 -1.4045,15.4723 -5.139,24.3585 -13.9554,33.2065 -3.1498,3.1611 -7.4248,6.4669 -9.5,7.3461 -10.3473,4.3844 -8.8811,4.297 -82.9769,4.9431 l -71.2039,0.6209 z m 122.7933,-33.3083 c 1.6005,-0.825 3.8505,-2.7704 5,-4.3231 2.078,-2.8071 2.0891,-3.2366 1.9467,-75.5 -0.1447,-73.4054 -0.2436,-80.6849 -1.0656,-78.4324 -0.3237,0.8868 -1.7177,0.5038 -4.8518,-1.3328 l -4.3976,-2.5772 -34.7709,0.3328 c -19.124,0.183 -35.3343,0.6974 -36.023,1.143 -1.7412,1.1269 -1.8085,159.3093 -0.069,161.4057 1.7497,2.1083 70.0292,1.4497 74.2308,-0.716 z m 105.5666,-21.2257 c -0.046,-140.2444 0.078,-186.162 0.5048,-186.5891 0.2395,-0.2395 11.0291,-0.539 23.9769,-0.6657 l 23.5416,-0.2302 v 128.3554 128.3553 l -12.25,0.088 c -6.7375,0.049 -17.5375,0.2845 -24,0.5242 l -11.75,0.4359 z m 82.7071,69.5762 c -0.3025,-0.3025 -0.177,-1.5176 0.279,-2.7002 0.4559,-1.1827 1.378,-4.1753 2.049,-6.6503 0.6711,-2.475 1.5906,-5.625 2.0434,-7 0.4528,-1.375 2.665,-8.575 4.9159,-16 2.2509,-7.425 4.7987,-15.75 5.6617,-18.5 2.9615,-9.4368 5.9616,-19.8877 7.4639,-26 0.5407,-2.2 2.1105,-7.825 3.4884,-12.5 1.378,-4.675 2.999,-10.3 3.6022,-12.5 2.1362,-7.7906 6.0273,-20.0238 6.9138,-21.7364 0.4944,-0.955 0.8989,-2.2784 0.8989,-2.9409 0,-1.0782 4.3675,-16.0493 5.7828,-19.8227 0.3095,-0.825 1.1187,-3.75 1.7983,-6.5 0.6795,-2.75 1.6976,-6.575 2.2623,-8.5 0.5647,-1.925 1.7509,-6.2 2.6361,-9.5 1.6158,-6.024 1.9966,-7.3514 5.0205,-17.5 2.1921,-7.3569 2.9603,-10.0778 5.5058,-19.5 1.1888,-4.4 2.5287,-8.9 2.9777,-10 0.946,-2.3173 2.9045,-9.1119 6.4856,-22.5 1.3976,-5.225 3.0658,-11.2026 3.7071,-13.2835 l 1.1661,-3.7836 33.0256,0.2836 33.0256,0.2835 2.7156,8 c 2.8201,8.3079 7.2116,22.4329 8.8608,28.5 0.5232,1.925 2.0531,7.1 3.3996,11.5 1.3466,4.4 3.8917,13.4 5.6558,20 1.7641,6.6 3.5538,12.9 3.9771,14 0.4233,1.1 1.3387,4.025 2.0343,6.5 0.6956,2.475 2.2868,7.65 3.5361,11.5 2.2689,6.9923 6.0969,19.3687 12.9905,42 2.0103,6.6 3.8807,13.4667 4.1564,15.2593 0.2757,1.7926 0.9016,3.5067 1.3908,3.809 0.4892,0.3024 0.8895,1.6391 0.8895,2.9705 0,1.3314 0.6211,4.1174 1.3802,6.191 0.759,2.0736 1.9393,5.7952 2.6227,8.2702 2.4108,8.7314 4.149,14.5223 4.9523,16.5 0.4469,1.1 1.6028,4.7 2.5687,8 0.9659,3.3 2.0982,6.9 2.5162,8 0.4179,1.1 1.5205,4.7 2.4502,8 2.0826,7.3924 4.6767,16.3425 7.9854,27.5516 1.3884,4.7034 2.524,8.9784 2.5236,9.5 -5e-4,0.5735 -10.1378,0.945 -25.6387,0.9397 l -25.6379,-0.01 -0.9307,-2.4913 c -1.1889,-3.1826 -3.1486,-10.4318 -6.891,-25.4913 -1.6402,-6.6 -3.6389,-14.5045 -4.4416,-17.5656 -0.8027,-3.061 -1.4594,-6.5485 -1.4594,-7.75 0,-1.2014 -0.417,-2.1844 -0.9267,-2.1844 -0.5097,0 -1.0722,-0.6968 -1.25,-1.5484 -0.2858,-1.3688 -5.0706,-1.5403 -41.2466,-1.4786 -24.6933,0.042 -41.3841,0.4522 -42.0852,1.0341 -1.3144,1.0908 -2.5078,4.7646 -5.5202,16.9929 -1.1516,4.675 -2.4763,9.85 -2.9438,11.5 -0.4674,1.65 -1.806,6.825 -2.9747,11.5 -1.1686,4.675 -2.7251,10.525 -3.4589,13 l -1.334,4.5 -25.013,0.2003 c -13.7572,0.1101 -25.2606,-0.047 -25.5631,-0.3498 z m 155.9785,-50.6005 c -0.2774,-0.6875 -0.5044,-0.125 -0.5044,1.25 0,1.375 0.227,1.9375 0.5044,1.25 0.2774,-0.6875 0.2774,-1.8125 0,-2.5 z m -2.0623,-7.35 c -0.3559,-0.9274 -0.8721,-1.4612 -1.1471,-1.1862 -0.275,0.275 -0.2088,1.2588 0.1471,2.1862 0.3559,0.9275 0.8721,1.4613 1.1471,1.1863 0.275,-0.275 0.2088,-1.2588 -0.1471,-2.1863 z m -128.6,-5.8409 c 0,-0.2426 -0.45,-0.7191 -1,-1.0591 -0.55,-0.3399 -1,-0.1414 -1,0.441 0,0.5825 0.45,1.059 1,1.059 0.55,0 1,-0.1984 1,-0.4409 z m 4,-4 c 0,-0.2426 -0.45,-0.7191 -1,-1.0591 -0.55,-0.3399 -1,-0.1414 -1,0.441 0,0.5825 0.45,1.059 1,1.059 0.55,0 1,-0.1984 1,-0.4409 z m 103.9742,-37.342 c 4.3509,-0.6385 4.5059,-2.5462 0.9516,-11.7171 -0.4263,-1.1 -1.0081,-3.125 -1.2927,-4.5 -0.6052,-2.9227 -2.4315,-9.7818 -6.124,-23 -1.4597,-5.225 -3.0279,-11.075 -3.4849,-13 -0.4571,-1.925 -1.6037,-6.2 -2.5481,-9.5 -0.9443,-3.3 -1.9217,-7.125 -2.1719,-8.5 -0.2502,-1.375 -0.8307,-3.4 -1.29,-4.5 -1.4946,-3.5794 -4.0142,-12.3362 -4.0142,-13.9514 0,-0.8666 -0.4112,-2.3571 -0.9138,-3.3121 -0.5026,-0.9551 -1.4349,-4.324 -2.0717,-7.4865 -1.2634,-6.2736 -3.5141,-7.7362 -4.6165,-3 -0.352,1.5125 -2.3254,9.5 -4.3853,17.75 -2.0599,8.25 -3.9965,16.125 -4.3035,17.5 -0.307,1.375 -1.7613,6.775 -3.2319,12 -1.4706,5.225 -3.0054,11.075 -3.4106,13 -0.7405,3.5175 -4.6266,16.7684 -6.012,20.5 -1.9812,5.3365 -4.0547,12.4365 -4.0547,13.8843 0,0.8886 -0.45,1.6157 -1,1.6157 -1.1472,0 -1.3697,5.297 -0.2688,6.3979 0.7479,0.7479 49.0118,0.587 54.243,-0.1808 z m -83.9742,-49.2761 c 0,-0.5175 -0.45,-0.941 -1,-0.941 -0.55,0 -1,0.7016 -1,1.5591 0,0.8574 0.45,1.2809 1,0.9409 0.55,-0.3399 1,-1.0414 1,-1.559 z"
       id="path3" /></g></svg>
