<svg xmlns="http://www.w3.org/2000/svg" viewBox="0 0 792 396" preserveAspectRatio="xMidYMid slice">
<polyline points="0,23 4,24 4,29 8,26 13,23 13,21 10,15 13,9 11,7 10,13 4,15 0,12" fill="none" stroke="#06b6d4" stroke-width="1.1" stroke-opacity="0.55" stroke-linejoin="round"/>
<polyline points="26,394 32,392 26,388 22,389 20,393" fill="none" stroke="#06b6d4" stroke-width="1.1" stroke-opacity="0.55" stroke-linejoin="round"/>
<polyline points="20,5 17,11 16,15 21,13 20,5" fill="none" stroke="#06b6d4" stroke-width="1.1" stroke-opacity="0.55" stroke-linejoin="round"/>
<polyline points="746,284 744,289 739,285 735,288 737,294 737,301 733,296 728,297 729,301 733,307 739,305 744,309 746,314 741,318 737,317 733,323 731,330 732,334 735,334 741,338 747,341 752,340 758,337 761,330 758,326 753,323 749,319 754,315 759,310 763,312 766,319 763,322 764,326 769,321 774,319 775,326 783,326 781,321 779,315 781,310 777,305 770,306 765,304 766,297 762,295 757,299 752,294 748,291 752,288 752,286 746,284" fill="none" stroke="#06b6d4" stroke-width="1.1" stroke-opacity="0.55" stroke-linejoin="round"/>
<polyline points="67,0 68,5 70,10 77,12 79,9 81,2" fill="none" stroke="#3b82f6" stroke-width="0.7" stroke-opacity="0.35" stroke-linejoin="round"/>
<polyline points="767,0 770,5 779,6 784,9 785,13 781,20 779,22 776,26 779,33 783,36 788,33" fill="none" stroke="#3b82f6" stroke-width="0.7" stroke-opacity="0.35" stroke-linejoin="round"/>
<polyline points="0,37 6,35 11,33 15,31 21,33 26,35 33,33 33,29 32,24 35,19 40,15 46,16 48,13 48,9 52,11 55,12 62,11 59,8 55,5 48,3 43,0" fill="none" stroke="#3b82f6" stroke-width="0.7" stroke-opacity="0.35" stroke-linejoin="round"/>
<polyline points="790,44 788,49 785,55 787,59 782,64 779,69 775,70 774,77 779,80 784,77 788,81" fill="none" stroke="#3b82f6" stroke-width="0.7" stroke-opacity="0.35" stroke-linejoin="round"/>
<polyline points="0,99 3,101 4,106 4,110 10,112 13,114 11,108 20,107 26,108 27,101 26,96 26,94 22,99 19,101 18,97 16,90 13,88 15,83 19,81 24,79 20,74 18,70 23,66 27,62 24,56 24,61 20,56 14,55 13,62 9,67 7,73 2,69" fill="none" stroke="#3b82f6" stroke-width="0.7" stroke-opacity="0.35" stroke-linejoin="round"/>
<polyline points="790,290 786,293 784,286 782,286 779,284 777,279 773,275 770,268 767,264 759,264 755,262 760,260 764,257 768,251 772,246 766,243 761,238 763,235 770,236 772,231 775,224 774,218 776,211 772,206 768,202 759,202 755,200 748,203 744,205 740,202 739,205 737,211 734,216 730,222 725,224 724,229 723,235 728,239 733,243 738,242 737,250 728,249 724,254 722,259 728,261 735,264 741,261 739,265 733,268 728,267 723,264 718,266 715,272 715,279 715,283 716,290 713,293 718,297 721,304 719,310 723,315 726,315 725,321 725,330 728,337 732,341 739,342 744,345 752,345 757,346 762,343 765,337 768,334 772,337 770,341 777,345 780,339 785,334 790,332" fill="none" stroke="#3b82f6" stroke-width="0.7" stroke-opacity="0.35" stroke-linejoin="round"/>
<polyline points="0,332 3,328 11,327 15,321 18,317 13,314 9,309 7,309 4,305 5,299 2,299 2,294" fill="none" stroke="#3b82f6" stroke-width="0.7" stroke-opacity="0.35" stroke-linejoin="round"/>
<polyline points="790,379 785,375 783,369 781,375 777,380 772,381 773,385 770,390 768,394" fill="none" stroke="#3b82f6" stroke-width="0.7" stroke-opacity="0.35" stroke-linejoin="round"/>
<polyline points="46,394 42,388 37,384 32,385 26,381 22,378 16,381 14,381 9,378 4,374" fill="none" stroke="#3b82f6" stroke-width="0.7" stroke-opacity="0.35" stroke-linejoin="round"/>
<polyline points="77,394 82,392 85,385 81,379 77,375 74,381 70,385 64,383 62,385 64,391" fill="none" stroke="#3b82f6" stroke-width="0.7" stroke-opacity="0.35" stroke-linejoin="round"/>
<polyline points="752,89 746,92 744,95 748,97 755,93 752,89" fill="none" stroke="#3b82f6" stroke-width="0.7" stroke-opacity="0.35" stroke-linejoin="round"/>
<polyline points="59,123 54,125 54,130 57,132 60,125 59,123" fill="none" stroke="#3b82f6" stroke-width="0.7" stroke-opacity="0.35" stroke-linejoin="round"/>
<polyline points="730,123 726,127 729,130 730,137 737,139 740,141 744,143 746,149 749,154 752,151 756,145 758,139 759,142 762,143 766,141 766,136 759,133 755,137 752,132 745,130 739,127 731,125" fill="none" stroke="#3b82f6" stroke-width="0.7" stroke-opacity="0.35" stroke-linejoin="round"/>
<polyline points="29,136 26,141 31,145 35,145 35,139 31,136" fill="none" stroke="#3b82f6" stroke-width="0.7" stroke-opacity="0.35" stroke-linejoin="round"/>
<polyline points="130,138 123,139 119,144 120,150 125,153 130,148 134,143 132,140" fill="none" stroke="#3b82f6" stroke-width="0.7" stroke-opacity="0.35" stroke-linejoin="round"/>
<polyline points="42,144 44,149 48,152 47,147 42,144" fill="none" stroke="#3b82f6" stroke-width="0.7" stroke-opacity="0.35" stroke-linejoin="round"/>
<polyline points="106,195 103,200 101,205 106,207 108,202 106,195" fill="none" stroke="#3b82f6" stroke-width="0.7" stroke-opacity="0.35" stroke-linejoin="round"/>
<polyline points="114,200 114,207 111,213 115,216 118,209 123,205 122,200 117,201" fill="none" stroke="#3b82f6" stroke-width="0.7" stroke-opacity="0.35" stroke-linejoin="round"/>
<polyline points="755,226 757,229 752,233 751,238 757,236 757,240 760,246 753,249 748,248 743,244 741,238 741,231 741,231 750,230 755,226" fill="none" stroke="#3b82f6" stroke-width="0.7" stroke-opacity="0.35" stroke-linejoin="round"/>
<polyline points="700,267 702,272 702,279 707,277 710,271 704,267" fill="none" stroke="#3b82f6" stroke-width="0.7" stroke-opacity="0.35" stroke-linejoin="round"/>
<polyline points="689,287 689,293 694,295 702,294 708,293 706,288 703,290 697,288 689,287" fill="none" stroke="#3b82f6" stroke-width="0.7" stroke-opacity="0.35" stroke-linejoin="round"/>
<polyline points="15,327 11,332 13,336 19,337 20,331 22,331 20,327" fill="none" stroke="#3b82f6" stroke-width="0.7" stroke-opacity="0.35" stroke-linejoin="round"/>
<polyline points="64,343 64,346 57,345 55,348 55,355 51,361 44,362 44,369 48,369 52,363 57,364 58,361 62,356 65,350 68,348 70,345 64,343" fill="none" stroke="#3b82f6" stroke-width="0.7" stroke-opacity="0.35" stroke-linejoin="round"/>
<polyline points="77,347 73,351 68,353 77,353 77,347" fill="none" stroke="#3b82f6" stroke-width="0.7" stroke-opacity="0.35" stroke-linejoin="round"/>
<polyline points="756,0 759,6 764,9 765,13 768,19 770,23 763,25 757,28 755,31 752,33 748,28 744,24 737,25 733,26 734,31 739,33 736,35 733,37 730,44 726,49 726,54 728,55 730,51 737,49 743,46 744,42 746,41 752,42 752,47 759,49 766,51 766,57 768,59 761,64 757,66 754,64 752,72 746,73 740,75 735,70 730,72 730,74 735,78 737,84 737,88 735,94 733,97 735,105 735,110 733,118 724,118 717,120 713,119 711,114 708,119 708,125 704,120 699,119 703,123 702,130 699,134 698,130 695,130 693,127 689,128 692,134 699,136 699,145 704,148 703,143 703,141 706,139 708,135 713,132 717,136 723,139 724,144 726,148 733,145 735,152 739,156 738,163 736,169 737,174 735,180 737,180 744,185 737,187 730,191 729,183 730,178 733,176 728,175 725,169 719,165 714,167 716,161 711,157 708,157 705,156 703,163 702,168 702,174 695,178 689,179 682,182 680,189 686,192 693,194 698,198 701,205 704,211 711,213 711,216 714,218 711,224 711,230 713,234 707,238 706,244 702,251 697,250 693,255 686,255 684,261 693,261 693,268 694,273 691,279 684,277 681,279 676,282 673,279 672,282 667,286 665,288 667,295 664,295 667,300 673,303 680,300 686,299 689,302 691,306 697,309 702,310 708,308 715,310 716,317 718,323 718,328 720,334 723,341 717,344 713,347 718,350 718,359 722,360 722,367 726,370 730,368 737,365 741,366 747,365 746,368 750,370 752,365 752,363 758,363 761,367 766,373 763,376 758,381 757,389" fill="none" stroke="#3b82f6" stroke-width="0.7" stroke-opacity="0.35" stroke-linejoin="round"/>
<polyline points="0,138 5,141 11,139 13,133 18,133 21,139 23,145 27,150 32,154 36,158 40,163 45,161 46,158 53,156 59,153 61,150 61,141 66,141 66,136 66,131 68,126 66,123 64,116 55,117 52,114 50,119 44,122 40,120 37,115 37,112 35,108 37,100 36,95 37,90 37,85 34,79 31,75 29,70 33,66 35,62 34,57 34,53 36,46 37,39 37,35 41,29 44,29 47,22 53,23 59,24 64,24 69,26 75,26 79,23 81,17 83,20 88,19 92,15 90,10 86,4 87,0" fill="none" stroke="#3b82f6" stroke-width="0.7" stroke-opacity="0.35" stroke-linejoin="round"/>
<polyline points="790,191 781,191 774,194 771,191 766,192 761,194 759,190 761,185 766,185 766,179 766,176 759,177 753,180 750,187 747,189 747,180 744,175 746,172 748,170 752,167 757,165 761,160 759,154 761,150 766,146 770,143 770,138 775,141 777,145 783,142 788,137" fill="none" stroke="#3b82f6" stroke-width="0.7" stroke-opacity="0.35" stroke-linejoin="round"/>
<polyline points="0,212 2,209 4,206 2,201 2,196" fill="none" stroke="#3b82f6" stroke-width="0.7" stroke-opacity="0.35" stroke-linejoin="round"/>
<polyline points="790,276 785,272 779,269 775,264 777,256 778,249 776,242 779,238 785,233 788,229" fill="none" stroke="#3b82f6" stroke-width="0.7" stroke-opacity="0.35" stroke-linejoin="round"/>
<polyline points="790,358 783,359 779,356 779,350 786,348" fill="none" stroke="#3b82f6" stroke-width="0.7" stroke-opacity="0.35" stroke-linejoin="round"/>
<polyline points="87,394 92,389 90,381 88,376 91,376 92,372 90,365 87,365 83,367 82,359 82,350 85,343 84,334 77,334 70,336 73,331 77,332 81,326 81,319 79,312 75,309 70,305 64,302 61,297 57,297 55,291 53,291 48,294 52,299 55,301 62,302 59,308 62,311 64,316 62,323 59,325 53,323 48,327 42,325 42,321 37,323 31,326 28,321 33,317 31,310 26,306 22,300 17,297 11,294 12,288 8,284 3,284 5,277 9,273 7,271 1,275" fill="none" stroke="#3b82f6" stroke-width="0.7" stroke-opacity="0.35" stroke-linejoin="round"/>
<polyline points="768,90 774,90 779,90 783,97 783,101 779,106 775,106 770,106 768,109 761,111 761,105 766,101 766,92" fill="none" stroke="#3b82f6" stroke-width="0.7" stroke-opacity="0.35" stroke-linejoin="round"/>
<polyline points="770,118 775,121 772,123 767,123 770,118" fill="none" stroke="#3b82f6" stroke-width="0.7" stroke-opacity="0.35" stroke-linejoin="round"/>
<polyline points="117,121 114,125 113,130 110,135 110,141 109,143 103,142 99,143 94,141 87,143 91,147 99,149 99,155 98,163 97,170 94,167 95,174 92,179 91,183 95,185 95,190 92,191 95,196 90,198 86,205 91,205 94,211 99,214 104,218 103,224 106,229 112,231 116,231 121,233 125,228 128,233 136,233 139,234 141,235 147,232 147,227 149,220 150,214 147,209 141,206 139,210 136,215 130,211 132,206 130,202 132,196 131,189 129,183 128,178 134,174 137,169 140,163 145,160 148,165 152,171 155,165 151,161 151,156 149,150 146,143 150,136 144,136 145,130 141,134 134,133 130,133 121,133 122,128 117,123 117,121" fill="none" stroke="#3b82f6" stroke-width="0.7" stroke-opacity="0.35" stroke-linejoin="round"/>
<polyline points="161,154 158,158 161,163 165,162 163,156" fill="none" stroke="#3b82f6" stroke-width="0.7" stroke-opacity="0.35" stroke-linejoin="round"/>
<polyline points="119,157 125,159 130,159 135,163 136,169 131,165 130,167 128,174 123,177 116,176 111,176 110,172 116,167 118,161" fill="none" stroke="#3b82f6" stroke-width="0.7" stroke-opacity="0.35" stroke-linejoin="round"/>
<polyline points="156,188 157,194 153,196 151,196 156,199 159,202 158,198 164,198 161,193 156,188" fill="none" stroke="#3b82f6" stroke-width="0.7" stroke-opacity="0.35" stroke-linejoin="round"/>
<polyline points="125,218 132,219 134,226 133,229 130,223 124,220" fill="none" stroke="#3b82f6" stroke-width="0.7" stroke-opacity="0.35" stroke-linejoin="round"/>
<polyline points="684,217 678,220 678,224 680,228 682,231 689,228 695,226 693,222 687,222 688,218" fill="none" stroke="#3b82f6" stroke-width="0.7" stroke-opacity="0.35" stroke-linejoin="round"/>
<polyline points="669,224 662,225 662,233 667,227 671,227 673,224 669,224" fill="none" stroke="#3b82f6" stroke-width="0.7" stroke-opacity="0.35" stroke-linejoin="round"/>
<polyline points="11,340 16,343 18,350 22,352 27,354 32,356 35,359 33,363 29,359 24,355 18,356 13,358 9,358 4,355 4,350 8,345 11,340" fill="none" stroke="#3b82f6" stroke-width="0.7" stroke-opacity="0.35" stroke-linejoin="round"/>
<polyline points="729,0 726,5 719,8 716,13 713,19 707,22 704,26 699,31 697,37 700,39 704,43 709,42 708,49 702,47 700,51 707,53 711,59 713,62 717,61 715,66 708,67 704,67 702,72 707,75 708,79 711,79 719,81 726,83 729,88 726,93 717,93 717,89 709,88 706,92 704,97 704,102 700,108 695,110 692,106 688,108 684,113 679,117 680,122 675,123 671,119 664,119 658,123 656,130 660,136 669,135 673,135 675,139 678,144 682,145 684,145 682,150 685,152 689,150 693,156 696,161 694,167 691,172 688,167 684,162 679,163 674,158 669,154 666,156 667,163 664,167 667,172 663,176 662,183 662,188 666,191 667,198 664,202 662,205 656,208 649,211 647,214 652,218 651,224 653,222 656,225 651,230 646,233 640,232 640,238 644,238 648,240 648,249 655,249 658,244 664,245 666,249 669,253 673,251 675,251 679,251 680,255 679,262 680,267 675,271 669,275 664,275 661,268 656,271 653,277 655,282 656,288 652,290 649,292 653,297 660,299 664,303 670,306 674,310 680,313 686,315 689,318 685,319 683,323 689,326 693,332 697,330 702,327 705,330 711,332 711,332 709,337 705,341 704,348 707,352 703,356 703,365 702,372 706,374 708,368 715,367 717,372 720,376 724,374 729,376 733,374 738,372 742,374 745,381 743,385 737,381 735,383 735,389 732,394" fill="none" stroke="#3b82f6" stroke-width="0.7" stroke-opacity="0.35" stroke-linejoin="round"/>
<polyline points="749,0 752,7 756,11 759,15 757,20 750,20 750,15 747,9 739,7 741,4" fill="none" stroke="#3b82f6" stroke-width="0.7" stroke-opacity="0.35" stroke-linejoin="round"/>
<polyline points="0,233 4,230 4,234 8,240 3,244" fill="none" stroke="#3b82f6" stroke-width="0.7" stroke-opacity="0.35" stroke-linejoin="round"/>
<polyline points="107,394 106,387 101,391 101,387 103,381 104,374 106,372 109,370 104,365 101,361 104,356 99,354 93,350 97,344 95,339 97,332 100,330 98,323 99,318 95,313 94,310 96,304 92,301 95,297 92,290 91,286 86,287 83,282 82,273 81,266 88,265 92,260 95,254 100,251 99,246 106,247 106,251 112,249 112,243 115,242 121,246 125,245 125,249 128,254 130,258 134,259 139,259 142,257 145,260 145,264 152,263 156,267 160,262 158,257 157,251 152,249 148,246 148,242 152,236 158,233 160,227 166,227 170,231 176,233 178,231 180,224 183,220 184,216 181,209 178,204 181,200 178,197 176,193 172,187 178,188 180,184 177,178 172,175 168,169 173,169 180,167 180,163 181,167 187,167 189,159 194,156 197,154 193,150 194,143 190,141 187,143 183,138 178,142 176,146 178,154 177,158 174,164 169,160 172,156 169,152 167,143 167,143 161,143 157,141 156,136 154,130 150,126 145,121 144,114 141,108 136,105 132,105 126,108 128,114 123,117 120,112 120,108 118,101 114,95 110,96 106,97 100,99 98,106 96,112 103,113 110,117 106,121 99,119 93,117 90,119 84,117 79,113 75,113 69,110 64,106 59,102 55,97 52,92 51,88 44,86 40,81 39,75 44,70 43,62 46,56 53,59 53,67 55,62 61,57 63,51 66,53 70,49 79,48 84,45 83,40 88,35 88,33 92,32 95,26 99,26 100,22 99,14 96,9 97,1" fill="none" stroke="#3b82f6" stroke-width="0.7" stroke-opacity="0.35" stroke-linejoin="round"/>
<polyline points="726,10 730,13 738,15 733,18 726,21 728,15 726,10" fill="none" stroke="#3b82f6" stroke-width="0.7" stroke-opacity="0.35" stroke-linejoin="round"/>
<polyline points="106,28 103,32 108,36 110,31 106,28" fill="none" stroke="#3b82f6" stroke-width="0.7" stroke-opacity="0.35" stroke-linejoin="round"/>
<polyline points="57,80 57,88 59,86 64,84 70,88 68,94 77,93 79,89 84,86 77,87 75,90 71,84 66,81 59,82" fill="none" stroke="#3b82f6" stroke-width="0.7" stroke-opacity="0.35" stroke-linejoin="round"/>
<polyline points="691,92 686,96 686,99 691,102 699,101 694,97 691,92" fill="none" stroke="#3b82f6" stroke-width="0.7" stroke-opacity="0.35" stroke-linejoin="round"/>
<polyline points="79,146 79,153 77,158 73,155 73,148 79,146" fill="none" stroke="#3b82f6" stroke-width="0.7" stroke-opacity="0.35" stroke-linejoin="round"/>
<polyline points="22,162 27,165 26,170 29,176 26,177 22,176 24,183 30,183 37,180 37,183 40,189 46,186 46,182 53,184 59,185 64,180 63,176 68,177 75,179 73,185 69,189 64,192 62,197 64,202 62,209 65,216 63,222 60,229 67,231 63,233 59,236 51,236 53,233 49,231 43,233 45,240 42,244 37,241 35,235 31,229 26,225 24,218 23,211 20,207 15,202 13,198 20,194 18,190 15,185 17,178 21,174 24,167 22,162" fill="none" stroke="#3b82f6" stroke-width="0.7" stroke-opacity="0.35" stroke-linejoin="round"/>
<polyline points="42,169 47,172 43,172 44,177 39,178 39,176 39,174 42,169" fill="none" stroke="#3b82f6" stroke-width="0.7" stroke-opacity="0.35" stroke-linejoin="round"/>
<polyline points="781,171 784,174 784,176 779,176 781,171" fill="none" stroke="#3b82f6" stroke-width="0.7" stroke-opacity="0.35" stroke-linejoin="round"/>
<polyline points="79,219 84,224 86,227 84,231 90,235 95,237 95,241 87,240 79,238 75,244 72,242 68,237 72,233 75,229 77,223 79,219" fill="none" stroke="#3b82f6" stroke-width="0.7" stroke-opacity="0.35" stroke-linejoin="round"/>
<polyline points="11,250 20,250 20,256 15,251 11,256 9,252" fill="none" stroke="#3b82f6" stroke-width="0.7" stroke-opacity="0.35" stroke-linejoin="round"/>
<polyline points="44,251 48,256 46,261 44,264 43,255" fill="none" stroke="#3b82f6" stroke-width="0.7" stroke-opacity="0.35" stroke-linejoin="round"/>
<polyline points="46,272 51,273 57,274 56,279 56,284 48,284 43,282 44,273" fill="none" stroke="#3b82f6" stroke-width="0.7" stroke-opacity="0.35" stroke-linejoin="round"/>
<polyline points="103,281 101,287 106,290 112,293 117,293 119,286 114,283 109,282 103,281" fill="none" stroke="#3b82f6" stroke-width="0.7" stroke-opacity="0.35" stroke-linejoin="round"/>
<polyline points="35,288 38,293 42,297 47,301 44,308 40,310 36,306 33,301 31,295 34,290" fill="none" stroke="#3b82f6" stroke-width="0.7" stroke-opacity="0.35" stroke-linejoin="round"/>
<polyline points="178,321 174,326 174,332 178,336 183,339 187,334 189,338 198,337 201,332 199,326 194,322 187,321 178,321" fill="none" stroke="#3b82f6" stroke-width="0.7" stroke-opacity="0.35" stroke-linejoin="round"/>
<polyline points="106,330 102,334 106,337 112,337 108,332" fill="none" stroke="#3b82f6" stroke-width="0.7" stroke-opacity="0.35" stroke-linejoin="round"/>
<polyline points="709,0 706,4 708,11 704,13 698,15 696,22 691,26 686,29 679,31 682,37 686,37 687,40 687,44 684,46 678,48 678,46 678,44 674,48 672,55 677,59 675,67 671,72 671,79 664,78 660,73 660,80 658,86 659,90 653,90 649,95 645,94 645,89 639,88 635,86 634,79 627,75 623,81 616,83 616,88 620,94 620,99 623,103 628,106 634,102 640,104 642,108 644,114 647,119 646,125 647,131 641,134 637,139 634,143 639,145 637,152 636,156 642,154 647,151 653,152 659,152 660,157 656,163 658,167 658,173 651,174 649,171 650,167 655,163 651,156 648,158 642,157 638,161 637,169 639,174 641,178 647,178 650,183 647,187 640,187 636,190 633,196 637,200 639,207 640,213 636,218 632,222 634,229 633,235 634,243 636,249 634,255 636,257 636,264 634,268 631,273 636,275 640,280 645,282 645,286 640,291 636,287 637,293 634,298 631,299 636,303 638,306 639,312 643,312 640,317 637,323 635,330 640,333 646,330 647,323 647,319 651,315 649,309 645,309 642,304 645,299 651,300 656,304 658,309 658,315 661,317 659,323 662,321 664,315 662,312 667,310 672,315 671,317 671,322 673,328 678,332 680,332 682,337 684,341 689,338 693,342 698,341 693,345 693,353 691,356 693,363 691,368 693,374 691,378 695,382 693,385 698,387 702,382 706,387 706,394" fill="none" stroke="#06b6d4" stroke-width="1.1" stroke-opacity="0.55" stroke-linejoin="round"/>
<polyline points="140,394 143,388 146,383 148,378 150,374 145,370 139,374 134,377 132,381 130,382 125,378 120,374 118,374 116,370 114,364 119,359 121,355 118,350 114,347 119,341 122,337 117,333 112,330 114,324 114,319 110,315 107,308 112,304 116,299 121,300 127,301 128,295 128,290 132,286 139,282 143,282 150,280 155,277 157,277 161,282 167,284 174,282 173,277 171,271 167,266 164,260 167,254 172,255 178,257 176,261 178,264 185,264 186,266 191,266 196,268 198,274 200,279 202,276 207,272 213,269 211,265 208,260 209,253 205,253 198,251 196,245 191,242 194,238 192,231 190,224 194,220 200,217 204,213 207,211 210,211 214,213 215,209 213,202 209,202 205,201 200,205 195,209 189,208 185,202 189,196 187,193 184,196 186,189 187,181 194,180 199,178 206,180 211,183 209,188 207,192 211,197 215,191 219,191 215,187 220,188 224,187 218,184 215,178 214,174 218,168 218,165 221,163 216,160 211,157 216,154 222,154 224,149 227,153 224,157 224,163 229,163 235,159 240,156 245,152 240,147 242,139 239,132 235,127 231,127 224,128 220,128 218,123 213,125 207,129 203,134 196,135 198,132 196,127 191,130 184,132 176,133 172,128 178,128 185,126 188,121 185,115 180,110 180,106 174,106 172,112 169,118 165,113 165,110 165,103 161,104 156,101 150,102 146,101 143,101 137,97 134,91 132,86 130,83 128,90 124,88 121,90 115,90 111,88 107,84 106,79 103,73 96,73 101,70 108,67 107,62 105,57 102,64 97,66 92,66 87,66 86,68 81,73 79,66 73,70 70,75 68,72 66,71 62,67 64,64 66,66 73,67 75,61 79,60 79,55 84,53 87,51 91,46 92,37 97,38 103,41 109,40 114,42 121,45 125,44 122,42 125,37 124,31 128,25 123,23 125,19 134,18 139,14 143,18 141,13 141,7 139,2" fill="none" stroke="#06b6d4" stroke-width="1.1" stroke-opacity="0.55" stroke-linejoin="round"/>
<polyline points="381,394 383,389 377,385 375,389 375,394" fill="none" stroke="#06b6d4" stroke-width="1.1" stroke-opacity="0.55" stroke-linejoin="round"/>
<polyline points="161,19 154,22 150,26 156,26 162,26 163,22" fill="none" stroke="#06b6d4" stroke-width="1.1" stroke-opacity="0.55" stroke-linejoin="round"/>
<polyline points="519,32 515,36 508,34 502,37 497,35 499,41 504,40 503,46 504,49 508,49 511,55 510,63 515,65 521,63 526,66 532,65 536,62 537,59 531,59 528,55 524,50 520,44 524,43 528,37 524,37 519,32" fill="none" stroke="#06b6d4" stroke-width="1.1" stroke-opacity="0.55" stroke-linejoin="round"/>
<polyline points="603,32 599,37 596,43 597,48 598,53 601,58 605,53 609,48 612,44 615,37 611,33 603,32" fill="none" stroke="#06b6d4" stroke-width="1.1" stroke-opacity="0.55" stroke-linejoin="round"/>
<polyline points="559,36 554,41 554,48 559,51 554,53 549,53 553,57 557,55 562,55 564,48 570,46 570,51 570,59 574,62 576,65 579,68 583,63 585,55 582,48 583,43 578,44 572,41 568,36 559,36" fill="none" stroke="#06b6d4" stroke-width="1.1" stroke-opacity="0.55" stroke-linejoin="round"/>
<polyline points="647,36 643,42 649,44 654,42 649,37" fill="none" stroke="#06b6d4" stroke-width="1.1" stroke-opacity="0.55" stroke-linejoin="round"/>
<polyline points="130,42 130,46 136,48 134,46 130,42" fill="none" stroke="#06b6d4" stroke-width="1.1" stroke-opacity="0.55" stroke-linejoin="round"/>
<polyline points="145,41 141,46 145,53 148,51 148,42" fill="none" stroke="#06b6d4" stroke-width="1.1" stroke-opacity="0.55" stroke-linejoin="round"/>
<polyline points="647,52 644,57 647,62 647,56 647,52" fill="none" stroke="#06b6d4" stroke-width="1.1" stroke-opacity="0.55" stroke-linejoin="round"/>
<polyline points="543,59 539,64 544,66 549,62 543,59" fill="none" stroke="#06b6d4" stroke-width="1.1" stroke-opacity="0.55" stroke-linejoin="round"/>
<polyline points="691,60 696,64 693,66 695,71 691,67 690,64" fill="none" stroke="#06b6d4" stroke-width="1.1" stroke-opacity="0.55" stroke-linejoin="round"/>
<polyline points="517,67 513,70 511,75 510,83 514,84 517,79 516,73 517,67" fill="none" stroke="#06b6d4" stroke-width="1.1" stroke-opacity="0.55" stroke-linejoin="round"/>
<polyline points="537,67 533,73 532,79 537,82 542,79 541,72 537,67" fill="none" stroke="#06b6d4" stroke-width="1.1" stroke-opacity="0.55" stroke-linejoin="round"/>
<polyline points="592,67 590,75 589,81 594,84 601,83 607,84 614,83 615,75 609,72 601,71 595,68" fill="none" stroke="#06b6d4" stroke-width="1.1" stroke-opacity="0.55" stroke-linejoin="round"/>
<polyline points="691,72 695,76 695,81 698,86 693,89 688,86 684,84 678,88 672,88 671,79 675,75 680,79 686,80 691,75 691,72" fill="none" stroke="#06b6d4" stroke-width="1.1" stroke-opacity="0.55" stroke-linejoin="round"/>
<polyline points="598,100 596,103 601,109 604,103 598,100" fill="none" stroke="#06b6d4" stroke-width="1.1" stroke-opacity="0.55" stroke-linejoin="round"/>
<polyline points="293,195 288,199 285,205 290,209 295,213 301,215 308,212 310,205 310,198 306,196 299,196 294,198" fill="none" stroke="#06b6d4" stroke-width="1.1" stroke-opacity="0.55" stroke-linejoin="round"/>
<polyline points="44,197 49,200 52,207 52,211 49,218 46,214 44,209 44,204 44,197" fill="none" stroke="#06b6d4" stroke-width="1.1" stroke-opacity="0.55" stroke-linejoin="round"/>
<polyline points="271,218 267,222 266,229 273,230 282,229 282,226 279,224 275,222 271,218" fill="none" stroke="#06b6d4" stroke-width="1.1" stroke-opacity="0.55" stroke-linejoin="round"/>
<polyline points="119,253 123,255 120,260 115,264 112,264 108,264 110,255 117,253" fill="none" stroke="#06b6d4" stroke-width="1.1" stroke-opacity="0.55" stroke-linejoin="round"/>
<polyline points="209,279 202,280 200,287 196,291 191,296 187,297 180,299 180,305 185,308 183,315 179,312 176,307 172,308 166,308 161,304 156,308 155,312 157,319 153,321 153,323 158,328 158,332 154,337 152,334 154,330 147,330 143,331 138,334 138,339 142,341 147,337 151,339 154,341 158,343 161,345 162,350 166,348 172,344 176,345 178,348 178,350 182,352 178,358 178,363 178,367 185,367 191,365 196,364 200,363 206,361 209,361 212,354 207,351 202,348 206,345 207,345 208,337 208,332 204,328 204,323 209,320 207,315 203,310 198,306 196,302 192,299 199,299 202,304 208,301 213,299 213,291 213,287 210,282" fill="none" stroke="#06b6d4" stroke-width="1.1" stroke-opacity="0.55" stroke-linejoin="round"/>
<polyline points="627,305 620,306 614,308 610,310 607,315 610,317 615,315 612,320 614,325 618,328 624,328 628,330 629,323 631,316 629,312 629,315 625,314 628,308" fill="none" stroke="#06b6d4" stroke-width="1.1" stroke-opacity="0.55" stroke-linejoin="round"/>
<polyline points="631,336 625,338 621,343 622,348 625,352 627,361 631,359 638,357 644,359 644,354 639,350 635,345 636,339 636,336" fill="none" stroke="#06b6d4" stroke-width="1.1" stroke-opacity="0.55" stroke-linejoin="round"/>
<polyline points="128,363 130,367 133,370 132,365 128,363" fill="none" stroke="#06b6d4" stroke-width="1.1" stroke-opacity="0.55" stroke-linejoin="round"/>
<polyline points="326,0 323,5 326,12 330,13 328,17 323,20 321,24 328,26 329,35 326,42 328,48 326,53 326,57 330,56 330,52 339,52 345,48 350,44 356,42 357,37 360,44 365,42 370,40 367,34 364,35 360,33 358,26 363,22 367,18 370,11 373,11 374,8 378,12 383,8 389,6 392,0" fill="none" stroke="#3b82f6" stroke-width="0.7" stroke-opacity="0.35" stroke-linejoin="round"/>
<polyline points="576,0 573,7 570,13 566,18 562,20 556,18 550,14 546,18 548,24 546,28 541,26 539,31 535,30 528,28 519,27 515,24 508,26 502,26 503,18 506,18 504,13 499,13 494,13 488,11 484,5 478,4 473,7 469,13 464,17 461,22 466,21 471,24 477,28 477,33 478,40 482,44 480,47 486,46 490,46 496,48 496,53 494,59 499,64 501,70 502,75 502,82 502,88 506,92 509,97 515,100 521,103 528,104 535,107 541,106 546,101 550,96 557,98 561,102 566,103 570,101 569,97 572,90 576,87 581,90 587,93 586,99 584,106 582,112 585,118 587,124 590,121 594,121 596,116 601,120 607,122 611,128 616,128 619,121 625,117 629,121 627,128 624,132 616,134 612,137 609,143 612,149 614,154 620,156 623,154 627,160 626,165 620,164 618,168 618,174 623,178 625,181 623,185 621,191 624,198 625,204 629,206 631,213 629,216 628,220 628,224 629,233 626,240 618,240 611,242 613,249 616,251 620,255 623,260 623,265 625,271 628,277 626,284 625,289 622,293 616,295 614,290 609,286 607,290 605,295 605,298 601,304 595,306 591,310 587,317 589,321 593,323 596,321 595,328 589,328 584,326 581,330 577,337 573,341 569,345 572,350 576,354 580,361 585,364 594,363 601,366 601,374 600,381 600,385 603,387 605,390" fill="none" stroke="#3b82f6" stroke-width="0.7" stroke-opacity="0.35" stroke-linejoin="round"/>
<polyline points="618,0 618,7 615,13 612,18 609,15 610,11 614,5 616,1" fill="none" stroke="#3b82f6" stroke-width="0.7" stroke-opacity="0.35" stroke-linejoin="round"/>
<polyline points="648,0 651,6 657,9 653,14 650,9 645,4 640,2" fill="none" stroke="#3b82f6" stroke-width="0.7" stroke-opacity="0.35" stroke-linejoin="round"/>
<polyline points="150,394 152,389 157,385 157,381 161,375 165,370 169,371 173,376 176,376 180,381 186,385 189,392" fill="none" stroke="#3b82f6" stroke-width="0.7" stroke-opacity="0.35" stroke-linejoin="round"/>
<polyline points="204,394 205,386 211,388 211,385 209,378 209,373 213,369 216,367 221,363 227,361 224,356 219,352 216,346 216,341 218,334 222,339 227,342 226,337 231,337 234,332 238,328 234,323 233,316 233,309 231,305 226,304 223,299 227,296 225,293 222,287 220,280 216,275 220,269 224,269 228,264 231,258 231,253 233,248 238,248 242,248 244,242 242,236 245,233 239,231 244,228 244,223 246,216 255,218 260,220 261,224 260,229 257,234 249,234 251,239 253,242 257,246 264,242 268,238 273,242 277,243 286,242 290,239 297,242 301,246 301,250 304,245 306,241 309,235 315,233 311,229 315,224 316,220 317,213 322,213 324,207 318,205 325,205 328,201 328,195 323,191 327,187 329,180 328,174 327,169 326,165 325,161 319,164 317,160 319,156 312,158 311,165 316,169 314,176 308,178 306,180 301,176 299,171 297,176 300,180 301,185 295,187 290,183 286,187 282,186 282,184 277,181 280,176 282,170 277,169 274,165 279,163 283,161 279,156 277,150 271,146 268,141 263,136 259,139 253,141 251,134 250,128 249,119 246,122 242,117 240,114 234,112 229,108 224,113 220,109 216,114 211,113 211,117 207,121 202,123 198,118 195,117 193,110 189,105 187,99 190,95 191,90 189,84 191,79 194,78 193,70 196,71 198,76 202,73 204,68 202,60 198,57 202,53 198,48 200,42 198,39 191,42 190,48 185,51 178,49 174,53 167,52 165,47 165,42 164,37 163,33 169,29 174,26 172,20 172,20 172,17 165,14 158,13 153,9 150,9 150,6" fill="none" stroke="#3b82f6" stroke-width="0.7" stroke-opacity="0.35" stroke-linejoin="round"/>
<polyline points="391,394 392,389 387,384 381,381 376,378 370,380 364,383 360,381 356,381 351,383 348,388 341,386 335,383 330,384 328,387 331,394" fill="none" stroke="#3b82f6" stroke-width="0.7" stroke-opacity="0.35" stroke-linejoin="round"/>
<polyline points="460,394 460,388 464,385 462,379 458,385 451,386 449,392 454,394" fill="none" stroke="#3b82f6" stroke-width="0.7" stroke-opacity="0.35" stroke-linejoin="round"/>
<polyline points="634,394 629,389 631,387 638,384 642,384 646,389 647,386 649,382 649,386 654,389 651,394" fill="none" stroke="#3b82f6" stroke-width="0.7" stroke-opacity="0.35" stroke-linejoin="round"/>
<polyline points="345,15 350,20 354,15 355,18 350,20 344,18" fill="none" stroke="#3b82f6" stroke-width="0.7" stroke-opacity="0.35" stroke-linejoin="round"/>
<polyline points="579,22 585,22 586,26 585,33 579,36 579,31 577,24" fill="none" stroke="#3b82f6" stroke-width="0.7" stroke-opacity="0.35" stroke-linejoin="round"/>
<polyline points="662,29 662,35 666,40 667,45 661,46 659,40 660,32" fill="none" stroke="#3b82f6" stroke-width="0.7" stroke-opacity="0.35" stroke-linejoin="round"/>
<polyline points="207,34 205,42 211,46 215,44 211,39 207,34" fill="none" stroke="#3b82f6" stroke-width="0.7" stroke-opacity="0.35" stroke-linejoin="round"/>
<polyline points="385,35 381,40 378,44 383,46 387,42 389,40 385,35" fill="none" stroke="#3b82f6" stroke-width="0.7" stroke-opacity="0.35" stroke-linejoin="round"/>
<polyline points="370,44 367,48 363,50 367,55 372,55 376,53 374,48 370,44" fill="none" stroke="#3b82f6" stroke-width="0.7" stroke-opacity="0.35" stroke-linejoin="round"/>
<polyline points="161,57 165,59 165,65 169,70 174,74 178,79 174,81 176,88 181,86 182,88 176,91 172,86 169,84 165,89 158,91 154,87 145,87 145,79 140,75 136,69 130,71 127,68 123,69 123,63 128,64 132,59 136,59 143,62 145,68 149,73 154,75 152,70 147,67 150,64 156,65 159,59" fill="none" stroke="#3b82f6" stroke-width="0.7" stroke-opacity="0.35" stroke-linejoin="round"/>
<polyline points="414,59 409,63 405,68 398,69 399,75 403,81 405,86 411,86 416,90 416,94 425,93 430,97 434,95 440,90 445,88 449,82 453,79 458,79 462,78 466,74 471,70 466,68 462,70 456,75 449,75 442,75 436,72 431,75 431,70 427,68 422,71 420,67 425,64 420,60 414,59" fill="none" stroke="#3b82f6" stroke-width="0.7" stroke-opacity="0.35" stroke-linejoin="round"/>
<polyline points="317,130 310,132 304,134 301,138 305,139 310,141 309,136 312,135 317,131 317,130" fill="none" stroke="#3b82f6" stroke-width="0.7" stroke-opacity="0.35" stroke-linejoin="round"/>
<polyline points="249,145 253,148 260,146 264,150 262,156 257,160 251,157 251,150 248,147" fill="none" stroke="#3b82f6" stroke-width="0.7" stroke-opacity="0.35" stroke-linejoin="round"/>
<polyline points="299,145 301,152 301,158 301,161 297,166 301,168 306,165 306,156 306,152 302,147" fill="none" stroke="#3b82f6" stroke-width="0.7" stroke-opacity="0.35" stroke-linejoin="round"/>
<polyline points="440,147 436,151 427,151 424,152 429,154 435,158 438,163 444,161 447,156 444,153 449,152 442,149" fill="none" stroke="#3b82f6" stroke-width="0.7" stroke-opacity="0.35" stroke-linejoin="round"/>
<polyline points="238,178 240,183 235,186 233,181 238,178" fill="none" stroke="#3b82f6" stroke-width="0.7" stroke-opacity="0.35" stroke-linejoin="round"/>
<polyline points="524,189 518,191 519,199 525,200 529,196 528,191 524,189" fill="none" stroke="#3b82f6" stroke-width="0.7" stroke-opacity="0.35" stroke-linejoin="round"/>
<polyline points="242,191 249,192 251,196 245,200 242,205 234,205 240,201 239,196 242,191" fill="none" stroke="#3b82f6" stroke-width="0.7" stroke-opacity="0.35" stroke-linejoin="round"/>
<polyline points="504,200 504,203 506,207 512,205 515,203 513,200 508,199 504,200" fill="none" stroke="#3b82f6" stroke-width="0.7" stroke-opacity="0.35" stroke-linejoin="round"/>
<polyline points="530,201 527,207 521,209 522,213 530,213 535,208 532,204" fill="none" stroke="#3b82f6" stroke-width="0.7" stroke-opacity="0.35" stroke-linejoin="round"/>
<polyline points="515,210 510,214 510,216 517,215 517,220 519,225 520,218 519,211" fill="none" stroke="#3b82f6" stroke-width="0.7" stroke-opacity="0.35" stroke-linejoin="round"/>
<polyline points="209,224 216,226 220,226 225,227 231,224 231,228 230,233 228,240 222,239 218,234 211,236 209,242 206,238 207,231 209,230 209,225" fill="none" stroke="#3b82f6" stroke-width="0.7" stroke-opacity="0.35" stroke-linejoin="round"/>
<polyline points="312,278 308,282 310,284 319,282 322,282 317,277" fill="none" stroke="#3b82f6" stroke-width="0.7" stroke-opacity="0.35" stroke-linejoin="round"/>
<polyline points="592,290 589,293 585,294 591,297 597,297 597,293 601,289 594,291" fill="none" stroke="#3b82f6" stroke-width="0.7" stroke-opacity="0.35" stroke-linejoin="round"/>
<polyline points="579,338 585,340 585,345 589,350 585,355 582,359 579,352 576,348 575,343 579,338" fill="none" stroke="#3b82f6" stroke-width="0.7" stroke-opacity="0.35" stroke-linejoin="round"/>
<polyline points="139,348 143,352 144,356 151,359 145,361 141,357 139,352 139,348" fill="none" stroke="#3b82f6" stroke-width="0.7" stroke-opacity="0.35" stroke-linejoin="round"/>
<polyline points="152,350 155,354 154,361 152,359 150,354 152,350" fill="none" stroke="#3b82f6" stroke-width="0.7" stroke-opacity="0.35" stroke-linejoin="round"/>
<polyline points="682,355 686,361 684,364 680,369 678,365 683,361 682,355" fill="none" stroke="#3b82f6" stroke-width="0.7" stroke-opacity="0.35" stroke-linejoin="round"/>
<polyline points="350,360 345,363 341,367 344,372 349,370 352,365 350,360" fill="none" stroke="#3b82f6" stroke-width="0.7" stroke-opacity="0.35" stroke-linejoin="round"/>
<polyline points="303,0 306,5 308,13 311,11 317,7 317,13 313,20 315,23 317,26 316,35 312,41 307,44 310,48 308,53 304,59 301,65 303,70 308,73 312,73 319,76 322,73 326,77 332,76 334,72 336,66 338,70 342,75 348,77 348,70 353,66 354,63 363,62 370,61 372,66 371,73 376,77 376,81 381,84 387,83 392,86 395,88 396,92 396,96 400,99 404,106 409,109 416,112 418,117 427,118 433,119 434,112 440,110 447,112 453,108 458,104 465,106 471,108 480,109 477,106 475,101 482,97 486,99 492,99 497,100 502,105 506,108 506,103 509,106 506,112 508,115 515,113 520,117 515,116 515,119 517,125 524,126 528,123 535,124 541,121 545,117 550,119 552,115 552,112 559,113 564,112 570,116 574,119 581,122 580,128 584,132 586,139 592,142 596,142 596,148 593,150 597,152 601,150 607,154 610,158 612,164 610,172 607,178 603,181 598,183 601,178 598,173 595,178 590,177 585,173 579,175 572,177 572,183 568,181 563,187 560,185 559,180 565,181 565,174 559,173 554,169 548,167 544,167 541,174 535,169 530,166 526,161 528,158 532,152 537,149 539,144 535,139 532,136 527,141 521,144 519,149 521,155 521,161 522,167 517,171 517,176 515,182 508,179 509,185 502,186 495,184 490,180 487,174 493,172 491,171 482,172 477,175 473,174 470,180 469,185 469,189 473,194 480,197 480,204 479,211 477,214 479,220 484,219 484,216 489,216 495,212 498,213 502,218 501,224 506,224 510,227 511,231 510,236 518,238 521,238 526,233 530,231 535,227 537,220 541,213 546,210 552,211 550,207 551,205 554,210 555,202 557,198 552,197 550,200 550,195 545,191 546,185 544,178 549,176 554,179 557,186 562,189 566,189 572,187 572,189 572,194 574,195 579,195 583,191 588,191 585,186 585,179 590,183 591,191 594,189 601,190 604,191 607,197 605,200 598,200 594,199 591,205 595,207 598,209 603,215 605,221 607,226 610,227 615,224 618,228 620,232 617,235 612,234 605,232 603,237 603,241 604,249 600,253 603,259 601,263 595,262 599,266 594,270 587,271 588,277 585,277 583,281 583,284 577,288 575,295 573,301 576,308 579,313 574,315 571,310 565,311 558,312 561,318 565,323 567,330 563,337 558,337 552,339 548,342 546,336 539,337 534,341 531,348 530,352 536,356 537,362 530,364 522,365 517,369 513,370 509,374 515,376 515,381 512,385 515,389" fill="none" stroke="#3b82f6" stroke-width="0.7" stroke-opacity="0.35" stroke-linejoin="round"/>
<polyline points="538,0 533,4 530,11 524,8 520,2 527,0" fill="none" stroke="#3b82f6" stroke-width="0.7" stroke-opacity="0.35" stroke-linejoin="round"/>
<polyline points="560,0 557,6 552,11 549,9 546,7 539,9 538,7 543,3" fill="none" stroke="#3b82f6" stroke-width="0.7" stroke-opacity="0.35" stroke-linejoin="round"/>
<polyline points="165,394 166,389 168,385 174,388 176,385 178,389" fill="none" stroke="#3b82f6" stroke-width="0.7" stroke-opacity="0.35" stroke-linejoin="round"/>
<polyline points="220,394 224,390 227,385 231,379 235,376 237,378 241,383 244,383 241,381 244,375 252,376 258,376 262,376 260,383 265,385 271,383 274,378 280,376 281,367 284,363 286,359 293,358 290,353 290,350 286,344 282,339 279,334 273,331 269,337 262,338 258,337 260,330 255,328 255,331 251,335 249,328 245,323 241,319 242,315 240,308 240,301 244,296 249,297 253,291 251,287 246,290 239,290 235,286 233,279 229,277 235,278 241,275 246,271 242,264 243,260 249,260 255,257 257,252 264,255 268,257 270,251 275,248 282,249 284,253 290,255 295,258 299,261 297,268 295,271 299,277 297,279 299,286 297,291 295,297 295,301 291,301 290,308 295,308 299,312 306,314 315,314 320,310 326,310 332,308 326,304 325,297 328,295 328,293 331,286 332,282 339,280 343,276 341,271 339,269 333,271 326,268 323,268 316,266 317,259 323,260 328,257 328,250 326,246 325,240 325,235 323,229 321,227 319,221 323,218 330,215 334,209 333,205 332,198 332,192 332,185 333,178 338,178 337,173 338,169 334,165 334,159 332,154 326,150 321,145 326,144 332,143 334,139 329,134 334,131 337,127 339,121 334,115 329,119 326,125 323,122 317,125 312,124 307,128 302,125 299,123 293,125 289,125 284,127 277,128 271,131 265,128 259,125 259,121 257,114 253,110 251,103 253,97 253,94 255,90 251,93 246,98 243,97 237,97 238,103 236,99 229,99 229,95 232,90 231,85 235,81 238,77 246,78 251,77 248,70 242,67 237,66 235,70 231,64 233,58 231,53 230,44 232,37 235,32 240,26 240,18 238,14 235,10 231,8 228,9 231,13 222,12 220,6 218,1" fill="none" stroke="#3b82f6" stroke-width="0.7" stroke-opacity="0.35" stroke-linejoin="round"/>
<polyline points="413,394 411,386 408,392 404,389 400,383 394,381 392,375 387,375 383,376 378,371 372,372 368,370 367,365 370,359 375,356 380,354 379,363 385,363 383,356 383,351 382,345 383,340 386,337 381,334 374,335 372,332 376,327 383,326 385,328 391,323 396,320 398,317 400,310 394,306 389,307 383,304 384,299 379,299 378,296 372,298 372,293 368,288 365,291 363,286 359,279 356,282 357,288 353,293 350,295 352,300 352,307 361,308 364,312 363,319 365,326 363,332 363,340 364,343 357,343 356,337 354,337 345,337 349,341 348,350 345,355 337,354 332,356 326,358 319,360 314,363 312,370 313,376 311,383 307,385 302,383 297,387 295,392" fill="none" stroke="#3b82f6" stroke-width="0.7" stroke-opacity="0.35" stroke-linejoin="round"/>
<polyline points="481,394 476,389 476,387 479,383 483,378 477,376 469,376 464,374 455,375 451,371 444,368 442,362 440,356 437,352 435,359 438,361 433,362 431,363 433,365 436,372 434,376 431,382 427,387 420,388 416,388 417,394" fill="none" stroke="#3b82f6" stroke-width="0.7" stroke-opacity="0.35" stroke-linejoin="round"/>
<polyline points="508,394 506,389 504,383 502,386 499,392 492,394" fill="none" stroke="#3b82f6" stroke-width="0.7" stroke-opacity="0.35" stroke-linejoin="round"/>
<polyline points="519,394 521,389 528,386 534,383 538,378 543,380 541,376 542,370 549,367 543,365 547,363 552,362 557,359 561,357 565,363 569,367 574,367 580,370 585,374 585,378 581,384 573,385 570,391 565,389 561,394" fill="none" stroke="#3b82f6" stroke-width="0.7" stroke-opacity="0.35" stroke-linejoin="round"/>
<polyline points="183,6 187,9 185,13 185,11 183,6" fill="none" stroke="#3b82f6" stroke-width="0.7" stroke-opacity="0.35" stroke-linejoin="round"/>
<polyline points="403,7 409,7 413,13 410,20 407,24 409,31 411,36 416,36 422,33 425,31 422,31 424,22 429,19 430,11 435,13 438,18 442,23 448,22 447,26 443,29 438,29 440,33 436,37 433,40 428,42 431,46 436,48 435,53 431,58 427,58 420,55 415,55 411,53 409,51 405,53 398,55 396,51 398,44 400,42 402,40 398,38 392,36 394,33 394,26 388,22 395,22 396,19 397,13 403,11 403,7" fill="none" stroke="#3b82f6" stroke-width="0.7" stroke-opacity="0.35" stroke-linejoin="round"/>
<polyline points="194,13 201,13 200,20 200,24 196,25 195,18 194,15 194,13" fill="none" stroke="#3b82f6" stroke-width="0.7" stroke-opacity="0.35" stroke-linejoin="round"/>
<polyline points="455,33 458,37 457,42 453,41 447,43 449,47 455,46 458,51 455,46 449,50 453,51 454,55 452,62 450,66 448,59 444,53 444,50 440,46 438,41 443,37 447,35 454,35" fill="none" stroke="#3b82f6" stroke-width="0.7" stroke-opacity="0.35" stroke-linejoin="round"/>
<polyline points="480,52 485,55 486,63 485,68 490,73 491,81 497,83 498,90 491,91 485,92 482,97 475,98 470,95 472,88 471,82 476,81 482,85 484,81 482,76 484,72 481,66 478,59 478,55" fill="none" stroke="#3b82f6" stroke-width="0.7" stroke-opacity="0.35" stroke-linejoin="round"/>
<polyline points="359,121 354,123 354,128 355,132 361,128 363,123 359,121" fill="none" stroke="#3b82f6" stroke-width="0.7" stroke-opacity="0.35" stroke-linejoin="round"/>
<polyline points="411,126 408,132 409,137 408,145 406,152 412,154 416,152 418,154 420,160 424,163 428,163 431,163 436,167 441,169 444,176 449,174 449,171 453,167 460,164 465,161 471,158 471,152 475,150 471,146 467,143 464,148 460,145 456,139 449,138 442,134 440,135 436,136 433,135 429,135 428,132 425,127 420,130 416,125" fill="none" stroke="#3b82f6" stroke-width="0.7" stroke-opacity="0.35" stroke-linejoin="round"/>
<polyline points="605,133 606,136 605,141 603,143 601,138 605,133" fill="none" stroke="#3b82f6" stroke-width="0.7" stroke-opacity="0.35" stroke-linejoin="round"/>
<polyline points="464,196 463,205 467,209 470,209 471,204 467,198" fill="none" stroke="#3b82f6" stroke-width="0.7" stroke-opacity="0.35" stroke-linejoin="round"/>
<polyline points="620,206 620,213 616,217 609,219 607,214 610,209 618,207" fill="none" stroke="#3b82f6" stroke-width="0.7" stroke-opacity="0.35" stroke-linejoin="round"/>
<polyline points="587,231 588,235 585,235 586,242 586,246 588,251 594,249 594,244 598,238 594,231 587,231" fill="none" stroke="#3b82f6" stroke-width="0.7" stroke-opacity="0.35" stroke-linejoin="round"/>
<polyline points="429,257 425,260 416,261 416,266 411,266 408,271 403,273 398,270 396,273 399,279 405,282 409,279 411,282 408,288 414,292 416,297 422,301 422,297 425,294 429,297 436,300 440,299 447,304 453,301 454,293 449,290 445,284 448,277 444,271 445,266 440,264 436,259 429,257" fill="none" stroke="#3b82f6" stroke-width="0.7" stroke-opacity="0.35" stroke-linejoin="round"/>
<polyline points="530,268 524,269 526,275 530,279 535,279 539,279 543,283 547,286 552,288 557,292 560,297 565,299 571,297 566,293 570,289 565,285 563,280 561,277 559,271 564,268 559,270 554,269 548,271 546,271 542,273 539,268 530,268" fill="none" stroke="#3b82f6" stroke-width="0.7" stroke-opacity="0.35" stroke-linejoin="round"/>
<polyline points="411,270 417,271 422,272 422,278 418,273 411,273" fill="none" stroke="#3b82f6" stroke-width="0.7" stroke-opacity="0.35" stroke-linejoin="round"/>
<polyline points="387,273 383,277 383,282 389,281 389,275" fill="none" stroke="#3b82f6" stroke-width="0.7" stroke-opacity="0.35" stroke-linejoin="round"/>
<polyline points="427,277 431,282 435,286 438,290 436,292 432,290 429,288 425,285 425,278" fill="none" stroke="#3b82f6" stroke-width="0.7" stroke-opacity="0.35" stroke-linejoin="round"/>
<polyline points="339,284 334,288 335,295 336,293 340,288" fill="none" stroke="#3b82f6" stroke-width="0.7" stroke-opacity="0.35" stroke-linejoin="round"/>
<polyline points="295,312 292,317 296,317 299,316 295,312" fill="none" stroke="#3b82f6" stroke-width="0.7" stroke-opacity="0.35" stroke-linejoin="round"/>
<polyline points="387,329 389,333 392,337 394,330 387,329" fill="none" stroke="#3b82f6" stroke-width="0.7" stroke-opacity="0.35" stroke-linejoin="round"/>
<polyline points="261,0 262,7 255,8 252,7 249,0" fill="none" stroke="#3b82f6" stroke-width="0.7" stroke-opacity="0.35" stroke-linejoin="round"/>
<polyline points="284,3 292,4 295,7 290,11 282,13 277,13 280,9 284,3" fill="none" stroke="#3b82f6" stroke-width="0.7" stroke-opacity="0.35" stroke-linejoin="round"/>
<polyline points="286,20 289,26 292,33 295,35 299,30 304,34 306,37 299,41 296,46 289,48 283,51 282,56 282,62 285,59 291,59 293,66 291,73 298,75 299,78 304,84 310,86 317,82 321,86 326,86 330,91 328,96 321,98 317,99 312,102 309,108 304,112 301,111 297,109 288,109 286,103 286,95 283,92 275,91 268,89 266,84 272,84 273,81 273,75 278,70 275,69 268,70 264,72 260,71 258,68 254,64 250,59 255,55 251,54 244,52 241,46 244,40 243,31 246,26 251,30 251,34 256,37 255,44 257,46 262,40 260,37 262,33 262,26 266,24 273,25 277,25 284,26 286,20" fill="none" stroke="#3b82f6" stroke-width="0.7" stroke-opacity="0.35" stroke-linejoin="round"/>
<polyline points="359,79 366,79 365,86 365,89 372,88 374,92 370,92 365,97 364,92 359,93 354,89 351,84 356,80" fill="none" stroke="#3b82f6" stroke-width="0.7" stroke-opacity="0.35" stroke-linejoin="round"/>
<polyline points="378,95 381,100 376,105 370,106 370,101 376,98" fill="none" stroke="#3b82f6" stroke-width="0.7" stroke-opacity="0.35" stroke-linejoin="round"/>
<polyline points="385,101 394,101 395,108 396,114 396,119 397,123 396,132 396,139 399,143 401,150 397,154 394,159 393,167 396,172 400,178 407,178 410,176 409,183 405,187 403,196 405,203 409,208 413,213 416,218 418,211 416,207 420,202 420,194 424,191 429,191 434,196 432,202 427,205 423,211 422,216 429,214 436,212 435,207 438,205 444,205 447,201 449,202 451,207 451,216 455,215 460,219 460,223 462,227 467,229 470,233 475,230 482,233 488,235 488,230 492,224 497,226 500,231 499,237 502,237 502,242 499,244 493,241 493,247 499,249 507,249 510,247 517,244 521,246 528,246 533,246 533,251 530,256 526,253 520,255 526,258 527,262 521,260 518,262 516,257 511,253 507,255 506,261 510,260 513,260 508,265 503,268 504,273 506,273 510,277 513,282 508,287 508,293 513,290 517,286 526,285 532,288 533,295 535,301 537,307 539,311 544,315 539,319 535,323 530,319 528,324 529,330 527,337 524,341 522,350 524,355 520,361 513,361 510,356 513,352 520,350 515,346 510,341 508,348 504,354 500,359 493,361 488,363 481,365 481,367 481,370 477,367 473,363 469,358 462,355 455,356 451,361 445,359 447,350 444,348 438,344 433,341 431,345 427,352 422,355 420,359 421,352 418,346 414,343 405,341 407,337 411,332 408,326 413,321 418,321 421,317 425,312 427,306 435,306 440,309 442,315 441,319 436,321 437,326 440,326 447,325 448,317 445,310 445,308 451,311 458,310 462,311 459,317 464,320 467,315 466,308 462,302 464,297 462,289 462,285 465,284 469,284 475,282 480,279 488,277 486,272 488,268 482,264 482,257 475,255 473,255 471,254 469,250 466,246 460,244 455,246 449,250 444,249 437,249 431,249 425,248 422,253 416,251 420,246 422,242 423,235 419,238 413,240 411,246 407,244 401,244 396,245 393,246 392,250 387,255 388,260 387,264 383,259 381,266 377,268 370,267 363,266 356,262 355,260 350,256 347,251 341,248 334,245 332,240 330,235 328,229 328,224 332,223 337,219 340,213 343,208 345,201 348,196 345,193 344,187 350,188 349,183 354,179 350,177 350,172 350,165 349,161 345,154 339,158 341,152 345,152 345,147 350,143 356,141 361,137 365,134 372,130 369,123 373,119 376,117 378,112 385,108 383,105 385,101" fill="none" stroke="#3b82f6" stroke-width="0.7" stroke-opacity="0.35" stroke-linejoin="round"/>
<polyline points="356,107 361,110 359,114 354,110 354,109" fill="none" stroke="#3b82f6" stroke-width="0.7" stroke-opacity="0.35" stroke-linejoin="round"/>
<polyline points="460,114 467,114 465,121 462,126 458,130 453,130 447,132 444,127 447,122 453,120 458,115" fill="none" stroke="#3b82f6" stroke-width="0.7" stroke-opacity="0.35" stroke-linejoin="round"/>
<polyline points="519,132 524,134 520,136 514,134 519,132" fill="none" stroke="#3b82f6" stroke-width="0.7" stroke-opacity="0.35" stroke-linejoin="round"/>
<polyline points="546,131 549,136 550,143 543,140 543,133" fill="none" stroke="#3b82f6" stroke-width="0.7" stroke-opacity="0.35" stroke-linejoin="round"/>
<polyline points="552,143 557,146 563,145 566,150 563,156 561,161 554,160 548,161 546,157 551,156 556,154 552,148 547,145 552,143" fill="none" stroke="#3b82f6" stroke-width="0.7" stroke-opacity="0.35" stroke-linejoin="round"/>
<polyline points="504,162 510,163 511,167 508,172 504,169 502,164" fill="none" stroke="#3b82f6" stroke-width="0.7" stroke-opacity="0.35" stroke-linejoin="round"/>
<polyline points="574,202 581,202 583,207 579,207 574,202" fill="none" stroke="#3b82f6" stroke-width="0.7" stroke-opacity="0.35" stroke-linejoin="round"/>
<polyline points="576,209 576,212 575,218 575,222 581,226 578,229 574,234 570,229 570,222 568,214 572,212 576,209" fill="none" stroke="#3b82f6" stroke-width="0.7" stroke-opacity="0.35" stroke-linejoin="round"/>
<polyline points="552,219 559,222 558,227 553,229 549,224 552,219" fill="none" stroke="#3b82f6" stroke-width="0.7" stroke-opacity="0.35" stroke-linejoin="round"/>
<polyline points="568,238 572,243 570,247 567,246 568,241" fill="none" stroke="#3b82f6" stroke-width="0.7" stroke-opacity="0.35" stroke-linejoin="round"/>
<polyline points="581,238 580,244 576,251 575,246 580,242" fill="none" stroke="#3b82f6" stroke-width="0.7" stroke-opacity="0.35" stroke-linejoin="round"/>
<polyline points="394,253 397,257 395,264 394,261 393,255" fill="none" stroke="#3b82f6" stroke-width="0.7" stroke-opacity="0.35" stroke-linejoin="round"/>
<polyline points="264,265 270,268 275,267 273,272 266,270 264,265" fill="none" stroke="#3b82f6" stroke-width="0.7" stroke-opacity="0.35" stroke-linejoin="round"/>
<polyline points="257,296 262,300 266,304 264,310 257,308 257,302 255,298" fill="none" stroke="#3b82f6" stroke-width="0.7" stroke-opacity="0.35" stroke-linejoin="round"/>
<polyline points="517,296 518,301 524,300 522,297 517,296" fill="none" stroke="#3b82f6" stroke-width="0.7" stroke-opacity="0.35" stroke-linejoin="round"/>
<polyline points="339,320 341,326 339,330 333,334 332,343 328,347 321,349 317,354 312,353 311,350 308,344 299,345 297,339 301,341 306,341 310,337 312,328 317,324 322,323 328,323 337,321" fill="none" stroke="#3b82f6" stroke-width="0.7" stroke-opacity="0.35" stroke-linejoin="round"/>
<polyline points="464,321 460,327 455,328 450,330 453,334 460,337 465,334 466,327 464,321" fill="none" stroke="#3b82f6" stroke-width="0.7" stroke-opacity="0.35" stroke-linejoin="round"/>
<polyline points="297,98 304,100 306,101 301,104 296,101" fill="none" stroke="#06b6d4" stroke-width="1.1" stroke-opacity="0.55" stroke-linejoin="round"/>
<polyline points="374,134 383,133 386,139 389,145 390,152 385,155 385,161 383,165 381,173 375,176 380,180 385,185 390,187 393,194 388,198 389,201 392,198 398,202 398,208 394,212 391,218 396,220 400,221 407,223 412,227 411,233 407,235 400,237 394,238 389,238 383,236 380,242 381,248 381,251 374,254 367,256 363,251 359,247 356,244 350,244 343,244 341,240 345,235 350,233 354,232 352,228 348,228 345,224 343,218 347,211 350,208 351,205 356,204 359,200 354,198 357,191 361,186 363,182 358,183 359,174 361,174 363,170 367,167 370,165 374,162 370,158 365,153 365,149 365,142 369,136 374,134" fill="none" stroke="#06b6d4" stroke-width="1.1" stroke-opacity="0.55" stroke-linejoin="round"/>
<polyline points="482,286 491,285 491,288 486,290 481,288" fill="none" stroke="#06b6d4" stroke-width="1.1" stroke-opacity="0.55" stroke-linejoin="round"/>
<polyline points="480,301 484,305 488,299 494,304 499,308 499,308 497,310 499,315 504,315 508,320 510,328 504,331 504,336 499,334 495,339 488,342 484,339 477,335 472,332 480,330 477,323 474,321 478,317 481,310 478,304" fill="none" stroke="#06b6d4" stroke-width="1.1" stroke-opacity="0.55" stroke-linejoin="round"/>
<polyline points="418,330 425,330 430,330 431,336 425,338 419,337 417,332" fill="none" stroke="#06b6d4" stroke-width="1.1" stroke-opacity="0.55" stroke-linejoin="round"/>
<polyline points="374,191 380,194 376,198 380,202 385,207 385,213 381,217 377,222 375,222 372,217 367,213 367,208 365,201 367,197 374,194" fill="none" stroke="#3b82f6" stroke-width="0.7" stroke-opacity="0.35" stroke-linejoin="round"/>
</svg>
